<?xml version="1.0" encoding="UTF-8"?>
<svg version="1.1" xmlns="http://www.w3.org/2000/svg" width="1024" height="1024">
<path d="M0 0 C2.25386976 1.0496533 4.51407556 2.08496113 6.77441406 3.12060547 C15.62821717 7.20663693 24.01930039 11.43799814 32.07910156 16.96826172 C33.06136719 17.60505859 34.04363281 18.24185547 35.05566406 18.89794922 C40.95628116 22.7370849 46.52289079 26.78623204 51.92285156 31.30419922 C53.97855396 33.00731304 53.97855396 33.00731304 56.17675781 33.98779297 C58.38170722 35.1242248 59.47290502 36.35221009 61.01660156 38.28076172 C64.18802618 42.2119148 67.72416005 45.69529986 71.40332031 49.15185547 C83.07394986 60.28235671 95.09023209 75.48073056 96.31738281 92.21826172 C96.70207499 111.65533992 88.04333909 125.13704858 75.07910156 138.96826172 C71.2204974 142.96405751 67.31702094 146.91318096 63.39160156 150.84326172 C62.89459747 151.34135345 62.39759338 151.83944519 61.88552856 152.35263062 C52.91117213 161.32476937 52.91117213 161.32476937 48.24707031 165.28857422 C41.83165936 170.78937282 36.01771944 176.96462248 30.07910156 182.96826172 C15.73459919 197.46982069 15.73459919 197.46982069 9.65429688 202.625 C7.50044926 204.46171258 5.49375601 206.44398498 3.45410156 208.40576172 C-8.85296428 219.39957358 -24.22084405 226.0214524 -40.94042969 225.27685547 C-57.76249712 223.5351211 -69.58641977 216.98242047 -82.37255859 206.40551758 C-107.2052658 186.04114683 -138.71468856 182.87100136 -169.7578125 185.17919922 C-205.21545549 188.76984661 -239.08733775 205.90032691 -262.23339844 232.96826172 C-268.42121016 240.65854529 -273.42651191 248.76653957 -277.92089844 257.53076172 C-278.39402466 258.44317627 -278.39402466 258.44317627 -278.87670898 259.37402344 C-279.622908 260.87492758 -280.28026226 262.41935517 -280.92089844 263.96826172 C-280.59089844 264.62826172 -280.26089844 265.28826172 -279.92089844 265.96826172 C-280.91089844 265.96826172 -281.90089844 265.96826172 -282.92089844 265.96826172 C-291.71206094 293.72982752 -297.45501864 324.02177066 -290.92089844 352.96826172 C-290.75960449 353.68739746 -290.59831055 354.4065332 -290.43212891 355.14746094 C-285.93450507 374.73362801 -278.34266236 393.94958267 -264.10058594 408.58544922 C-262.92089844 409.96826172 -262.92089844 409.96826172 -262.92089844 411.96826172 C-261.93089844 412.29826172 -260.94089844 412.62826172 -259.92089844 412.96826172 C-258.78004097 414.07454775 -257.64529248 415.18767259 -256.53808594 416.32763672 C-244.97921008 428.05403251 -231.82136619 436.14388178 -216.92089844 442.96826172 C-215.47263672 443.64501953 -215.47263672 443.64501953 -213.99511719 444.33544922 C-182.82247913 457.63026969 -143.51864452 457.87444202 -111.92089844 445.96826172 C-98.85151087 440.64857665 -88.20717939 433.00182551 -77.98339844 423.34326172 C-65.50349118 411.93363777 -50.09487432 405.86431566 -33.19433594 406.59326172 C-17.49865075 407.72806047 -5.47727052 414.64129092 6.07910156 424.96826172 C6.789375 425.31115234 7.49964844 425.65404297 8.23144531 426.00732422 C8.84117187 426.32443359 9.45089844 426.64154297 10.07910156 426.96826172 C10.4124349 428.30159505 10.74576823 429.63492839 11.07910156 430.96826172 C11.64113281 431.23251953 12.20316406 431.49677734 12.78222656 431.76904297 C15.89432908 433.39389921 17.89417115 435.6338695 20.32910156 438.15576172 C24.22110484 442.15371434 28.1848709 445.90871039 32.52050781 449.43310547 C34.24833991 451.13495513 35.11858687 452.75573286 36.07910156 454.96826172 C36.73910156 454.96826172 37.39910156 454.96826172 38.07910156 454.96826172 C39.80912616 456.59141221 41.43799358 458.25702924 43.07910156 459.96826172 C44.58936016 461.48403976 46.10268003 462.9967706 47.61816406 464.50732422 C52.43847656 469.32763672 57.25878906 474.14794922 62.07910156 478.96826172 C62.66224121 479.51015137 63.24538086 480.05204102 63.84619141 480.61035156 C65.07910156 481.96826172 65.07910156 481.96826172 65.07910156 483.96826172 C65.73910156 483.96826172 66.39910156 483.96826172 67.07910156 483.96826172 C70.28411038 487.4604811 73.13542571 491.25477589 76.07910156 494.96826172 C76.71847656 495.71978516 77.35785156 496.47130859 78.01660156 497.24560547 C86.90948277 507.90515281 91.58517029 520.37784776 90.91894531 534.31982422 C88.14910203 556.85505406 73.1159962 574.15008679 58.07910156 589.96826172 C57.34046875 590.75587891 56.60183594 591.54349609 55.84082031 592.35498047 C54.07910156 593.96826172 54.07910156 593.96826172 52.07910156 593.96826172 C52.07910156 594.62826172 52.07910156 595.28826172 52.07910156 595.96826172 C50.07070405 597.65185904 48.05939574 599.22696308 45.95410156 600.78076172 C44.80472951 601.64019037 43.65628793 602.50086484 42.50878906 603.36279297 C41.93668701 603.79116455 41.36458496 604.21953613 40.77514648 604.66088867 C39.11865967 605.9377689 37.52497112 607.26661826 35.93457031 608.62451172 C31.64859314 612.14241364 27.01191707 614.46658081 22.07910156 616.96826172 C21.34739746 617.3467627 20.61569336 617.72526367 19.86181641 618.11523438 C2.46538553 627.05667089 -15.28792318 633.49227432 -34.92089844 634.96826172 C-36.3246875 635.07460937 -36.3246875 635.07460937 -37.75683594 635.18310547 C-51.2327848 635.67709186 -62.93273836 631.49871126 -74.92089844 625.96826172 C-75.91089844 625.63826172 -76.90089844 625.30826172 -77.92089844 624.96826172 C-78.25089844 623.97826172 -78.58089844 622.98826172 -78.92089844 621.96826172 C-79.58089844 621.63826172 -80.24089844 621.30826172 -80.92089844 620.96826172 C-80.92089844 620.30826172 -80.92089844 619.64826172 -80.92089844 618.96826172 C-81.52160156 618.70013672 -82.12230469 618.43201172 -82.74121094 618.15576172 C-88.91675052 614.79131004 -92.32995278 607.85139219 -95.62402344 601.90966797 C-96.05199219 601.26900391 -96.47996094 600.62833984 -96.92089844 599.96826172 C-97.58089844 599.96826172 -98.24089844 599.96826172 -98.92089844 599.96826172 C-99.05214111 598.9523999 -99.18338379 597.93653809 -99.31860352 596.88989258 C-100.17544709 591.31085799 -101.61493747 585.93472347 -103.0847168 580.48950195 C-103.43280039 579.18755571 -103.77302935 577.88348313 -104.10522461 576.57739258 C-106.45094189 567.35817815 -108.73292285 559.66669249 -116.70996094 553.97998047 C-130.31117992 547.62899805 -143.5700869 545.96689754 -158.38183594 545.36279297 C-159.19652344 545.32541016 -160.01121094 545.28802734 -160.85058594 545.24951172 C-161.95249268 545.20407227 -161.95249268 545.20407227 -163.07666016 545.15771484 C-164.92089844 544.96826172 -164.92089844 544.96826172 -166.92089844 543.96826172 C-167.25089844 544.62826172 -167.58089844 545.28826172 -167.92089844 545.96826172 C-168.58089844 545.63826172 -169.24089844 545.30826172 -169.92089844 544.96826172 C-171.79469449 544.89792403 -173.67090945 544.88395952 -175.54589844 544.90576172 C-177.05023437 544.91929687 -177.05023437 544.91929687 -178.58496094 544.93310547 C-179.35582031 544.94470703 -180.12667969 544.95630859 -180.92089844 544.96826172 C-180.92089844 544.30826172 -180.92089844 543.64826172 -180.92089844 542.96826172 C-182.15324219 543.01208984 -183.38558594 543.05591797 -184.65527344 543.10107422 C-190.63757839 543.09406918 -196.31955174 542.00813531 -202.17089844 540.84326172 C-203.88780884 540.50331177 -203.88780884 540.50331177 -205.6394043 540.15649414 C-242.03681108 532.74038018 -275.02970645 517.87879565 -304.92089844 495.96826172 C-305.56800781 495.52675781 -306.21511719 495.08525391 -306.88183594 494.63037109 C-308.59428582 493.45607062 -310.26178601 492.21678572 -311.92089844 490.96826172 C-311.92089844 490.30826172 -311.92089844 489.64826172 -311.92089844 488.96826172 C-312.45714844 488.74912109 -312.99339844 488.52998047 -313.54589844 488.30419922 C-316.74409476 486.50521379 -319.26533807 484.09106602 -321.92089844 481.59326172 C-322.44167969 481.11115234 -322.96246094 480.62904297 -323.49902344 480.13232422 C-324.98213058 478.75408324 -326.45184227 477.36146988 -327.92089844 475.96826172 C-328.70464844 475.23349609 -329.48839844 474.49873047 -330.29589844 473.74169922 C-331.92089844 471.96826172 -331.92089844 471.96826172 -331.92089844 469.96826172 C-332.91089844 469.63826172 -333.90089844 469.30826172 -334.92089844 468.96826172 C-336.72495596 466.92169154 -338.39498072 464.88270912 -340.04589844 462.71826172 C-340.52873291 462.09363037 -341.01156738 461.46899902 -341.5090332 460.82543945 C-347.85092822 452.54982386 -353.85277326 444.09088704 -358.92089844 434.96826172 C-359.58089844 434.30826172 -360.24089844 433.64826172 -360.92089844 432.96826172 C-390.33502936 380.07806387 -396.58357191 314.97797923 -380.05712891 256.93457031 C-362.38455994 197.86679476 -323.21679293 149.93706321 -269.17431641 120.47070312 C-235.52273056 102.75401024 -199.72647711 96.32424609 -162.23339844 93.40576172 C-159.82431299 93.21747261 -157.4153439 93.02805803 -155.00663757 92.8349762 C-153.52656678 92.7163606 -152.04627854 92.60041559 -150.56575012 92.48765564 C-144.04046367 92.04309222 -144.04046367 92.04309222 -137.92089844 89.96826172 C-136.93089844 89.88576172 -135.94089844 89.80326172 -134.92089844 89.71826172 C-128.46618308 88.84052846 -122.06891245 85.73357342 -117.79589844 80.78076172 C-115.73599837 78.25427901 -115.73599837 78.25427901 -115.92089844 75.96826172 C-115.26089844 75.63826172 -114.60089844 75.30826172 -113.92089844 74.96826172 C-112.81595507 72.63031027 -112.81595507 72.63031027 -111.79589844 69.59326172 C-111.58634521 69.00109863 -111.37679199 68.40893555 -111.16088867 67.79882812 C-109.64305334 63.38887935 -108.31543204 58.93443784 -107.02636719 54.45263672 C-106.52097412 52.70152588 -106.52097412 52.70152588 -106.00537109 50.91503906 C-105.33876026 48.58524535 -104.68295912 46.25232349 -104.03955078 43.91601562 C-101.2020927 33.96395302 -97.49570085 24.34564011 -90.67089844 16.40576172 C-88.59636372 13.95732831 -86.70460531 11.64382203 -84.92089844 8.96826172 C-84.26089844 8.96826172 -83.60089844 8.96826172 -82.92089844 8.96826172 C-82.92089844 8.30826172 -82.92089844 7.64826172 -82.92089844 6.96826172 C-81.03679881 5.4214767 -79.17678645 4.02938346 -77.17089844 2.65576172 C-76.58469727 2.25349365 -75.99849609 1.85122559 -75.39453125 1.43676758 C-69.87977906 -2.2370175 -64.20279631 -4.90197803 -57.92089844 -7.03173828 C-56.87289062 -7.39912109 -56.87289062 -7.39912109 -55.80371094 -7.77392578 C-37.51002603 -12.97018648 -16.58626678 -7.76405247 0 0 Z " fill="#42BFFE" transform="translate(700.9208984375,174.03173828125)"/>
<path d="M0 0 C0.64195312 0.25265625 1.28390625 0.5053125 1.9453125 0.765625 C5.11230409 2.66822831 6.93139161 5.57932022 9 8.5625 C9.66418945 9.51684937 9.66418945 9.51684937 10.34179688 10.49047852 C18.79066406 22.85463612 21.4888105 35.6845816 18.8203125 50.6484375 C15.53704052 64.06294873 8.24795623 74.92933654 -3 83 C-16.17984034 90.37482381 -29.2650134 93.18828103 -44.1875 89.8125 C-57.60955313 85.98518656 -67.79156003 78.3700509 -75.53125 66.6875 C-82.37502663 54.16484488 -84.29977007 38.91605255 -80.375 25.1875 C-75.81379162 12.17370267 -68.07735674 2.68109096 -56 -4 C-56.33 -4.66 -56.66 -5.32 -57 -6 C-56.0925 -6.103125 -55.185 -6.20625 -54.25 -6.3125 C-50.81655005 -6.79110211 -47.53760645 -7.61384281 -44.1875 -8.5 C-42.12699047 -9.00814045 -40.06455775 -9.50856581 -38 -10 C-37.22011719 -10.1959375 -36.44023437 -10.391875 -35.63671875 -10.59375 C-23.4181403 -12.78845148 -9.83500764 -6.73441286 0 0 Z " fill="#42BEFD" transform="translate(498,758)"/>
<path d="M0 0 C2.63314001 2.52102711 2.63314001 2.52102711 5.8125 3.375 C6.53169935 5.01968068 7.19239246 6.69045589 7.8125 8.375 C8.73608764 9.77357558 9.69591995 11.14877952 10.6875 12.5 C18.72107621 24.57005445 19.75929374 37.84618651 17.15234375 51.9453125 C13.99386292 62.41888961 7.82939035 71.07248602 -0.1875 78.375 C-0.68765625 78.91125 -1.1878125 79.4475 -1.703125 80 C-3.1875 81.375 -3.1875 81.375 -6.1875 82.375 C-7.84277219 83.16809369 -9.48776771 83.98280484 -11.125 84.8125 C-12.40697266 85.46025391 -12.40697266 85.46025391 -13.71484375 86.12109375 C-14.53082031 86.53488281 -15.34679687 86.94867187 -16.1875 87.375 C-17.52038349 88.04256559 -18.85354824 88.70957163 -20.1875 89.375 C-20.1875 89.705 -20.1875 90.035 -20.1875 90.375 C-23.79159919 90.43300828 -27.39557851 90.46859869 -31 90.5 C-32.02416016 90.51675781 -33.04832031 90.53351563 -34.10351562 90.55078125 C-35.08642578 90.55722656 -36.06933594 90.56367187 -37.08203125 90.5703125 C-37.98800049 90.58078613 -38.89396973 90.59125977 -39.82739258 90.60205078 C-42.1875 90.375 -42.1875 90.375 -45.1875 88.375 C-46.67815855 87.78819225 -48.17960571 87.22848156 -49.6875 86.6875 C-63.53684525 81.19621442 -72.75373786 72.71406157 -79 59.203125 C-84.00217872 47.29004146 -83.75007961 33.45528194 -79.1875 21.375 C-72.67617397 7.39947097 -62.89155676 -1.11635345 -49.1875 -7.625 C-33.03091698 -12.82125993 -13.37289802 -11.3555752 0 0 Z " fill="#42BEFD" transform="translate(341.1875,693.625)"/>
<path d="M0 0 C2.4057744 1.48500639 2.4057744 1.48500639 5.125 2.3359375 C7.96185523 3.64414946 8.25413324 4.58603421 9.4375 7.40234375 C10.51736122 8.77597075 11.62382923 10.12892055 12.75 11.46484375 C20.90622063 21.8300408 24.63897983 34.26235008 23.4375 47.40234375 C21.29566028 61.67527566 15.50170956 74.45954494 3.8671875 83.37109375 C-7.99336698 91.34571158 -20.5691778 94.97663018 -34.78125 92.94140625 C-47.92376607 90.28161133 -59.5248182 83.75937893 -67.484375 72.7421875 C-71.27666549 66.61131788 -71.27666549 66.61131788 -72.08984375 63.171875 C-72.24582031 62.58792969 -72.40179688 62.00398438 -72.5625 61.40234375 C-73.2225 61.07234375 -73.8825 60.74234375 -74.5625 60.40234375 C-78.31752691 48.04784164 -77.78374183 33.90927386 -72.02734375 22.30859375 C-70.97303972 20.41433591 -69.88971011 18.53575029 -68.76953125 16.6796875 C-67.32834727 14.39013448 -67.32834727 14.39013448 -67.5625 11.40234375 C-65.93174628 10.34478993 -64.25749249 9.35354207 -62.5625 8.40234375 C-61.05348484 7.12427352 -59.5740227 5.81054932 -58.125 4.46484375 C-49.6350142 -3.20716999 -49.6350142 -3.20716999 -43.5625 -4.59765625 C-42.68335938 -4.84644531 -41.80421875 -5.09523437 -40.8984375 -5.3515625 C-26.23633647 -9.35559273 -13.19726235 -7.90628674 0 0 Z " fill="#42BEFD" transform="translate(383.5625,164.59765625)"/>
<path d="M0 0 C0.66 0.66 1.32 1.32 2 2 C4.49856431 2.64215438 6.97950141 3.21171916 9.5 3.75 C16.52699363 5.38301716 22.14548372 7.6689638 28 12 C28.63164062 12.45117188 29.26328125 12.90234375 29.9140625 13.3671875 C39.81250159 21.08535366 46.43479904 33.6381067 48 46 C49.04168709 61.42498194 45.51834612 74.88842543 35.375 86.6875 C22.24635789 100.41730593 7.26301096 103.56256261 -11 104 C-11 103.34 -11 102.68 -11 102 C-12.98 102.495 -12.98 102.495 -15 103 C-15 102.34 -15 101.68 -15 101 C-15.86882812 100.89816406 -16.73765625 100.79632813 -17.6328125 100.69140625 C-26.77263913 98.81466691 -35.35181589 92.30045374 -41 85 C-45.52268782 78.11939843 -49.81979459 71.26143784 -51 63 C-51.14179688 62.04996094 -51.28359375 61.09992188 -51.4296875 60.12109375 C-52.82430112 48.29533952 -50.32037869 36.64075737 -45 26 C-43.66666667 24.66666667 -42.33333333 23.33333333 -41 22 C-40.52691406 21.40832031 -40.05382812 20.81664062 -39.56640625 20.20703125 C-30.23941777 8.64335488 -17.46215265 3.57768938 -3 2 C-2.01 1.34 -1.02 0.68 0 0 Z " fill="#42BEFD" transform="translate(246,256)"/>
<path d="M0 0 C1.01320312 0.00902344 2.02640625 0.01804687 3.0703125 0.02734375 C5.54712801 0.05070993 8.02343379 0.08346832 10.5 0.125 C10.5 0.785 10.5 1.445 10.5 2.125 C11.28375 2.16625 12.0675 2.2075 12.875 2.25 C23.27593114 4.76056959 33.47559722 13.1959983 39.375 22 C46.599212 35.01382871 48.51000331 49.70605193 44.5 64.125 C38.61295982 78.92987464 30.06825892 88.17369917 15.796875 95.515625 C4.62338703 100.04886869 -10.28701746 100.12106314 -21.625 96.125 C-36.06174044 89.43890287 -44.68994691 79.60896243 -50.58984375 64.94921875 C-54.7493127 52.04236876 -52.93038452 37.54930727 -47 25.5 C-39.87465821 13.49021016 -29.07224653 5.1868982 -15.82421875 0.94921875 C-10.58855171 -0.26440449 -5.3447549 -0.09118348 0 0 Z " fill="#42BEFC" transform="translate(199.5,407.875)"/>
<path d="M0 0 C2.75 2.375 2.75 2.375 5 5 C5.79277344 5.68255859 5.79277344 5.68255859 6.6015625 6.37890625 C15.67230497 14.35077022 19.83638205 25.57520255 20.90625 37.34375 C21.23627272 50.21463625 17.14775844 61.94326758 9.0625 72 C-1.76076069 83.33459584 -15.42023134 88.72598084 -30.875 89.375 C-43.85585991 89.08952184 -55.25168343 83.46652177 -64.75 74.8125 C-74.39950813 64.44391794 -78.5435401 52.00863871 -78.49243164 38.05932617 C-78.08764748 27.44288417 -73.35430859 18.32073146 -67 10 C-66.40703125 9.18789063 -65.8140625 8.37578125 -65.203125 7.5390625 C-48.73176416 -11.44388882 -20.77342445 -12.05504424 0 0 Z " fill="#42BEFD" transform="translate(245,568)"/>
<path d="M0 0 C2.33294775 -0.04241723 4.66702567 -0.04092937 7 0 C7.495 0.495 7.495 0.495 8 1 C10.12128273 1.41529338 12.24725093 1.80672061 14.375 2.1875 C27.1330777 4.88159153 37.63288249 11.63292879 45.3125 22.25 C52.74659595 34.46759502 53.84997847 47.90826352 51.3046875 61.79296875 C49.37152105 68.72150227 46.41416921 74.35164242 42 80 C41.56042969 80.61359375 41.12085938 81.2271875 40.66796875 81.859375 C33.84260484 90.75005075 23.77793347 95.09872737 13.1875 97.6875 C-1.1972241 99.09776707 -14.01110928 97.03240461 -25.56640625 87.9921875 C-36.54854014 78.59763481 -42.59556614 68.00025044 -43.875 53.5 C-44.44120896 39.14152143 -40.64956522 27.93367745 -31.0625 17.0625 C-22.21965328 7.93144198 -12.66153318 3.19785104 0 1 C0 0.67 0 0.34 0 0 Z " fill="#42BEFD" transform="translate(497,120)"/>
<path d="M0 0 C0.66 0.33 1.32 0.66 2 1 C0.4840625 2.2375 0.4840625 2.2375 -1.0625 3.5 C-4.47052563 6.41430763 -7.34745998 9.58730835 -10.25390625 12.9921875 C-16.05005487 19.65711007 -22.6409836 26.09398906 -30 31 C-29.58066539 26.05720481 -27.44441976 23.99202888 -23.9375 20.625 C-23.43871338 20.14313232 -22.93992676 19.66126465 -22.42602539 19.16479492 C-15.29786025 12.32748182 -7.75073673 6.11482303 0 0 Z " fill="#3CB5F1" transform="translate(401,314)"/>
<path d="M0 0 C0.66 0.33 1.32 0.66 2 1 C-1.3 2.65 -4.6 4.3 -8 6 C-8 6.33 -8 6.66 -8 7 C-11.60409919 7.05800828 -15.20807851 7.09359869 -18.8125 7.125 C-19.83666016 7.14175781 -20.86082031 7.15851562 -21.91601562 7.17578125 C-22.89892578 7.18222656 -23.88183594 7.18867187 -24.89453125 7.1953125 C-25.80050049 7.20578613 -26.70646973 7.21625977 -27.63989258 7.22705078 C-30 7 -30 7 -33 5 C-34.38199747 4.42394752 -35.77905218 3.88296479 -37.1875 3.375 C-37.90292969 3.11460937 -38.61835938 2.85421875 -39.35546875 2.5859375 C-39.89816406 2.39257812 -40.44085938 2.19921875 -41 2 C-37.3302395 0.7767465 -36.04274697 1.4228895 -32.375 2.5 C-21.57141985 5.13738015 -10.19332552 4.57659513 0 0 Z " fill="#39A9E9" transform="translate(329,777)"/>
<path d="M0 0 C-2.89761075 0.96587025 -4.47836072 1.07341153 -7.46484375 0.95703125 C-21.00576833 0.57899977 -21.00576833 0.57899977 -33.91796875 4.22265625 C-34.60503906 4.47917969 -35.29210937 4.73570312 -36 5 C-38 4 -38 4 -39 2 C-37.63875 1.8453125 -37.63875 1.8453125 -36.25 1.6875 C-32.81655005 1.20889789 -29.53760645 0.38615719 -26.1875 -0.5 C-16.44308185 -2.95127331 -9.53856252 -3.59218206 0 0 Z " fill="#36A9EB" transform="translate(480,750)"/>
<path d="M0 0 C3.375 0.25 3.375 0.25 4.375 1.25 C7.82595437 2.00875288 11.29191681 2.66909066 14.76171875 3.3359375 C18.31170968 4.23398926 21.17641583 5.49102437 24.375 7.25 C21.00856045 8.37214652 20.54587872 8.1756268 17.4375 6.875 C11.99282135 4.62998799 6.99987129 4.00407875 1.125 3.6875 C0.37992187 3.64431641 -0.36515625 3.60113281 -1.1328125 3.55664062 C-2.963349 3.45103275 -4.79415176 3.35005799 -6.625 3.25 C-4.25555058 0.48806509 -3.8947359 0.26860248 0 0 Z " fill="#3AAAE8" transform="translate(500.625,119.75)"/>
<path d="M0 0 C2.56963422 3.1149345 4.02522581 6.1891156 5.5 9.9375 C6.73777491 13.07557678 7.93057309 15.88875916 9.71875 18.75390625 C10.1415625 19.49511719 10.564375 20.23632812 11 21 C10.67 21.66 10.34 22.32 10 23 C9.566875 22.236875 9.13375 21.47375 8.6875 20.6875 C7.17814379 18.0620892 7.17814379 18.0620892 5.4375 16.4375 C2.05625054 13.05625054 1.13296102 8.53184409 0 4 C0 2.68 0 1.36 0 0 Z " fill="#38AEED" transform="translate(413,544)"/>
<path d="M0 0 C0.66 0.33 1.32 0.66 2 1 C-0.62840242 5.18597423 -3.28153127 8.67294903 -7 12 C-7.66 12 -8.32 12 -9 12 C-7.55575365 8.76138697 -5.74227753 6.38030837 -3.375 3.75 C-2.74335938 3.04359375 -2.11171875 2.3371875 -1.4609375 1.609375 C-0.97882813 1.07828125 -0.49671875 0.5471875 0 0 Z " fill="#3CB1EC" transform="translate(212,270)"/>
<path d="M0 0 C0.33 0.66 0.66 1.32 1 2 C-1.64 5.63 -4.28 9.26 -7 13 C-8 9 -8 9 -6.85546875 6.89453125 C-6.30503906 6.20746094 -5.75460937 5.52039063 -5.1875 4.8125 C-4.64480469 4.11769531 -4.10210938 3.42289063 -3.54296875 2.70703125 C-2 1 -2 1 0 0 Z " fill="#3DB4EF" transform="translate(779,737)"/>
<path d="M0 0 C1.67013418 0.65793165 3.3357865 1.32723284 5 2 C6.134375 2.45375 7.26875 2.9075 8.4375 3.375 C11.97396406 4.98812396 14.84071263 6.76538211 18 9 C15 10 15 10 11.93359375 8.671875 C10.77988281 8.03765625 9.62617187 7.4034375 8.4375 6.75 C7.28121094 6.12609375 6.12492188 5.5021875 4.93359375 4.859375 C2 3 2 3 0 0 Z " fill="#39ADEC" transform="translate(626,385)"/>
<path d="M0 0 C0.33 0.66 0.66 1.32 1 2 C-1.52128009 7.445965 -3.8090199 10.05057949 -9 13 C-7.50923566 9.7173068 -5.61379679 7.06922559 -3.375 4.25 C-2.74335938 3.45078125 -2.11171875 2.6515625 -1.4609375 1.828125 C-0.97882813 1.22484375 -0.49671875 0.6215625 0 0 Z " fill="#3AB2F0" transform="translate(363,351)"/>
<path d="M0 0 C0.33 0 0.66 0 1 0 C1.2210949 2.95789127 1.42740245 5.91552764 1.625 8.875 C1.68945312 9.71675781 1.75390625 10.55851563 1.8203125 11.42578125 C1.871875 12.23144531 1.9234375 13.03710938 1.9765625 13.8671875 C2.02893066 14.61081543 2.08129883 15.35444336 2.13525391 16.12060547 C2 18 2 18 0 20 C-0.70710678 21.64991582 -1.37943989 23.31562256 -2 25 C-3.32737507 21.0178748 -2.1585264 19.00554339 -1 15 C-0.72433032 12.36033278 -0.51572333 9.71278937 -0.375 7.0625 C-0.33632813 6.37865234 -0.29765625 5.69480469 -0.2578125 4.99023438 C-0.16477588 3.32720487 -0.08136213 1.66364153 0 0 Z " fill="#49CFFD" transform="translate(263,601)"/>
<path d="M0 0 C5.96351455 1.27789598 8.48417174 4.33716394 12 9 C9 9 9 9 6 7 C6 6.34 6 5.68 6 5 C5.38125 4.731875 4.7625 4.46375 4.125 4.1875 C2 3 2 3 0 0 Z " fill="#3AB1EF" transform="translate(383,658)"/>
<path d="M0 0 C5.75 3.625 5.75 3.625 8 7 C7.625 9.1875 7.625 9.1875 7 11 C5.82750647 9.54634731 4.66216184 8.08692581 3.5 6.625 C2.52546875 5.40683594 2.52546875 5.40683594 1.53125 4.1640625 C0 2 0 2 0 0 Z " fill="#3AB2F0" transform="translate(349,619)"/>
<path d="M0 0 C0.99 0 1.98 0 3 0 C2.48964169 4.3890815 1.47785723 7.33708062 -1 11 C-2.31625194 8.36749612 -1.74813658 7.19820944 -1.0625 4.375 C-0.86785156 3.55773437 -0.67320312 2.74046875 -0.47265625 1.8984375 C-0.23869141 0.95871094 -0.23869141 0.95871094 0 0 Z " fill="#3FB8F3" transform="translate(400,224)"/>
<path d="M0 0 C0.66 0.66 1.32 1.32 2 2 C1.67386719 2.51949219 1.34773438 3.03898437 1.01171875 3.57421875 C-1.36176368 7.36198865 -3.71775284 11.15621531 -6 15 C-6.33 14.34 -6.66 13.68 -7 13 C-5.92325298 10.71741367 -4.80453884 8.5643566 -3.5625 6.375 C-3.22412109 5.76398438 -2.88574219 5.15296875 -2.53710938 4.5234375 C-1.69853808 3.011647 -0.85017423 1.50529601 0 0 Z " fill="#49CBFE" transform="translate(342,384)"/>
<path d="M0 0 C5.57142857 5.14285714 5.57142857 5.14285714 6 9 C2.83884224 7.63016497 2.0072908 7.0109362 0 4 C0 2.68 0 1.36 0 0 Z " fill="#3AB3F0" transform="translate(506,767)"/>
<path d="M0 0 C1.8125 0.1875 1.8125 0.1875 4 1 C5.75 3.5625 5.75 3.5625 7 6 C4 6 4 6 1.8125 4.125 C0 2 0 2 0 0 Z " fill="#40BAF4" transform="translate(731,624)"/>
<path d="M0 0 C3.04470873 1.52235436 4.20270948 4.18424486 6 7 C3.625 6.75 3.625 6.75 1 6 C-0.375 4.0625 -0.375 4.0625 -1 2 C-0.67 1.34 -0.34 0.68 0 0 Z " fill="#3BB0ED" transform="translate(757,208)"/>
<path d="M0 0 C2.3125 0.1875 2.3125 0.1875 5 1 C6.8125 3.5625 6.8125 3.5625 8 6 C4.74456771 5.65120368 3.98126893 4.97866739 1.75 2.4375 C1.1725 1.633125 0.595 0.82875 0 0 Z " fill="#3EB7F1" transform="translate(763,217)"/>
<path d="M0 0 C0.66 0.33 1.32 0.66 2 1 C-2.43076923 6.78461538 -2.43076923 6.78461538 -5.3125 7.875 C-5.869375 7.91625 -6.42625 7.9575 -7 8 C-7 7.34 -7 6.68 -7 6 C-6.34 6 -5.68 6 -5 6 C-5 5.34 -5 4.68 -5 4 C-3.37373596 2.61767557 -1.7074998 1.28062485 0 0 Z " fill="#38ADED" transform="translate(623,177)"/>
<path d="M0 0 C0.66 0.33 1.32 0.66 2 1 C0.25 6.75 0.25 6.75 -2 9 C-1.125 2.25 -1.125 2.25 0 0 Z " fill="#3CB4F0" transform="translate(422,426)"/>
<path d="M0 0 C2.31 0 4.62 0 7 0 C7 0.33 7 0.66 7 1 C4.69 1 2.38 1 0 1 C0 0.67 0 0.34 0 0 Z " fill="#47C1F9" transform="translate(536,359)"/>
<path d="M0 0 C0.99 1.485 0.99 1.485 2 3 C1.67 3.66 1.34 4.32 1 5 C0.67 3.35 0.34 1.7 0 0 Z " fill="#49B9F2" transform="translate(417,815)"/>
<path d="M0 0 C1.65 0 3.3 0 5 0 C5 0.33 5 0.66 5 1 C3.35 1 1.7 1 0 1 C0 0.67 0 0.34 0 0 Z " fill="#49BFF6" transform="translate(669,399)"/>
<path d="M0 0 C0.66 0 1.32 0 2 0 C2 0.66 2 1.32 2 2 C1.34 2 0.68 2 0 2 C0 1.34 0 0.68 0 0 Z " fill="#49C1FC" transform="translate(592,742)"/>
<path d="M0 0 C1.485 0.99 1.485 0.99 3 2 C2.01 2 1.02 2 0 2 C0 1.34 0 0.68 0 0 Z " fill="#49C2FA" transform="translate(579,726)"/>
<path d="M0 0 C4 1 4 1 4 1 Z " fill="#4AC3FB" transform="translate(568,624)"/>
<path d="M0 0 C1.485 0.99 1.485 0.99 3 2 C2.01 2 1.02 2 0 2 C0 1.34 0 0.68 0 0 Z " fill="#4AC3FC" transform="translate(592,366)"/>
<path d="M0 0 C1 4 1 4 1 4 Z " fill="#4BBCF3" transform="translate(194,320)"/>
<path d="M0 0 C1 4 1 4 1 4 Z " fill="#48C0FC" transform="translate(294,317)"/>
<path d="M0 0 C1 4 1 4 1 4 Z " fill="#4ABDF4" transform="translate(193,315)"/>
<path d="M0 0 C1 4 1 4 1 4 Z " fill="#48C0FA" transform="translate(406,191)"/>
<path d="M0 0 C4 1 4 1 4 1 Z " fill="#46BBF5" transform="translate(509,120)"/>
<path d="M0 0 C4 1 4 1 4 1 Z " fill="#48BBF3" transform="translate(492,120)"/>
<path d="" fill="#48B9F2" transform="translate(0,0)"/>
<path d="M0 0 C3 1 3 1 3 1 Z " fill="#48C1FB" transform="translate(568,723)"/>
<path d="M0 0 C0.66 0 1.32 0 2 0 C1.67 0.66 1.34 1.32 1 2 C0.67 1.34 0.34 0.68 0 0 Z " fill="#47C0FC" transform="translate(464,707)"/>
<path d="" fill="#48BBF4" transform="translate(0,0)"/>
<path d="M0 0 C3 1 3 1 3 1 Z " fill="#4BC2FB" transform="translate(306,681)"/>
<path d="M0 0 C3 1 3 1 3 1 Z " fill="#4AC1FB" transform="translate(484,616)"/>
<path d="" fill="#4CBAEF" transform="translate(0,0)"/>
<path d="M0 0 C3 1 3 1 3 1 Z " fill="#4BC1FA" transform="translate(662,579)"/>
<path d="M0 0 C3 1 3 1 3 1 Z " fill="#4BC1F9" transform="translate(656,579)"/>
<path d="" fill="#48C0FB" transform="translate(0,0)"/>
<path d="M0 0 C3 1 3 1 3 1 Z " fill="#4AC1F9" transform="translate(200,560)"/>
<path d="" fill="#47BFFB" transform="translate(0,0)"/>
<path d="" fill="#47C0FB" transform="translate(0,0)"/>
<path d="" fill="#49C2FC" transform="translate(0,0)"/>
<path d="M0 0 C3 1 3 1 3 1 Z " fill="#4AC0F6" transform="translate(675,398)"/>
<path d="M0 0 C3 1 3 1 3 1 Z " fill="#48C0F9" transform="translate(552,359)"/>
<path d="M0 0 C3 1 3 1 3 1 Z " fill="#49C3FB" transform="translate(252,359)"/>
<path d="M0 0 C3 1 3 1 3 1 Z " fill="#47C0FA" transform="translate(227,358)"/>
<path d="M0 0 C3 1 3 1 3 1 Z " fill="#49C1F9" transform="translate(224,357)"/>
<path d="M0 0 C0.66 0.66 1.32 1.32 2 2 C1.34 2 0.68 2 0 2 C0 1.34 0 0.68 0 0 Z " fill="#48C1FA" transform="translate(336,254)"/>
<path d="M0 0 C0.33 0.66 0.66 1.32 1 2 C0.34 1.67 -0.32 1.34 -1 1 C-0.67 0.67 -0.34 0.34 0 0 Z " fill="#4AC0FA" transform="translate(633,168)"/>
<path d="" fill="#48B9F0" transform="translate(0,0)"/>
<path d="M0 0 C2 1 2 1 2 1 Z " fill="#46BAF2" transform="translate(448,847)"/>
<path d="M0 0 C2 1 2 1 2 1 Z " fill="#4BBAF2" transform="translate(685,807)"/>
<path d="M0 0 C2 1 2 1 2 1 Z " fill="#48BAF2" transform="translate(687,806)"/>
<path d="M0 0 C2 1 2 1 2 1 Z " fill="#48BDF5" transform="translate(707,799)"/>
<path d="" fill="#49BDF4" transform="translate(0,0)"/>
<path d="" fill="#49BFF9" transform="translate(0,0)"/>
<path d="M0 0 C2 1 2 1 2 1 Z " fill="#46B8F3" transform="translate(296,783)"/>
<path d="M0 0 C2 1 2 1 2 1 Z " fill="#49B9F1" transform="translate(290,781)"/>
<path d="M0 0 C2 1 2 1 2 1 Z " fill="#48B9F0" transform="translate(269,767)"/>
<path d="" fill="#49C2FB" transform="translate(0,0)"/>
<path d="" fill="#47B9F1" transform="translate(0,0)"/>
<path d="" fill="#47C0FA" transform="translate(0,0)"/>
<path d="" fill="#49C1FB" transform="translate(0,0)"/>
<path d="" fill="#4BC5FE" transform="translate(0,0)"/>
<path d="M0 0 C2 1 2 1 2 1 Z " fill="#49C3FD" transform="translate(468,746)"/>
<path d="" fill="#45C0F8" transform="translate(0,0)"/>
<path d="" fill="#49BDF4" transform="translate(0,0)"/>
<path d="" fill="#4BBDF1" transform="translate(0,0)"/>
<path d="M0 0 C2 1 2 1 2 1 Z " fill="#49C4FB" transform="translate(525,719)"/>
<path d="M0 0 C2 1 2 1 2 1 Z " fill="#47C3FD" transform="translate(515,718)"/>
<path d="M0 0 C2 1 2 1 2 1 Z " fill="#48C1FB" transform="translate(506,717)"/>
<path d="M0 0 C2 1 2 1 2 1 Z " fill="#4AC1FD" transform="translate(501,716)"/>
<path d="M0 0 C2 1 2 1 2 1 Z " fill="#47C5FE" transform="translate(475,710)"/>
<path d="M0 0 C2 1 2 1 2 1 Z " fill="#49C3FC" transform="translate(453,703)"/>
<path d="M0 0 C2 1 2 1 2 1 Z " fill="#4AC3FA" transform="translate(302,682)"/>
<path d="" fill="#4AC2F9" transform="translate(0,0)"/>
<path d="M0 0 C2 1 2 1 2 1 Z " fill="#48C1FC" transform="translate(524,626)"/>
<path d="M0 0 C2 1 2 1 2 1 Z " fill="#47C2FA" transform="translate(510,624)"/>
<path d="M0 0 C2 1 2 1 2 1 Z " fill="#4BC2F8" transform="translate(617,600)"/>
<path d="" fill="#48BAF2" transform="translate(0,0)"/>
<path d="" fill="#48BEF9" transform="translate(0,0)"/>
<path d="M0 0 C2 1 2 1 2 1 Z " fill="#48C0F8" transform="translate(640,584)"/>
<path d="M0 0 C2 1 2 1 2 1 Z " fill="#4BBFF9" transform="translate(671,579)"/>
<path d="" fill="#48C0FA" transform="translate(0,0)"/>
<path d="" fill="#47BFFC" transform="translate(0,0)"/>
<path d="M0 0 C2 1 2 1 2 1 Z " fill="#49C0F8" transform="translate(185,568)"/>
<path d="" fill="#4BBFFB" transform="translate(0,0)"/>
<path d="M0 0 C2 1 2 1 2 1 Z " fill="#4BBFF7" transform="translate(190,507)"/>
<path d="M0 0 C2 1 2 1 2 1 Z " fill="#4CBFF7" transform="translate(186,507)"/>
<path d="" fill="#4CBCF1" transform="translate(0,0)"/>
<path d="" fill="#4BBBEF" transform="translate(0,0)"/>
<path d="" fill="#49C1FB" transform="translate(0,0)"/>
<path d="" fill="#4CBBF0" transform="translate(0,0)"/>
<path d="" fill="#4BC2FA" transform="translate(0,0)"/>
<path d="" fill="#46BEFA" transform="translate(0,0)"/>
<path d="" fill="#49C3FB" transform="translate(0,0)"/>
<path d="" fill="#48BCF1" transform="translate(0,0)"/>
<path d="M0 0 C2 1 2 1 2 1 Z " fill="#4AC3FA" transform="translate(481,374)"/>
<path d="M0 0 C2 1 2 1 2 1 Z " fill="#47C0FA" transform="translate(502,366)"/>
<path d="" fill="#4AC5FE" transform="translate(0,0)"/>
<path d="M0 0 C2 1 2 1 2 1 Z " fill="#46C1F9" transform="translate(560,359)"/>
<path d="M0 0 C2 1 2 1 2 1 Z " fill="#48BEFA" transform="translate(556,359)"/>
<path d="M0 0 C2 1 2 1 2 1 Z " fill="#49C2FB" transform="translate(548,359)"/>
<path d="M0 0 C2 1 2 1 2 1 Z " fill="#4AC0FA" transform="translate(544,359)"/>
<path d="" fill="#4AC1FB" transform="translate(0,0)"/>
<path d="" fill="#4AC0F7" transform="translate(0,0)"/>
<path d="M0 0 C2 1 2 1 2 1 Z " fill="#4ABEF5" transform="translate(200,336)"/>
<path d="" fill="#48BCF3" transform="translate(0,0)"/>
<path d="" fill="#48C1FB" transform="translate(0,0)"/>
<path d="M0 0 C2 1 2 1 2 1 Z " fill="#48C0FA" transform="translate(401,312)"/>
<path d="" fill="#48C0FA" transform="translate(0,0)"/>
<path d="M0 0 C2 1 2 1 2 1 Z " fill="#4BC3FD" transform="translate(441,288)"/>
<path d="M0 0 C2 1 2 1 2 1 Z " fill="#4BC2FA" transform="translate(460,280)"/>
<path d="M0 0 C2 1 2 1 2 1 Z " fill="#4DC6FD" transform="translate(489,272)"/>
<path d="M0 0 C2 1 2 1 2 1 Z " fill="#4AC1F9" transform="translate(486,272)"/>
<path d="M0 0 C2 1 2 1 2 1 Z " fill="#48BEF6" transform="translate(217,264)"/>
<path d="M0 0 C2 1 2 1 2 1 Z " fill="#4CC1FB" transform="translate(358,259)"/>
<path d="M0 0 C2 1 2 1 2 1 Z " fill="#4AC1FC" transform="translate(355,259)"/>
<path d="" fill="#46BCF4" transform="translate(0,0)"/>
<path d="" fill="#48BDF8" transform="translate(0,0)"/>
<path d="M0 0 C2 1 2 1 2 1 Z " fill="#4CC2FA" transform="translate(502,219)"/>
<path d="M0 0 C2 1 2 1 2 1 Z " fill="#45C0F9" transform="translate(480,215)"/>
<path d="" fill="#49BFFA" transform="translate(0,0)"/>
<path d="M0 0 C2 1 2 1 2 1 Z " fill="#47BBF5" transform="translate(748,200)"/>
<path d="M0 0 C2 1 2 1 2 1 Z " fill="#44BAF5" transform="translate(710,177)"/>
<path d="M0 0 C2 1 2 1 2 1 Z " fill="#45BAF4" transform="translate(708,176)"/>
<path d="M0 0 C2 1 2 1 2 1 Z " fill="#4BBFF8" transform="translate(663,163)"/>
<path d="M0 0 C2 1 2 1 2 1 Z " fill="#47BFF8" transform="translate(505,120)"/>
<path d="" fill="#3A545F" transform="translate(0,0)"/>
<path d="" fill="#38525C" transform="translate(0,0)"/>
<path d="" fill="#466B7B" transform="translate(0,0)"/>
<path d="" fill="#3F5F6F" transform="translate(0,0)"/>
<path d="" fill="#49B5EC" transform="translate(0,0)"/>
<path d="" fill="#48B7EE" transform="translate(0,0)"/>
<path d="" fill="#49B8EE" transform="translate(0,0)"/>
<path d="" fill="#49B8EF" transform="translate(0,0)"/>
<path d="" fill="#4FB9EC" transform="translate(0,0)"/>
<path d="" fill="#48BAF2" transform="translate(0,0)"/>
<path d="" fill="#46BAF0" transform="translate(0,0)"/>
<path d="" fill="#47BBF0" transform="translate(0,0)"/>
<path d="" fill="#4CB8EF" transform="translate(0,0)"/>
<path d="" fill="#4CBEF8" transform="translate(0,0)"/>
<path d="" fill="#46B9F3" transform="translate(0,0)"/>
<path d="" fill="#48BDF2" transform="translate(0,0)"/>
<path d="" fill="#4CBAF2" transform="translate(0,0)"/>
<path d="" fill="#4FBDF0" transform="translate(0,0)"/>
<path d="" fill="#4BC3F9" transform="translate(0,0)"/>
<path d="" fill="#46BAF3" transform="translate(0,0)"/>
<path d="" fill="#48BBF4" transform="translate(0,0)"/>
<path d="" fill="#48C1F8" transform="translate(0,0)"/>
<path d="" fill="#48BBF2" transform="translate(0,0)"/>
<path d="" fill="#4ABDF6" transform="translate(0,0)"/>
<path d="" fill="#4ABFF7" transform="translate(0,0)"/>
<path d="" fill="#4BBDF3" transform="translate(0,0)"/>
<path d="" fill="#4BBCF5" transform="translate(0,0)"/>
<path d="" fill="#48BEF7" transform="translate(0,0)"/>
<path d="" fill="#49BDF3" transform="translate(0,0)"/>
<path d="" fill="#49BFF2" transform="translate(0,0)"/>
<path d="" fill="#46B9F0" transform="translate(0,0)"/>
<path d="" fill="#4CBDF4" transform="translate(0,0)"/>
<path d="" fill="#49B9EF" transform="translate(0,0)"/>
<path d="" fill="#4ABDF4" transform="translate(0,0)"/>
<path d="" fill="#4EC0F6" transform="translate(0,0)"/>
<path d="" fill="#48BCF7" transform="translate(0,0)"/>
<path d="" fill="#48BBEF" transform="translate(0,0)"/>
<path d="" fill="#47BFF7" transform="translate(0,0)"/>
<path d="" fill="#49BEF4" transform="translate(0,0)"/>
<path d="" fill="#49B9EE" transform="translate(0,0)"/>
<path d="" fill="#48B7ED" transform="translate(0,0)"/>
<path d="" fill="#47B9F0" transform="translate(0,0)"/>
<path d="" fill="#4DC0F8" transform="translate(0,0)"/>
<path d="" fill="#49BDF6" transform="translate(0,0)"/>
<path d="" fill="#48BCEE" transform="translate(0,0)"/>
<path d="" fill="#4BBFF6" transform="translate(0,0)"/>
<path d="" fill="#47BFFA" transform="translate(0,0)"/>
<path d="" fill="#49BEF7" transform="translate(0,0)"/>
<path d="" fill="#4ABAEE" transform="translate(0,0)"/>
<path d="" fill="#47B9F1" transform="translate(0,0)"/>
<path d="" fill="#47B8EF" transform="translate(0,0)"/>
<path d="" fill="#4DC3FB" transform="translate(0,0)"/>
<path d="" fill="#4CC3FB" transform="translate(0,0)"/>
<path d="" fill="#46BAF1" transform="translate(0,0)"/>
<path d="" fill="#4DC3FB" transform="translate(0,0)"/>
<path d="" fill="#4AC3FC" transform="translate(0,0)"/>
<path d="" fill="#49C4FE" transform="translate(0,0)"/>
<path d="" fill="#4AC1FB" transform="translate(0,0)"/>
<path d="" fill="#49C3FC" transform="translate(0,0)"/>
<path d="" fill="#49C2FC" transform="translate(0,0)"/>
<path d="" fill="#49C3FD" transform="translate(0,0)"/>
<path d="" fill="#4CC6FD" transform="translate(0,0)"/>
<path d="" fill="#48C3FE" transform="translate(0,0)"/>
<path d="" fill="#49B9F3" transform="translate(0,0)"/>
<path d="" fill="#4ABCF4" transform="translate(0,0)"/>
<path d="" fill="#4ABFF3" transform="translate(0,0)"/>
<path d="" fill="#49BCF2" transform="translate(0,0)"/>
<path d="" fill="#4BC3FC" transform="translate(0,0)"/>
<path d="" fill="#4AC3FA" transform="translate(0,0)"/>
<path d="" fill="#4FC5FE" transform="translate(0,0)"/>
<path d="" fill="#47C3FA" transform="translate(0,0)"/>
<path d="" fill="#48BFFA" transform="translate(0,0)"/>
<path d="" fill="#4BC3FC" transform="translate(0,0)"/>
<path d="" fill="#4BC0FC" transform="translate(0,0)"/>
<path d="" fill="#4BC2FC" transform="translate(0,0)"/>
<path d="" fill="#49BFFB" transform="translate(0,0)"/>
<path d="" fill="#4DC2FC" transform="translate(0,0)"/>
<path d="" fill="#4BBEF9" transform="translate(0,0)"/>
<path d="" fill="#49C1FD" transform="translate(0,0)"/>
<path d="" fill="#4AC2FB" transform="translate(0,0)"/>
<path d="" fill="#4AC0FD" transform="translate(0,0)"/>
<path d="" fill="#48C1FC" transform="translate(0,0)"/>
<path d="" fill="#47C1FA" transform="translate(0,0)"/>
<path d="" fill="#4AC2F7" transform="translate(0,0)"/>
<path d="" fill="#496775" transform="translate(0,0)"/>
<path d="" fill="#49C2FB" transform="translate(0,0)"/>
<path d="" fill="#49BFFB" transform="translate(0,0)"/>
<path d="" fill="#47BDF5" transform="translate(0,0)"/>
<path d="" fill="#4AC4FB" transform="translate(0,0)"/>
<path d="" fill="#4DC3FD" transform="translate(0,0)"/>
<path d="" fill="#4DC4FC" transform="translate(0,0)"/>
<path d="" fill="#4BC2FD" transform="translate(0,0)"/>
<path d="" fill="#4DC3FE" transform="translate(0,0)"/>
<path d="" fill="#4DC2FB" transform="translate(0,0)"/>
<path d="" fill="#48C1FB" transform="translate(0,0)"/>
<path d="" fill="#4AC3FC" transform="translate(0,0)"/>
<path d="" fill="#49C3FB" transform="translate(0,0)"/>
<path d="" fill="#4BC0FA" transform="translate(0,0)"/>
<path d="" fill="#4ABFF7" transform="translate(0,0)"/>
<path d="" fill="#4AC6FA" transform="translate(0,0)"/>
<path d="" fill="#4CC0FA" transform="translate(0,0)"/>
<path d="" fill="#46BEF7" transform="translate(0,0)"/>
<path d="" fill="#4BBDF5" transform="translate(0,0)"/>
<path d="" fill="#4BC2F7" transform="translate(0,0)"/>
<path d="" fill="#49BFF7" transform="translate(0,0)"/>
<path d="" fill="#48C0F5" transform="translate(0,0)"/>
<path d="" fill="#4ABCF6" transform="translate(0,0)"/>
<path d="" fill="#4EBEF2" transform="translate(0,0)"/>
<path d="" fill="#49C1FB" transform="translate(0,0)"/>
<path d="" fill="#48BFF5" transform="translate(0,0)"/>
<path d="" fill="#4CBBF2" transform="translate(0,0)"/>
<path d="" fill="#4CC0F6" transform="translate(0,0)"/>
<path d="" fill="#4CC4FC" transform="translate(0,0)"/>
<path d="" fill="#48C1F5" transform="translate(0,0)"/>
<path d="" fill="#49C1FB" transform="translate(0,0)"/>
<path d="" fill="#48BDF2" transform="translate(0,0)"/>
<path d="" fill="#4ABAF2" transform="translate(0,0)"/>
<path d="" fill="#4BBEF9" transform="translate(0,0)"/>
<path d="" fill="#49C2FA" transform="translate(0,0)"/>
<path d="" fill="#49C3FB" transform="translate(0,0)"/>
<path d="" fill="#49C2FB" transform="translate(0,0)"/>
<path d="" fill="#4BC4FA" transform="translate(0,0)"/>
<path d="" fill="#4BC3FB" transform="translate(0,0)"/>
<path d="" fill="#4AB7F1" transform="translate(0,0)"/>
<path d="" fill="#49C1F9" transform="translate(0,0)"/>
<path d="" fill="#47C3FC" transform="translate(0,0)"/>
<path d="" fill="#48C3FD" transform="translate(0,0)"/>
<path d="" fill="#48C0F7" transform="translate(0,0)"/>
<path d="" fill="#4DC0F9" transform="translate(0,0)"/>
<path d="" fill="#4BC2FA" transform="translate(0,0)"/>
<path d="" fill="#4EC2FB" transform="translate(0,0)"/>
<path d="" fill="#4AC3FA" transform="translate(0,0)"/>
<path d="" fill="#4AC0FD" transform="translate(0,0)"/>
<path d="" fill="#48BEFA" transform="translate(0,0)"/>
<path d="" fill="#4AC3FD" transform="translate(0,0)"/>
<path d="" fill="#4CC0F8" transform="translate(0,0)"/>
<path d="" fill="#4CC2FB" transform="translate(0,0)"/>
<path d="" fill="#49C2FC" transform="translate(0,0)"/>
<path d="" fill="#4BBCF1" transform="translate(0,0)"/>
<path d="" fill="#4AC0FA" transform="translate(0,0)"/>
<path d="" fill="#48C2FA" transform="translate(0,0)"/>
<path d="" fill="#4CC0F9" transform="translate(0,0)"/>
<path d="" fill="#47C0FB" transform="translate(0,0)"/>
<path d="" fill="#4AC0FA" transform="translate(0,0)"/>
<path d="" fill="#4CBDF7" transform="translate(0,0)"/>
<path d="" fill="#47BFF8" transform="translate(0,0)"/>
<path d="" fill="#47BEF6" transform="translate(0,0)"/>
<path d="" fill="#48C0F9" transform="translate(0,0)"/>
<path d="" fill="#48C1FD" transform="translate(0,0)"/>
<path d="" fill="#4ABFF7" transform="translate(0,0)"/>
<path d="" fill="#4CC2FB" transform="translate(0,0)"/>
<path d="" fill="#50C1FA" transform="translate(0,0)"/>
<path d="" fill="#4AC1FA" transform="translate(0,0)"/>
<path d="" fill="#47C1FB" transform="translate(0,0)"/>
<path d="" fill="#4CC2FA" transform="translate(0,0)"/>
<path d="" fill="#4BC0FB" transform="translate(0,0)"/>
<path d="" fill="#45BCF4" transform="translate(0,0)"/>
<path d="" fill="#4DC1FB" transform="translate(0,0)"/>
<path d="" fill="#4CC3F9" transform="translate(0,0)"/>
<path d="" fill="#4BC2F9" transform="translate(0,0)"/>
<path d="" fill="#4ABBF5" transform="translate(0,0)"/>
<path d="" fill="#46BEFB" transform="translate(0,0)"/>
<path d="" fill="#4BC2FF" transform="translate(0,0)"/>
<path d="" fill="#4AC1FB" transform="translate(0,0)"/>
<path d="" fill="#4AC1F7" transform="translate(0,0)"/>
<path d="" fill="#49C1FD" transform="translate(0,0)"/>
<path d="" fill="#48BFF9" transform="translate(0,0)"/>
<path d="" fill="#48C1FA" transform="translate(0,0)"/>
<path d="" fill="#4BC1F8" transform="translate(0,0)"/>
<path d="" fill="#49C0FC" transform="translate(0,0)"/>
<path d="" fill="#49C1FC" transform="translate(0,0)"/>
<path d="" fill="#4ABFFB" transform="translate(0,0)"/>
<path d="" fill="#49C1FA" transform="translate(0,0)"/>
<path d="" fill="#4AC3FB" transform="translate(0,0)"/>
<path d="" fill="#4DC0F9" transform="translate(0,0)"/>
<path d="" fill="#4BC0F6" transform="translate(0,0)"/>
<path d="" fill="#49C0F9" transform="translate(0,0)"/>
<path d="" fill="#4BBBF6" transform="translate(0,0)"/>
<path d="" fill="#49C3F9" transform="translate(0,0)"/>
<path d="" fill="#46C1F9" transform="translate(0,0)"/>
<path d="" fill="#48C0F7" transform="translate(0,0)"/>
<path d="" fill="#4BBCF5" transform="translate(0,0)"/>
<path d="" fill="#48BCF3" transform="translate(0,0)"/>
<path d="" fill="#49BAEF" transform="translate(0,0)"/>
<path d="" fill="#4CBBF1" transform="translate(0,0)"/>
<path d="" fill="#48BAF1" transform="translate(0,0)"/>
<path d="" fill="#48C2FB" transform="translate(0,0)"/>
<path d="" fill="#4AC0FE" transform="translate(0,0)"/>
<path d="" fill="#4BBCF3" transform="translate(0,0)"/>
<path d="" fill="#4BBBED" transform="translate(0,0)"/>
<path d="" fill="#4BC2FD" transform="translate(0,0)"/>
<path d="" fill="#4ABFF8" transform="translate(0,0)"/>
<path d="" fill="#4BBCF2" transform="translate(0,0)"/>
<path d="" fill="#4AC2FD" transform="translate(0,0)"/>
<path d="" fill="#4BBBEF" transform="translate(0,0)"/>
<path d="" fill="#4CC2FC" transform="translate(0,0)"/>
<path d="" fill="#49C0FB" transform="translate(0,0)"/>
<path d="" fill="#48C0F9" transform="translate(0,0)"/>
<path d="" fill="#49C0FA" transform="translate(0,0)"/>
<path d="" fill="#47C0FB" transform="translate(0,0)"/>
<path d="" fill="#4EBFF7" transform="translate(0,0)"/>
<path d="" fill="#4AC4FB" transform="translate(0,0)"/>
<path d="" fill="#4ABCF6" transform="translate(0,0)"/>
<path d="" fill="#4AC0FB" transform="translate(0,0)"/>
<path d="" fill="#48C0F8" transform="translate(0,0)"/>
<path d="" fill="#48C0FB" transform="translate(0,0)"/>
<path d="" fill="#4AC2F7" transform="translate(0,0)"/>
<path d="" fill="#45BBF6" transform="translate(0,0)"/>
<path d="" fill="#4AC1F9" transform="translate(0,0)"/>
<path d="" fill="#4ABEF5" transform="translate(0,0)"/>
<path d="" fill="#42BCF3" transform="translate(0,0)"/>
<path d="" fill="#48BCF3" transform="translate(0,0)"/>
<path d="" fill="#43BDF4" transform="translate(0,0)"/>
<path d="" fill="#4ABDF3" transform="translate(0,0)"/>
<path d="" fill="#49C4FB" transform="translate(0,0)"/>
<path d="" fill="#49BDF4" transform="translate(0,0)"/>
<path d="" fill="#4BC0F5" transform="translate(0,0)"/>
<path d="" fill="#4DBDF3" transform="translate(0,0)"/>
<path d="" fill="#49BCF1" transform="translate(0,0)"/>
<path d="" fill="#48C0F3" transform="translate(0,0)"/>
<path d="" fill="#46C0F9" transform="translate(0,0)"/>
<path d="" fill="#4DBFF8" transform="translate(0,0)"/>
<path d="" fill="#4AC0FC" transform="translate(0,0)"/>
<path d="" fill="#49C1FB" transform="translate(0,0)"/>
<path d="" fill="#47C2FA" transform="translate(0,0)"/>
<path d="" fill="#4BBFF5" transform="translate(0,0)"/>
<path d="" fill="#4CC2F8" transform="translate(0,0)"/>
<path d="" fill="#4AC0FA" transform="translate(0,0)"/>
<path d="" fill="#4AC0F9" transform="translate(0,0)"/>
<path d="" fill="#4CC0F9" transform="translate(0,0)"/>
<path d="" fill="#48C3FD" transform="translate(0,0)"/>
<path d="" fill="#4BBFF8" transform="translate(0,0)"/>
<path d="" fill="#49C1FD" transform="translate(0,0)"/>
<path d="" fill="#48BEF5" transform="translate(0,0)"/>
<path d="" fill="#4BC2F9" transform="translate(0,0)"/>
<path d="" fill="#48C1FB" transform="translate(0,0)"/>
<path d="" fill="#4BBFFA" transform="translate(0,0)"/>
<path d="" fill="#4BC0FB" transform="translate(0,0)"/>
<path d="" fill="#4EC2FB" transform="translate(0,0)"/>
<path d="" fill="#4FC2FB" transform="translate(0,0)"/>
<path d="" fill="#4AC5FB" transform="translate(0,0)"/>
<path d="" fill="#48C3FA" transform="translate(0,0)"/>
<path d="" fill="#45BFF7" transform="translate(0,0)"/>
<path d="" fill="#48C2FB" transform="translate(0,0)"/>
<path d="" fill="#48C2FC" transform="translate(0,0)"/>
<path d="" fill="#4AC2FC" transform="translate(0,0)"/>
<path d="" fill="#45C0F7" transform="translate(0,0)"/>
<path d="" fill="#49BDFA" transform="translate(0,0)"/>
<path d="" fill="#3C5A67" transform="translate(0,0)"/>
<path d="" fill="#4A7F99" transform="translate(0,0)"/>
<path d="" fill="#49BEF4" transform="translate(0,0)"/>
<path d="" fill="#48C1F8" transform="translate(0,0)"/>
<path d="" fill="#48C0F9" transform="translate(0,0)"/>
<path d="" fill="#49BEF8" transform="translate(0,0)"/>
<path d="" fill="#4AC1F8" transform="translate(0,0)"/>
<path d="" fill="#47BFF6" transform="translate(0,0)"/>
<path d="" fill="#48BCF5" transform="translate(0,0)"/>
<path d="" fill="#4CBCF5" transform="translate(0,0)"/>
<path d="" fill="#47BFF7" transform="translate(0,0)"/>
<path d="" fill="#48C0F8" transform="translate(0,0)"/>
<path d="" fill="#4CBDF3" transform="translate(0,0)"/>
<path d="" fill="#4DBEF3" transform="translate(0,0)"/>
<path d="" fill="#4BC4FD" transform="translate(0,0)"/>
<path d="" fill="#48BCF6" transform="translate(0,0)"/>
<path d="" fill="#4AC5FE" transform="translate(0,0)"/>
<path d="" fill="#4EC5FE" transform="translate(0,0)"/>
<path d="" fill="#4CC1F6" transform="translate(0,0)"/>
<path d="" fill="#48C1FB" transform="translate(0,0)"/>
<path d="" fill="#4BC1FC" transform="translate(0,0)"/>
<path d="" fill="#4AC2FC" transform="translate(0,0)"/>
<path d="" fill="#4AC3FD" transform="translate(0,0)"/>
<path d="" fill="#4CBEF2" transform="translate(0,0)"/>
<path d="" fill="#48BCF2" transform="translate(0,0)"/>
<path d="" fill="#49C5FD" transform="translate(0,0)"/>
<path d="" fill="#48C1FD" transform="translate(0,0)"/>
<path d="" fill="#4BC3FB" transform="translate(0,0)"/>
<path d="" fill="#4BBDF1" transform="translate(0,0)"/>
<path d="" fill="#4CC3FE" transform="translate(0,0)"/>
<path d="" fill="#45BDF4" transform="translate(0,0)"/>
<path d="" fill="#4BBDF4" transform="translate(0,0)"/>
<path d="" fill="#4BBCF2" transform="translate(0,0)"/>
<path d="" fill="#4CC3FC" transform="translate(0,0)"/>
<path d="" fill="#4AC3FC" transform="translate(0,0)"/>
<path d="" fill="#4CC2F7" transform="translate(0,0)"/>
<path d="" fill="#4AC3F9" transform="translate(0,0)"/>
<path d="" fill="#4BC2FF" transform="translate(0,0)"/>
<path d="" fill="#4ABEF9" transform="translate(0,0)"/>
<path d="" fill="#48BAF2" transform="translate(0,0)"/>
<path d="" fill="#4AC3FB" transform="translate(0,0)"/>
<path d="" fill="#4BC0F8" transform="translate(0,0)"/>
<path d="" fill="#4BC0FA" transform="translate(0,0)"/>
<path d="" fill="#4BBAF2" transform="translate(0,0)"/>
<path d="" fill="#46BDF8" transform="translate(0,0)"/>
<path d="" fill="#4BC2FB" transform="translate(0,0)"/>
<path d="" fill="#4CC1F8" transform="translate(0,0)"/>
<path d="" fill="#4EBDF3" transform="translate(0,0)"/>
<path d="" fill="#49C2F9" transform="translate(0,0)"/>
<path d="" fill="#4CC5FB" transform="translate(0,0)"/>
<path d="" fill="#4BC2FE" transform="translate(0,0)"/>
<path d="" fill="#49BEF6" transform="translate(0,0)"/>
<path d="" fill="#4AC0F8" transform="translate(0,0)"/>
<path d="" fill="#49BEF5" transform="translate(0,0)"/>
<path d="" fill="#49BEF6" transform="translate(0,0)"/>
<path d="" fill="#49C1F8" transform="translate(0,0)"/>
<path d="" fill="#49BFFB" transform="translate(0,0)"/>
<path d="" fill="#49C0FA" transform="translate(0,0)"/>
<path d="" fill="#4AC1FA" transform="translate(0,0)"/>
<path d="" fill="#49C5FD" transform="translate(0,0)"/>
<path d="" fill="#48BBF4" transform="translate(0,0)"/>
<path d="" fill="#48BAF4" transform="translate(0,0)"/>
<path d="" fill="#49BFF9" transform="translate(0,0)"/>
<path d="" fill="#4AC1F9" transform="translate(0,0)"/>
<path d="" fill="#46BCF2" transform="translate(0,0)"/>
<path d="" fill="#4ABDF8" transform="translate(0,0)"/>
<path d="" fill="#4BC1F8" transform="translate(0,0)"/>
<path d="" fill="#49C1FA" transform="translate(0,0)"/>
<path d="" fill="#4BBCF4" transform="translate(0,0)"/>
<path d="" fill="#4AC7FC" transform="translate(0,0)"/>
<path d="" fill="#47C1F8" transform="translate(0,0)"/>
<path d="" fill="#47C0FC" transform="translate(0,0)"/>
<path d="" fill="#4BBEF4" transform="translate(0,0)"/>
<path d="" fill="#48C1FA" transform="translate(0,0)"/>
<path d="" fill="#48BFF5" transform="translate(0,0)"/>
<path d="" fill="#4DC1FB" transform="translate(0,0)"/>
<path d="" fill="#4BC2F9" transform="translate(0,0)"/>
<path d="" fill="#47BEFA" transform="translate(0,0)"/>
<path d="" fill="#49C0FC" transform="translate(0,0)"/>
<path d="" fill="#47C2FC" transform="translate(0,0)"/>
<path d="" fill="#4BBBF2" transform="translate(0,0)"/>
<path d="" fill="#4AC0F9" transform="translate(0,0)"/>
<path d="" fill="#49C1F7" transform="translate(0,0)"/>
<path d="" fill="#47BDF8" transform="translate(0,0)"/>
<path d="" fill="#48C0F4" transform="translate(0,0)"/>
<path d="" fill="#4CC0FA" transform="translate(0,0)"/>
<path d="" fill="#47BFF8" transform="translate(0,0)"/>
<path d="" fill="#46BCF4" transform="translate(0,0)"/>
<path d="" fill="#45BCF8" transform="translate(0,0)"/>
<path d="" fill="#49C0FA" transform="translate(0,0)"/>
<path d="" fill="#48C2FC" transform="translate(0,0)"/>
<path d="" fill="#49BFF5" transform="translate(0,0)"/>
<path d="" fill="#4BC2FD" transform="translate(0,0)"/>
<path d="" fill="#4DBBF4" transform="translate(0,0)"/>
<path d="" fill="#49C1FA" transform="translate(0,0)"/>
<path d="" fill="#4ABDF6" transform="translate(0,0)"/>
<path d="" fill="#48C0FA" transform="translate(0,0)"/>
<path d="" fill="#4AC0FB" transform="translate(0,0)"/>
<path d="" fill="#47B9F6" transform="translate(0,0)"/>
<path d="" fill="#4CC1F9" transform="translate(0,0)"/>
<path d="" fill="#49BDF5" transform="translate(0,0)"/>
<path d="" fill="#4BC3FA" transform="translate(0,0)"/>
<path d="" fill="#49BEF7" transform="translate(0,0)"/>
<path d="" fill="#48C1F9" transform="translate(0,0)"/>
<path d="" fill="#46BFF7" transform="translate(0,0)"/>
<path d="" fill="#45BEF8" transform="translate(0,0)"/>
<path d="" fill="#4BBDF5" transform="translate(0,0)"/>
<path d="" fill="#47BDF6" transform="translate(0,0)"/>
<path d="" fill="#48BAF4" transform="translate(0,0)"/>
<path d="" fill="#45BBF8" transform="translate(0,0)"/>
<path d="" fill="#4AC3F9" transform="translate(0,0)"/>
<path d="" fill="#4BBDF5" transform="translate(0,0)"/>
<path d="" fill="#4DBFF7" transform="translate(0,0)"/>
<path d="" fill="#4BC0F5" transform="translate(0,0)"/>
<path d="" fill="#4ABFF6" transform="translate(0,0)"/>
<path d="" fill="#4BBFF6" transform="translate(0,0)"/>
<path d="" fill="#4BBFF8" transform="translate(0,0)"/>
<path d="" fill="#49C0F8" transform="translate(0,0)"/>
<path d="" fill="#4BC1F9" transform="translate(0,0)"/>
<path d="" fill="#4BBEF7" transform="translate(0,0)"/>
<path d="" fill="#4BBDF7" transform="translate(0,0)"/>
<path d="" fill="#4AC1F9" transform="translate(0,0)"/>
<path d="" fill="#46BEF8" transform="translate(0,0)"/>
<path d="" fill="#4BC0F7" transform="translate(0,0)"/>
<path d="" fill="#4ABAF5" transform="translate(0,0)"/>
<path d="" fill="#4BBEF5" transform="translate(0,0)"/>
<path d="" fill="#4DBDF6" transform="translate(0,0)"/>
<path d="" fill="#48BDF6" transform="translate(0,0)"/>
<path d="" fill="#4AC0F7" transform="translate(0,0)"/>
<path d="" fill="#49BDF4" transform="translate(0,0)"/>
<path d="" fill="#4ABCF4" transform="translate(0,0)"/>
<path d="" fill="#47BDF5" transform="translate(0,0)"/>
<path d="" fill="#47BCF6" transform="translate(0,0)"/>
<path d="" fill="#4CBDF6" transform="translate(0,0)"/>
<path d="" fill="#49BCF5" transform="translate(0,0)"/>
<path d="" fill="#47BBF5" transform="translate(0,0)"/>
<path d="" fill="#4ABFF6" transform="translate(0,0)"/>
<path d="" fill="#4ABBF4" transform="translate(0,0)"/>
<path d="" fill="#4BBCF3" transform="translate(0,0)"/>
<path d="" fill="#344A53" transform="translate(0,0)"/>
<path d="" fill="#2D4149" transform="translate(0,0)"/>
</svg>
