<?xml version="1.0" encoding="UTF-8"?>
<svg version="1.1" xmlns="http://www.w3.org/2000/svg" width="1024" height="1024">
<path d="M0 0 C10.22053178 7.46786985 20.43911585 15.81748095 22.8203125 28.9140625 C22.8203125 39.65744509 14.68435806 47.5087296 7.58197021 54.66127014 C6.33946689 55.89651341 5.09350239 57.12828414 3.84423828 58.35668945 C1.94385808 60.22799467 0.06297922 62.1174003 -1.81640625 64.00976562 C-3.03795217 65.22507539 -4.26057281 66.43930606 -5.484375 67.65234375 C-6.03672821 68.2076326 -6.58908142 68.76292145 -7.15817261 69.33503723 C-12.84185618 74.88536637 -18.78517052 79.59162738 -26.96484375 80.0390625 C-33.00012422 79.69844702 -37.21034263 76.98375156 -41.9921875 73.4765625 C-52.23008002 66.01504761 -63.73684632 64.06603739 -76.1796875 64.9140625 C-88.73259328 67.08306799 -100.30505906 72.96150871 -107.96875 83.3359375 C-115.93205258 95.96738297 -118.22300727 110.40550677 -115.1171875 125.0390625 C-111.76522434 136.81748861 -103.97615199 146.23847016 -93.515625 152.51171875 C-80.04991904 159.16695959 -65.31111173 159.50419665 -51.1796875 154.9140625 C-45.21943799 152.06825323 -39.96451888 148.16615421 -34.7734375 144.11328125 C-31.13978209 141.37913367 -27.56487751 141.48247965 -23.1796875 141.9140625 C-18.09354715 143.18326449 -13.98166877 145.23089315 -10.1796875 148.9140625 C-10.1796875 149.5740625 -10.1796875 150.2340625 -10.1796875 150.9140625 C-9.5196875 150.9140625 -8.8596875 150.9140625 -8.1796875 150.9140625 C-6.0546875 152.7890625 -6.0546875 152.7890625 -4.1796875 154.9140625 C-4.1796875 155.5740625 -4.1796875 156.2340625 -4.1796875 156.9140625 C-3.5196875 156.9140625 -2.8596875 156.9140625 -2.1796875 156.9140625 C-0.91015625 158.20703125 -0.91015625 158.20703125 0.6328125 160.1015625 C4.53727161 164.7309001 8.80895323 168.9186216 13.20043945 173.08081055 C19.01380393 178.73585805 22.42330365 184.23598926 22.91015625 192.5 C22.63388166 199.92337816 17.74542571 204.89256743 12.8203125 209.9140625 C12.17191406 210.57535156 11.52351562 211.23664063 10.85546875 211.91796875 C4.57112163 217.8980458 -2.52961309 221.95241682 -10.1796875 225.9140625 C-10.911875 226.29949219 -11.6440625 226.68492187 -12.3984375 227.08203125 C-18.87150658 230.00314081 -26.77816884 230.0520161 -33.58203125 228.29296875 C-38.9840426 225.96004638 -42.30184381 221.9550536 -45.1796875 216.9140625 C-46.35230445 213.74799675 -47.04003627 210.75196987 -47.59375 207.4296875 C-48.49747257 202.25242941 -49.19781732 198.66170502 -53.1796875 194.9140625 C-56.39438533 192.94347961 -59.06138061 192.59244234 -62.80078125 192.38671875 C-63.89471191 192.31888184 -64.98864258 192.25104492 -66.11572266 192.18115234 C-67.27120605 192.1136377 -68.42668945 192.04612305 -69.6171875 191.9765625 C-90.17119629 190.53265109 -106.50379699 185.8658703 -122.1796875 171.9140625 C-122.71883789 171.48206543 -123.25798828 171.05006836 -123.81347656 170.60498047 C-128.29697123 166.96076669 -131.59610606 163.07991044 -134.8046875 158.2890625 C-135.2790625 157.5882959 -135.7534375 156.8875293 -136.2421875 156.16552734 C-140.06716786 150.37126324 -142.96608296 144.50797773 -145.1796875 137.9140625 C-145.48390625 137.01816406 -145.788125 136.12226563 -146.1015625 135.19921875 C-152.22320019 115.99691184 -150.310485 94.43440455 -141.4296875 76.4140625 C-138.06768456 69.96519372 -134.117966 64.27401564 -129.1796875 58.9140625 C-128.11427734 57.74617188 -128.11427734 57.74617188 -127.02734375 56.5546875 C-110.41065749 39.14951174 -90.29391311 32.87818456 -66.83520508 31.68457031 C-60.0391839 31.29207397 -54.89081906 30.78011586 -49.9921875 25.6015625 C-47.97550977 22.30379851 -47.46655203 18.80173381 -46.7421875 15.0390625 C-44.97673514 6.03145879 -41.88017039 0.19870762 -34.1796875 -5.0859375 C-22.89223971 -11.47552799 -10.08021686 -6.6128204 0 0 Z " fill="#27C2D9" transform="translate(593.1796875,306.0859375)"/>
<path d="M0 0 C1.98908559 1.45341847 3.8144392 2.98478316 5.63671875 4.640625 C6.50296875 5.341875 7.36921875 6.043125 8.26171875 6.765625 C17.19265782 17.57676177 19.59457823 30.01158321 18.83203125 43.62304688 C17.76651593 54.62982017 12.78574663 64.01123248 4.76171875 71.453125 C-3.77006242 78.46021524 -13.36084106 81.53166769 -24.36328125 80.640625 C-31.47195872 79.79305192 -35.03269484 76.86101594 -41.36328125 72.640625 C-41.69328125 84.190625 -42.02328125 95.740625 -42.36328125 107.640625 C-49.62328125 107.640625 -56.88328125 107.640625 -64.36328125 107.640625 C-65.00622067 103.78298847 -65.48838966 100.75814415 -65.49026489 96.97758484 C-65.49308472 96.09570999 -65.49590454 95.21383514 -65.49880981 94.30523682 C-65.49678558 93.35590271 -65.49476135 92.4065686 -65.49267578 91.4284668 C-65.4944281 90.41482559 -65.49618042 89.40118439 -65.49798584 88.35682678 C-65.50237533 85.01781486 -65.49947768 81.67885618 -65.49609375 78.33984375 C-65.49676736 76.01910899 -65.49773786 73.69837429 -65.49899292 71.37763977 C-65.50046573 66.52152838 -65.49832771 61.66543542 -65.49365234 56.80932617 C-65.4879394 50.57007994 -65.49124657 44.33087657 -65.49722481 38.09163189 C-65.5008281 33.30401788 -65.49969318 28.51641413 -65.49709702 23.72879982 C-65.49642792 21.42697965 -65.49725555 19.12515856 -65.49957657 16.82333946 C-65.502101 13.6174711 -65.4982662 10.41167359 -65.49267578 7.20581055 C-65.49470001 6.24635529 -65.49672424 5.28690002 -65.49880981 4.29837036 C-65.49598999 3.43059464 -65.49317017 2.56281891 -65.49026489 1.66874695 C-65.48988787 0.91052989 -65.48951084 0.15231283 -65.48912239 -0.6288805 C-65.36328125 -2.359375 -65.36328125 -2.359375 -64.36328125 -3.359375 C-62.81372566 -3.45837023 -61.25974452 -3.49017024 -59.70703125 -3.4921875 C-58.29744141 -3.49412109 -58.29744141 -3.49412109 -56.859375 -3.49609375 C-55.87066406 -3.49222656 -54.88195312 -3.48835937 -53.86328125 -3.484375 C-52.38021484 -3.49017578 -52.38021484 -3.49017578 -50.8671875 -3.49609375 C-49.92746094 -3.49480469 -48.98773438 -3.49351562 -48.01953125 -3.4921875 C-47.15134766 -3.49105957 -46.28316406 -3.48993164 -45.38867188 -3.48876953 C-43.36328125 -3.359375 -43.36328125 -3.359375 -42.36328125 -2.359375 C-41.99567394 -0.03119536 -41.66086544 2.3024635 -41.36328125 4.640625 C-40.89019531 4.24230469 -40.41710937 3.84398437 -39.9296875 3.43359375 C-28.4278717 -5.7813113 -13.16943388 -7.57514544 0 0 Z M-38.36328125 20.640625 C-42.76887937 26.02524492 -43.54460266 33.28810785 -43.1796875 40.03515625 C-42.18540229 47.73426739 -40.68941314 52.71046119 -34.73828125 57.953125 C-29.00997223 60.81727951 -23.19861584 61.54940771 -17.05078125 59.515625 C-11.09062398 56.85999041 -7.83966067 52.58393561 -5.36328125 46.640625 C-3.10136673 38.82673847 -4.1602217 31.01274618 -7.36328125 23.640625 C-9.65527528 20.68011626 -9.65527528 20.68011626 -12.36328125 18.640625 C-12.976875 18.11984375 -13.59046875 17.5990625 -14.22265625 17.0625 C-21.78230992 12.04112421 -32.23144644 14.67911893 -38.36328125 20.640625 Z " fill="#01273E" transform="translate(465.36328125,626.359375)"/>
<path d="M0 0 C2.8125 2.4375 2.8125 2.4375 5 5 C5.51304687 5.58136719 6.02609375 6.16273438 6.5546875 6.76171875 C8.89707576 9.43473118 11.02431226 12.03646839 13 15 C12.82739258 17.06518555 12.82739258 17.06518555 12 19 C9.54953337 20.48092133 7.28491084 21.66322467 4.6875 22.8125 C4.01009766 23.13669922 3.33269531 23.46089844 2.63476562 23.79492188 C-1.01217992 25.4597543 -3.19657704 26.37547214 -7 25 C-8.3515625 23.546875 -8.3515625 23.546875 -9.625 21.75 C-14.26209714 16.16937441 -19.42893664 13.47281033 -26.62890625 12.51953125 C-35.75776585 12.17869593 -42.87820081 13.42260029 -49.80078125 19.609375 C-57.69115601 28.14585985 -60.5952964 39.13848906 -60.24609375 50.62109375 C-59.2285231 60.45761005 -56.37090862 68.92383637 -49.078125 75.81640625 C-41.22714353 82.13066461 -32.83981418 82.96492124 -23 82 C-15.32158515 79.91714553 -10.52877951 75.43563403 -6 69 C-1.59115652 69.62154748 1.82718295 71.24015208 5.75 73.3125 C6.89984375 73.90675781 8.0496875 74.50101563 9.234375 75.11328125 C12 77 12 77 13.0703125 78.9609375 C12.91413256 83.4901559 8.94397339 86.84840462 6 90 C-4.67910458 99.74634856 -17.5274657 104.79046631 -32.125 104.28125 C-48.69645984 102.66012893 -62.00497205 96.46048589 -73 84 C-76.53277089 79.31391902 -79.75611794 74.79326554 -81 69 C-81.24878906 68.3090625 -81.49757813 67.618125 -81.75390625 66.90625 C-85.89211548 54.59157904 -85.77202529 39.10414998 -81 27 C-80.70996094 26.22785156 -80.41992188 25.45570313 -80.12109375 24.66015625 C-74.51579552 10.9400748 -65.23139337 1.53407983 -51.859375 -4.80859375 C-34.62419603 -11.98991832 -15.58057583 -10.39586808 0 0 Z " fill="#01263D" transform="translate(345,603)"/>
<path d="M0 0 C6.44897801 4.83973583 10.51081652 11.4651095 12 19.375 C12.32986415 23.75717015 12.37214615 28.1341119 12.4140625 32.52734375 C12.43342865 33.78261368 12.4527948 35.03788361 12.4727478 36.33119202 C12.52222357 39.64701056 12.56356677 42.96272345 12.60089111 46.27868652 C12.64110271 49.67091621 12.69211621 53.06298218 12.7421875 56.45507812 C12.83802316 63.09494634 12.92313055 69.73488659 13 76.375 C9.11436275 77.67021242 5.42199731 77.52003464 1.375 77.5 C0.58609375 77.50386719 -0.2028125 77.50773438 -1.015625 77.51171875 C-6.87334606 77.50165394 -6.87334606 77.50165394 -8 76.375 C-8.36760731 74.04682036 -8.70241581 71.7131615 -9 69.375 C-9.43570313 69.77332031 -9.87140625 70.17164063 -10.3203125 70.58203125 C-15.99799686 75.63295824 -22.17836526 79.88087516 -30 80.375 C-39.41900847 79.39492793 -48.07739977 77.62946092 -54.73828125 70.51953125 C-59.35543117 64.82247514 -61.55459441 59.00315412 -61.30859375 51.55078125 C-60.46523956 45.60460048 -58.30223744 40.14464781 -53.875 36 C-41.52751627 26.7393872 -25.72116806 27.03484464 -11 27.375 C-11.08746284 25.93638706 -11.19565348 24.49902492 -11.3125 23.0625 C-11.37050781 22.26199219 -11.42851563 21.46148438 -11.48828125 20.63671875 C-12.09841694 17.94001217 -12.82505017 17.04414755 -15 15.375 C-21.23751647 13.07696761 -26.74723353 12.8185592 -33 15.375 C-35.61302809 18.37042245 -36.75403369 20.63710107 -38 24.375 C-44.27 24.045 -50.54 23.715 -57 23.375 C-57 14.30588547 -55.52676383 8.90176383 -49 2.375 C-36.43875334 -8.35693889 -13.78939222 -8.39962978 0 0 Z M-36.7421875 47.26953125 C-38.66114118 50.48169285 -38.51416158 52.71159877 -38 56.375 C-36.40282421 59.55828877 -36.40282421 59.55828877 -33 61.375 C-27.53980659 62.25667429 -22.01034725 62.32024307 -17 59.75 C-13.68601665 57.12642985 -11.83441385 55.19058081 -10 51.375 C-9.69576511 48.61194875 -9.80731513 46.16893066 -10 43.375 C-16.88873134 39.93063433 -31.36777977 41.4251641 -36.7421875 47.26953125 Z " fill="#01273E" transform="translate(614,627.625)"/>
<path d="M0 0 C8.44265914 6.83527672 10.17378896 14.03372589 11.34130859 24.55102539 C12.25797204 34.50219279 11.94190915 44.5421454 11.86328125 54.5234375 C11.8532252 56.7630168 11.84410402 59.00260051 11.8359375 61.2421875 C11.81414633 66.66936865 11.78087935 72.09638181 11.73828125 77.5234375 C8.76009491 78.40443485 6.2853526 78.59048914 3.19140625 78.40234375 C2.34707031 78.35400391 1.50273438 78.30566406 0.6328125 78.25585938 C-0.23988281 78.19978516 -1.11257813 78.14371094 -2.01171875 78.0859375 C-2.89988281 78.03373047 -3.78804687 77.98152344 -4.703125 77.92773438 C-6.88971071 77.79842017 -9.07579769 77.66347108 -11.26171875 77.5234375 C-11.25124512 76.24815186 -11.24077148 74.97286621 -11.22998047 73.65893555 C-11.19350675 68.88227192 -11.17071955 64.10562035 -11.15185547 59.32885742 C-11.14185983 57.26991702 -11.12825883 55.21099059 -11.11083984 53.15209961 C-11.08630613 50.1755832 -11.075171 47.19925609 -11.06640625 44.22265625 C-11.05608368 43.3169841 -11.04576111 42.41131195 -11.03512573 41.47819519 C-11.03384522 34.01799429 -11.43979527 26.24319793 -14.76171875 19.4609375 C-18.59336863 16.49140884 -22.45675525 15.7011249 -27.26171875 15.5234375 C-31.47508419 16.22433761 -33.87182354 18.06171949 -36.63671875 21.3359375 C-39.73800584 27.4192314 -39.38613164 33.67042097 -39.32421875 40.33984375 C-39.32043213 41.27392563 -39.31664551 42.20800751 -39.31274414 43.1703949 C-39.30057448 46.14229036 -39.28194689 49.11408663 -39.26171875 52.0859375 C-39.23509826 56.00390375 -39.21511808 59.92182095 -39.19921875 63.83984375 C-39.19092041 64.73578751 -39.18262207 65.63173126 -39.17407227 66.55482483 C-39.15786981 70.68069535 -39.20828789 74.49997445 -40.26171875 78.5234375 C-43.69914793 78.58146448 -47.13645128 78.61704236 -50.57421875 78.6484375 C-51.55068359 78.66519531 -52.52714844 78.68195313 -53.53320312 78.69921875 C-54.47099609 78.70566406 -55.40878906 78.71210937 -56.375 78.71875 C-57.23907471 78.72922363 -58.10314941 78.73969727 -58.9934082 78.75048828 C-61.26171875 78.5234375 -61.26171875 78.5234375 -64.26171875 76.5234375 C-63.76671875 76.0284375 -63.76671875 76.0284375 -63.26171875 75.5234375 C-63.17204133 73.09462593 -63.14673514 70.69449597 -63.1640625 68.265625 C-63.16552277 67.50630676 -63.16698303 66.74698853 -63.16848755 65.96466064 C-63.17230241 64.31076411 -63.17842819 62.6568717 -63.18655396 61.00299072 C-63.19926054 58.3898436 -63.20581838 55.7767469 -63.21069336 53.16357422 C-63.2221516 47.61683943 -63.24139501 42.07014596 -63.26171875 36.5234375 C-63.28525925 30.09881897 -63.30567201 23.67422414 -63.31765747 17.24957275 C-63.32417069 14.66748925 -63.33667919 12.08547749 -63.34936523 9.50341797 C-63.35299593 7.92936263 -63.35634789 6.35530662 -63.359375 4.78125 C-63.36454132 4.05705872 -63.36970764 3.33286743 -63.37503052 2.58673096 C-63.37521187 0.8985439 -63.32400813 -0.78952498 -63.26171875 -2.4765625 C-62.26171875 -3.4765625 -62.26171875 -3.4765625 -60.12866211 -3.59008789 C-59.21221924 -3.58485107 -58.29577637 -3.57961426 -57.3515625 -3.57421875 C-56.36220703 -3.57099609 -55.37285156 -3.56777344 -54.35351562 -3.56445312 C-53.31259766 -3.55607422 -52.27167969 -3.54769531 -51.19921875 -3.5390625 C-49.63204102 -3.53229492 -49.63204102 -3.53229492 -48.03320312 -3.52539062 C-45.44265215 -3.51356163 -42.85221316 -3.49707939 -40.26171875 -3.4765625 C-39.93171875 -0.8365625 -39.60171875 1.8034375 -39.26171875 4.5234375 C-38.86082031 4.12511719 -38.45992187 3.72679687 -38.046875 3.31640625 C-27.79767635 -6.235568 -11.9495124 -7.80123608 0 0 Z " fill="#01273E" transform="translate(738.26171875,626.4765625)"/>
<path d="M0 0 C1.32 0.66 2.64 1.32 4 2 C4 8.27 4 14.54 4 21 C10.6 21 17.2 21 24 21 C24 27.6 24 34.2 24 41 C14.1 41.495 14.1 41.495 4 42 C3.9540551 47.0539389 3.91424003 52.10715137 3.89013672 57.16113281 C3.8800873 58.87990781 3.86644555 60.59866575 3.84912109 62.31738281 C3.82482609 64.78975641 3.81350632 67.26190369 3.8046875 69.734375 C3.79436493 70.50118591 3.78404236 71.26799683 3.77340698 72.05804443 C3.76550092 77.34608466 3.76550092 77.34608466 6 82 C10.47815137 84.84973269 15.02652376 83.88081243 20 83 C21.33689578 82.68125469 22.6715882 82.35243578 24 82 C25.32388229 88.43028541 26.24794402 94.4294834 26 101 C16.03423689 105.58425103 5.52028666 106.60002717 -5 103 C-11.53243754 99.93068094 -15.35999868 96.1453908 -18.05859375 89.32421875 C-19.15379531 85.45693027 -19.50363097 81.74179237 -19.6875 77.75 C-19.74828735 76.55250122 -19.74828735 76.55250122 -19.81030273 75.33081055 C-20.26981798 63.88401558 -19.57825834 52.43172254 -19 41 C-22.96 41 -26.92 41 -31 41 C-32.57977708 37.84044583 -32.18447084 34.46536183 -32.1875 31 C-32.19974609 30.26265625 -32.21199219 29.5253125 -32.22460938 28.765625 C-32.22987395 26.84229942 -32.12203447 24.91945737 -32 23 C-30 21 -30 21 -27.3984375 20.8046875 C-26.40070313 20.82789063 -25.40296875 20.85109375 -24.375 20.875 C-22.87066406 20.90207031 -22.87066406 20.90207031 -21.3359375 20.9296875 C-20.56507813 20.95289063 -19.79421875 20.97609375 -19 21 C-19.08378906 19.96359375 -19.16757812 18.9271875 -19.25390625 17.859375 C-19.35710782 16.48960868 -19.45995374 15.11981553 -19.5625 13.75 C-19.61857422 13.06808594 -19.67464844 12.38617187 -19.73242188 11.68359375 C-19.99392209 8.09232411 -19.88526144 5.54104574 -19 2 C-12.73 2 -6.46 2 0 2 C0 1.34 0 0.68 0 0 Z " fill="#01273D" transform="translate(520,602)"/>
<path d="M0 0 C7.26 0 14.52 0 22 0 C22 26.73 22 53.46 22 81 C19.17588235 81.94137255 17.47081968 82.11725382 14.55078125 82.09765625 C13.70322266 82.09443359 12.85566406 82.09121094 11.98242188 82.08789062 C10.66081055 82.07532227 10.66081055 82.07532227 9.3125 82.0625 C8.41982422 82.05798828 7.52714844 82.05347656 6.60742188 82.04882812 C4.40487671 82.03704981 2.20248387 82.01974352 0 82 C-1.06551275 72.88489154 -1.14696223 63.81143476 -1.1328125 54.6484375 C-1.13348745 53.0971373 -1.13445907 51.5458372 -1.13571167 49.99453735 C-1.13717524 46.76897153 -1.13507464 43.54343364 -1.13037109 40.31787109 C-1.12462641 36.17615776 -1.12799087 32.03450855 -1.13394356 27.89279747 C-1.13754477 24.70162465 -1.13641346 21.51046724 -1.13381577 18.31929398 C-1.13314774 16.79060483 -1.13397058 15.2619143 -1.13629532 13.73322678 C-1.13881976 11.61036155 -1.13498649 9.48760329 -1.12939453 7.36474609 C-1.12859894 6.15660248 -1.12780334 4.94845886 -1.12698364 3.70370483 C-1 1 -1 1 0 0 Z " fill="#01273E" transform="translate(641,623)"/>
<path d="M0 0 C1.33708008 -0.00193359 1.33708008 -0.00193359 2.70117188 -0.00390625 C3.63380859 -0.00003906 4.56644531 0.00382813 5.52734375 0.0078125 C6.46384766 0.00394531 7.40035156 0.00007812 8.36523438 -0.00390625 C9.70038086 -0.00197266 9.70038086 -0.00197266 11.0625 0 C11.88242432 0.00112793 12.70234863 0.00225586 13.54711914 0.00341797 C15.46484375 0.1328125 15.46484375 0.1328125 16.46484375 1.1328125 C16.55986791 3.62773638 16.59041941 6.09487264 16.57836914 8.59008789 C16.57851517 9.37051956 16.57866119 10.15095123 16.57881165 10.95503235 C16.57811233 13.5468723 16.57031911 16.13864128 16.5625 18.73046875 C16.56063588 20.5226589 16.55921195 22.31484956 16.55821228 24.10704041 C16.55438659 28.83352047 16.54455587 33.55997002 16.5335083 38.28643799 C16.52329528 43.105668 16.5187149 47.92490292 16.51367188 52.74414062 C16.50293364 62.20704469 16.48585661 71.66992606 16.46484375 81.1328125 C14.06424558 82.33311158 12.57123726 82.24740993 9.89453125 82.23046875 C8.99863281 82.22724609 8.10273438 82.22402344 7.1796875 82.22070312 C5.77396484 82.20813477 5.77396484 82.20813477 4.33984375 82.1953125 C3.39496094 82.19080078 2.45007813 82.18628906 1.4765625 82.18164062 C-0.86074012 82.16983607 -3.19791686 82.15337009 -5.53515625 82.1328125 C-6.76028527 78.33033485 -6.66880343 74.55954787 -6.64868164 70.61035156 C-6.64890068 69.482938 -6.64890068 69.482938 -6.64912415 68.33274841 C-6.64842887 65.85461516 -6.64065451 63.37655758 -6.6328125 60.8984375 C-6.63094695 59.17779583 -6.62952369 57.45715362 -6.62852478 55.73651123 C-6.62471038 51.21228565 -6.61488927 46.68809227 -6.6038208 42.16387939 C-6.59358354 37.54545528 -6.5890222 32.92702595 -6.58398438 28.30859375 C-6.57326605 19.24998587 -6.55620254 10.19140186 -6.53515625 1.1328125 C-4.15076916 -0.05938104 -2.65859623 0.00365228 0 0 Z " fill="#01273E" transform="translate(370.53515625,622.8671875)"/>
<path d="M0 0 C4.98432226 2.8697613 7.7981998 6.27301771 10.0625 11.625 C11.07823432 17.7194059 10.90149862 23.61516583 8 29.1875 C4.87863979 33.48991542 1.84960955 36.65429682 -3.3125 38.375 C-10.82727813 39.2663926 -16.38502027 38.85771979 -22.46875 34.140625 C-27.01047051 29.79135027 -28.96562242 24.96774427 -29.4140625 18.7109375 C-29.14472957 12.51628 -26.83281772 6.65097622 -22.3125 2.375 C-15.46524349 -2.45461944 -7.72293826 -3.46150528 0 0 Z " fill="#29C5D4" transform="translate(405.3125,388.625)"/>
<path d="M0 0 C4.59730655 2.8032357 7.77144278 7.02717738 9.08203125 12.26953125 C9.74157674 18.12426587 9.51031653 23.25771515 6.54296875 28.4453125 C2.88670377 33.01075567 -1.85935909 35.68135706 -7.41796875 37.26953125 C-13.92092557 37.26953125 -18.9076831 36.66842812 -23.79296875 32.08203125 C-28.11152617 27.23242153 -30.63472419 22.09921029 -30.32421875 15.44921875 C-29.32752898 10.10159481 -27.08866719 5.11927039 -22.91015625 1.55859375 C-15.14166346 -3.40062858 -8.38068293 -4.04043146 0 0 Z " fill="#29C7D5" transform="translate(423.91796875,331.73046875)"/>
<path d="M0 0 C5.08036399 5.35497826 6.48523442 10.18265456 6.3125 17.4375 C5.64588304 22.90375911 3.22087877 27.16602167 -0.8125 30.875 C-6.14925679 34.43283786 -10.83502204 35.53744323 -17.08984375 34.46484375 C-23.49073794 32.90716193 -27.32445228 29.26788598 -31 24 C-32.83466111 18.49601666 -33.0940493 12.1287765 -31.1640625 6.609375 C-27.98482756 1.01904242 -23.11440808 -2.68723166 -16.9921875 -4.640625 C-10.40655775 -5.82862096 -5.27719 -3.65343923 0 0 Z " fill="#25BADB" transform="translate(460,500)"/>
<path d="M0 0 C4.25906028 2.46213424 6.8778543 6.30322561 9.30078125 10.48828125 C11.02570258 17.73295082 10.1508055 23.3331669 6.5390625 29.875 C3.14433142 34.58488114 -1.35710295 37.02065629 -7.01171875 38.11328125 C-11.73665322 38.41033018 -15.92517898 37.37569665 -20.07421875 35.11328125 C-24.27024103 31.40038307 -27.67943478 27.02221574 -28.4453125 21.37890625 C-28.60113745 14.30262025 -27.99154066 9.41074525 -23.07421875 4.11328125 C-15.97642881 -2.09922635 -8.78844019 -3.60070074 0 0 Z " fill="#26BDD8" transform="translate(417.07421875,450.88671875)"/>
<path d="M0 0 C4.66788755 2.75260998 7.61175638 6.59283645 9.6875 11.5625 C10.84938046 17.85452959 10.10374992 23.36489854 6.89453125 28.91015625 C4.23981056 32.54428846 0.78633508 34.84011718 -3.3125 36.5625 C-10.18723385 37.49549959 -15.99760604 37.22927271 -21.69140625 33.0625 C-25.57728109 29.46689533 -27.98928661 25.42062985 -28.5859375 20.14453125 C-28.8375604 13.28296835 -28.06283046 8.68358795 -23.3125 3.5625 C-16.71258505 -2.55959305 -8.26911896 -3.41516194 0 0 Z " fill="#28C6D2" transform="translate(467.3125,291.4375)"/>
<path d="M0 0 C4.34294514 4.02516867 8.13915538 7.63142404 8.8359375 13.79296875 C9.0875604 20.65453165 8.31283046 25.25391205 3.5625 30.375 C-0.57743109 34.21520757 -4.3581097 35.69758423 -10 35.9375 C-15.92667549 35.63419849 -19.65846601 34.14679692 -23.9375 29.87890625 C-28.42809656 24.76319824 -28.73928933 20.64067177 -28.64453125 14.09375 C-28.22577231 8.59457595 -25.90528231 5.61924355 -21.9375 2.0625 C-15.88715694 -2.99272085 -7.01470466 -3.3160422 0 0 Z " fill="#23B8D9" transform="translate(515.4375,517.625)"/>
<path d="M0 0 C4.273968 3.77699498 7.05469683 7.23928929 8.6875 12.75 C8.6875 18.63486287 7.01523454 23.33914037 3.8125 28.25 C-0.67021438 32.73271438 -4.58196935 34.00392521 -10.8203125 34.4296875 C-15.41440941 34.3288766 -18.65858577 32.92578332 -22.00390625 29.7890625 C-25.89623306 25.49343436 -28.02720066 21.89514415 -28.6875 16.0625 C-28.08405704 10.12864423 -25.89061525 5.46720719 -21.375 1.5 C-14.34681898 -3.37669704 -7.79186137 -3.82242256 0 0 Z " fill="#27C5D2" transform="translate(523.3125,282.625)"/>
<path d="M0 0 C8.44265914 6.83527672 10.17378896 14.03372589 11.34130859 24.55102539 C12.25797204 34.50219279 11.94190915 44.5421454 11.86328125 54.5234375 C11.8532252 56.7630168 11.84410402 59.00260051 11.8359375 61.2421875 C11.81414633 66.66936865 11.78087935 72.09638181 11.73828125 77.5234375 C8.76009491 78.40443485 6.2853526 78.59048914 3.19140625 78.40234375 C2.34707031 78.35400391 1.50273438 78.30566406 0.6328125 78.25585938 C-0.23988281 78.19978516 -1.11257813 78.14371094 -2.01171875 78.0859375 C-2.89988281 78.03373047 -3.78804687 77.98152344 -4.703125 77.92773438 C-6.88971071 77.79842017 -9.07579769 77.66347108 -11.26171875 77.5234375 C-11.25124512 76.24815186 -11.24077148 74.97286621 -11.22998047 73.65893555 C-11.19350675 68.88227192 -11.17071955 64.10562035 -11.15185547 59.32885742 C-11.14185983 57.26991702 -11.12825883 55.21099059 -11.11083984 53.15209961 C-11.08630613 50.1755832 -11.075171 47.19925609 -11.06640625 44.22265625 C-11.05608368 43.3169841 -11.04576111 42.41131195 -11.03512573 41.47819519 C-11.03384522 34.01799429 -11.43979527 26.24319793 -14.76171875 19.4609375 C-18.59336863 16.49140884 -22.45675525 15.7011249 -27.26171875 15.5234375 C-31.47508419 16.22433761 -33.87182354 18.06171949 -36.63671875 21.3359375 C-39.73800584 27.4192314 -39.38613164 33.67042097 -39.32421875 40.33984375 C-39.32043213 41.27392563 -39.31664551 42.20800751 -39.31274414 43.1703949 C-39.30057448 46.14229036 -39.28194689 49.11408663 -39.26171875 52.0859375 C-39.23509826 56.00390375 -39.21511808 59.92182095 -39.19921875 63.83984375 C-39.19092041 64.73578751 -39.18262207 65.63173126 -39.17407227 66.55482483 C-39.15786981 70.68069535 -39.20828789 74.49997445 -40.26171875 78.5234375 C-43.69914793 78.58146448 -47.13645128 78.61704236 -50.57421875 78.6484375 C-51.55068359 78.66519531 -52.52714844 78.68195313 -53.53320312 78.69921875 C-54.47099609 78.70566406 -55.40878906 78.71210937 -56.375 78.71875 C-57.23907471 78.72922363 -58.10314941 78.73969727 -58.9934082 78.75048828 C-61.26171875 78.5234375 -61.26171875 78.5234375 -64.26171875 76.5234375 C-63.76671875 76.0284375 -63.76671875 76.0284375 -63.26171875 75.5234375 C-63.17204133 73.09462593 -63.14673514 70.69449597 -63.1640625 68.265625 C-63.16552277 67.50630676 -63.16698303 66.74698853 -63.16848755 65.96466064 C-63.17230241 64.31076411 -63.17842819 62.6568717 -63.18655396 61.00299072 C-63.19926054 58.3898436 -63.20581838 55.7767469 -63.21069336 53.16357422 C-63.2221516 47.61683943 -63.24139501 42.07014596 -63.26171875 36.5234375 C-63.28525925 30.09881897 -63.30567201 23.67422414 -63.31765747 17.24957275 C-63.32417069 14.66748925 -63.33667919 12.08547749 -63.34936523 9.50341797 C-63.35299593 7.92936263 -63.35634789 6.35530662 -63.359375 4.78125 C-63.36454132 4.05705872 -63.36970764 3.33286743 -63.37503052 2.58673096 C-63.37521187 0.8985439 -63.32400813 -0.78952498 -63.26171875 -2.4765625 C-62.26171875 -3.4765625 -62.26171875 -3.4765625 -60.12866211 -3.59008789 C-59.21221924 -3.58485107 -58.29577637 -3.57961426 -57.3515625 -3.57421875 C-56.36220703 -3.57099609 -55.37285156 -3.56777344 -54.35351562 -3.56445312 C-53.31259766 -3.55607422 -52.27167969 -3.54769531 -51.19921875 -3.5390625 C-49.63204102 -3.53229492 -49.63204102 -3.53229492 -48.03320312 -3.52539062 C-45.44265215 -3.51356163 -42.85221316 -3.49707939 -40.26171875 -3.4765625 C-40.20748928 -2.0394816 -40.16882152 -0.60180788 -40.13671875 0.8359375 C-40.11351562 1.63644531 -40.0903125 2.43695312 -40.06640625 3.26171875 C-40.26171875 5.5234375 -40.26171875 5.5234375 -42.26171875 8.5234375 C-42.26171875 5.5534375 -42.26171875 2.5834375 -42.26171875 -0.4765625 C-48.20171875 -0.4765625 -54.14171875 -0.4765625 -60.26171875 -0.4765625 C-60.26171875 24.6034375 -60.26171875 49.6834375 -60.26171875 75.5234375 C-54.32171875 75.5234375 -48.38171875 75.5234375 -42.26171875 75.5234375 C-42.2774292 74.1415625 -42.29313965 72.7596875 -42.30932617 71.3359375 C-42.36382949 66.1847929 -42.39814304 61.03367356 -42.42651367 55.88232422 C-42.44155387 53.65734565 -42.46199121 51.43239649 -42.48803711 49.20751953 C-42.5246301 46.00025144 -42.54149325 42.79337705 -42.5546875 39.5859375 C-42.57017136 38.59916016 -42.58565521 37.61238281 -42.60160828 36.59570312 C-42.60336159 29.31937976 -41.45746011 23.93062237 -37.44921875 17.7109375 C-33.83353726 14.09525601 -30.36012529 12.37222252 -25.26171875 12.1484375 C-20.05139804 12.37713478 -16.56166209 14.11516555 -13.01171875 17.9609375 C-7.88098951 25.47379103 -8.11479851 32.99041852 -8.1640625 41.83203125 C-8.16547745 42.79875259 -8.1668924 43.76547394 -8.16835022 44.76148987 C-8.17391654 47.82800482 -8.18646276 50.89444488 -8.19921875 53.9609375 C-8.2042381 56.04882707 -8.20880025 58.13671778 -8.21289062 60.22460938 C-8.22387493 65.3242473 -8.2411162 70.42382973 -8.26171875 75.5234375 C0.15328125 75.0284375 0.15328125 75.0284375 8.73828125 74.5234375 C8.6690929 66.89169442 8.58097395 59.26048296 8.47583008 51.62915039 C8.44271652 49.0367628 8.41464303 46.44430547 8.3918457 43.85180664 C8.3580499 40.11053943 8.30572054 36.36990363 8.25 32.62890625 C8.24361008 31.48262253 8.23722015 30.33633881 8.2306366 29.15531921 C8.08169633 20.87608196 7.17730129 12.93243527 3.11328125 5.5859375 C-3.1966072 0.10629753 -9.23092008 -0.84368251 -17.38671875 -0.9140625 C-18.53261475 -0.9291687 -18.53261475 -0.9291687 -19.70166016 -0.94458008 C-26.31393399 -0.84365665 -31.1171121 0.52180463 -36.07421875 5.1484375 C-36.79609375 5.9321875 -37.51796875 6.7159375 -38.26171875 7.5234375 C-39.25171875 8.0184375 -39.25171875 8.0184375 -40.26171875 8.5234375 C-38.9101047 3.79278834 -36.35829569 1.08160035 -32.26171875 -1.4765625 C-22.230855 -6.37490258 -9.44880556 -6.16865026 0 0 Z " fill="#010B13" transform="translate(738.26171875,626.4765625)"/>
<path d="M0 0 C3.30720322 2.56328465 5.38486545 4.89241511 6.22265625 8.98828125 C6.28123138 13.57387699 5.84031253 16.9872521 3.41015625 20.92578125 C-0.93690376 25.02443784 -4.56001006 25.37501263 -10.37109375 25.23828125 C-13.56638419 24.90630302 -15.36372791 24.1093376 -17.77734375 21.98828125 C-20.14022799 18.78150979 -21.49264788 15.97402348 -21.77734375 11.98828125 C-20.79143601 6.46719789 -19.12723291 3.5288887 -14.77734375 -0.01171875 C-10.09174941 -2.79774782 -4.71690805 -2.6850092 0 0 Z " fill="#01283E" transform="translate(659.77734375,590.01171875)"/>
<path d="M0 0 C3.14959878 2.39369507 4.73232614 5.16128859 5.9375 8.9375 C6.04291068 14.10262326 4.99670882 17.68082657 1.875 21.8125 C-1.66717703 24.5076347 -4.53576621 25.81090722 -9 26 C-13.24567568 25.25257615 -16.19969338 23.69770321 -19.4375 20.875 C-21.58107869 16.93081522 -22.32263505 13.48616354 -22 9 C-20.74237861 5.15315809 -18.76012692 2.57009519 -15.5 0.125 C-9.95160191 -2.37177914 -5.677351 -2.2162921 0 0 Z " fill="#01283E" transform="translate(384,590)"/>
<path d="M0 0 C1.33708008 -0.00193359 1.33708008 -0.00193359 2.70117188 -0.00390625 C3.63380859 -0.00003906 4.56644531 0.00382813 5.52734375 0.0078125 C6.46384766 0.00394531 7.40035156 0.00007812 8.36523438 -0.00390625 C9.70038086 -0.00197266 9.70038086 -0.00197266 11.0625 0 C11.88242432 0.00112793 12.70234863 0.00225586 13.54711914 0.00341797 C15.46484375 0.1328125 15.46484375 0.1328125 16.46484375 1.1328125 C16.55986791 3.62773638 16.59041941 6.09487264 16.57836914 8.59008789 C16.57851517 9.37051956 16.57866119 10.15095123 16.57881165 10.95503235 C16.57811233 13.5468723 16.57031911 16.13864128 16.5625 18.73046875 C16.56063588 20.5226589 16.55921195 22.31484956 16.55821228 24.10704041 C16.55438659 28.83352047 16.54455587 33.55997002 16.5335083 38.28643799 C16.52329528 43.105668 16.5187149 47.92490292 16.51367188 52.74414062 C16.50293364 62.20704469 16.48585661 71.66992606 16.46484375 81.1328125 C14.06424558 82.33311158 12.57123726 82.24740993 9.89453125 82.23046875 C8.99863281 82.22724609 8.10273438 82.22402344 7.1796875 82.22070312 C5.77396484 82.20813477 5.77396484 82.20813477 4.33984375 82.1953125 C3.39496094 82.19080078 2.45007813 82.18628906 1.4765625 82.18164062 C-0.86074012 82.16983607 -3.19791686 82.15337009 -5.53515625 82.1328125 C-6.76028527 78.33033485 -6.66880343 74.55954787 -6.64868164 70.61035156 C-6.64890068 69.482938 -6.64890068 69.482938 -6.64912415 68.33274841 C-6.64842887 65.85461516 -6.64065451 63.37655758 -6.6328125 60.8984375 C-6.63094695 59.17779583 -6.62952369 57.45715362 -6.62852478 55.73651123 C-6.62471038 51.21228565 -6.61488927 46.68809227 -6.6038208 42.16387939 C-6.59358354 37.54545528 -6.5890222 32.92702595 -6.58398438 28.30859375 C-6.57326605 19.24998587 -6.55620254 10.19140186 -6.53515625 1.1328125 C-4.15076916 -0.05938104 -2.65859623 0.00365228 0 0 Z M-3.53515625 3.1328125 C-3.53515625 28.2128125 -3.53515625 53.2928125 -3.53515625 79.1328125 C2.40484375 79.1328125 8.34484375 79.1328125 14.46484375 79.1328125 C14.46484375 54.0528125 14.46484375 28.9728125 14.46484375 3.1328125 C8.52484375 3.1328125 2.58484375 3.1328125 -3.53515625 3.1328125 Z " fill="#020A13" transform="translate(370.53515625,622.8671875)"/>
<path d="M0 0 C6.93 0 13.86 0 21 0 C21 2.64 21 5.28 21 8 C20.67 8 20.34 8 20 8 C20 6.02 20 4.04 20 2 C14.39 2 8.78 2 3 2 C3 36.98 3 71.96 3 108 C8.94 108 14.88 108 21 108 C21 96.12 21 84.24 21 72 C21.33 72 21.66 72 22 72 C22 84.21 22 96.42 22 109 C15.07 109 8.14 109 1 109 C0.29516613 105.47583063 -0.12444964 102.91985312 -0.12025452 99.45048523 C-0.12162918 98.56853989 -0.12300385 97.68659454 -0.12442017 96.77792358 C-0.11902725 95.34617294 -0.11902725 95.34617294 -0.11352539 93.88549805 C-0.11367142 92.87039658 -0.11381744 91.8552951 -0.1139679 90.80943298 C-0.11327223 87.46017303 -0.10549597 84.11096896 -0.09765625 80.76171875 C-0.09579084 78.43715953 -0.09436752 76.11259992 -0.09336853 73.78804016 C-0.08955302 67.67409171 -0.07973095 61.56016708 -0.06866455 55.44622803 C-0.05842968 49.20569175 -0.05386646 42.96515163 -0.04882812 36.72460938 C-0.03810784 24.48306078 -0.02051883 12.2415361 0 0 Z " fill="#02121F" transform="translate(400,624)"/>
<path d="M0 0 C8.52051336 6.89830841 10.15514566 14.13382896 11.34130859 24.73852539 C12.18171653 33.63844777 11.94439421 42.59489007 11.86328125 51.5234375 C11.85322035 53.47395368 11.84410006 55.42447495 11.8359375 57.375 C11.81419574 62.09127459 11.77984159 66.80729764 11.73828125 71.5234375 C11.07828125 71.5234375 10.41828125 71.5234375 9.73828125 71.5234375 C9.24328125 73.0084375 9.24328125 73.0084375 8.73828125 74.5234375 C8.73241501 73.85882004 8.72654877 73.19420258 8.72050476 72.50944519 C8.65622983 65.54907584 8.57172444 58.58915436 8.47583008 51.62915039 C8.44271652 49.0367628 8.41464303 46.44430547 8.3918457 43.85180664 C8.3580499 40.11053943 8.30572054 36.36990363 8.25 32.62890625 C8.24361008 31.48262253 8.23722015 30.33633881 8.2306366 29.15531921 C8.08169633 20.87608196 7.17730129 12.93243527 3.11328125 5.5859375 C-3.1966072 0.10629753 -9.23092008 -0.84368251 -17.38671875 -0.9140625 C-18.53261475 -0.9291687 -18.53261475 -0.9291687 -19.70166016 -0.94458008 C-26.31393399 -0.84365665 -31.1171121 0.52180463 -36.07421875 5.1484375 C-37.15703125 6.3240625 -37.15703125 6.3240625 -38.26171875 7.5234375 C-39.25171875 8.0184375 -39.25171875 8.0184375 -40.26171875 8.5234375 C-38.9101047 3.79278834 -36.35829569 1.08160035 -32.26171875 -1.4765625 C-22.230855 -6.37490258 -9.44880556 -6.16865026 0 0 Z " fill="#051825" transform="translate(738.26171875,626.4765625)"/>
<path d="M0 0 C-0.90621094 0.53367187 -1.81242187 1.06734375 -2.74609375 1.6171875 C-14.74943167 8.87563383 -22.96507889 16.57354371 -28 30 C-28.4125 31.0725 -28.825 32.145 -29.25 33.25 C-33.23123637 47.84786669 -32.17304651 64.61815257 -25 78 C-16.96553602 91.80996272 -7.14517066 98.48169075 8 103 C8 103.33 8 103.66 8 104 C0.17540752 105.06698988 -6.4124366 101.396642 -12.60253906 96.81347656 C-20.59021412 90.42235703 -28.78512115 82.31559318 -31 72 C-31.24878906 71.3090625 -31.49757813 70.618125 -31.75390625 69.90625 C-35.89211548 57.59157904 -35.77202529 42.10414998 -31 30 C-30.70996094 29.22785156 -30.41992188 28.45570313 -30.12109375 27.66015625 C-26.06696273 17.73686484 -12.85041886 -4.17221392 0 0 Z " fill="#05111C" transform="translate(295,600)"/>
<path d="M0 0 C7.26 0 14.52 0 22 0 C22 25.74 22 51.48 22 78 C21.34 77.67 20.68 77.34 20 77 C20 52.25 20 27.5 20 2 C14.39 2 8.78 2 3 2 C3 13.22 3 24.44 3 36 C2.01 36.495 2.01 36.495 1 37 C0.22199319 32.20004797 -0.11851665 27.61437936 -0.09765625 22.75390625 C-0.0962413 22.09792953 -0.09482635 21.44195282 -0.09336853 20.76609802 C-0.08783031 18.69818298 -0.07529002 16.63038158 -0.0625 14.5625 C-0.05747699 13.14909012 -0.0529155 11.73567852 -0.04882812 10.32226562 C-0.03873771 6.88143282 -0.01915125 3.44084162 0 0 Z " fill="#010E19" transform="translate(640,624)"/>
<path d="M0 0 C0.69931641 -0.02449219 1.39863281 -0.04898438 2.11914062 -0.07421875 C8.15803977 -0.10811341 11.47397486 1.99196831 16.015625 5.98046875 C21.00956269 11.53691041 22.17837798 17.09570931 22.4375 24.4375 C21.88809007 33.09070645 19.55106237 38.48034884 13.8125 45.125 C8.73568664 49.47655431 3.43342496 49.88147 -3.05859375 49.7578125 C-8.74324934 48.96760506 -12.39418139 45.8660529 -16.25 41.8125 C-17.69680074 39.55549085 -18.62827344 38.04628505 -18.8125 35.375 C-18.1525 34.715 -17.4925 34.055 -16.8125 33.375 C-16.59335937 33.90609375 -16.37421875 34.4371875 -16.1484375 34.984375 C-13.89153959 40.01193619 -11.99744711 42.97456152 -6.8125 45.375 C-0.26950887 46.95585692 5.28813012 46.73290027 11.1875 43.375 C16.5235921 39.46186579 17.94665569 34.63693521 19.1875 28.375 C20.22800882 20.80636738 17.90523738 12.96817489 14.1875 6.375 C8.70497038 2.57940257 1.72116052 1.88337103 -4.703125 2.8359375 C-8.89859295 3.90811264 -11.75817662 6.00358688 -14.37109375 9.40234375 C-16.38201698 13.54953232 -16.88076946 17.64985979 -17.5 22.1875 C-17.62955078 23.07115234 -17.75910156 23.95480469 -17.89257812 24.86523438 C-18.20909129 27.03393571 -18.51539706 29.20356917 -18.8125 31.375 C-21.76847299 26.94104052 -21.26337227 22.9613673 -20.3828125 17.91015625 C-17.70430016 7.17957287 -11.28302312 0.02045879 0 0 Z " fill="#04111C" transform="translate(440.8125,639.625)"/>
<path d="M0 0 C7.26 0 14.52 0 22 0 C22 26.73 22 53.46 22 81 C19.17588235 81.94137255 17.47081968 82.11725382 14.55078125 82.09765625 C13.70322266 82.09443359 12.85566406 82.09121094 11.98242188 82.08789062 C10.66081055 82.07532227 10.66081055 82.07532227 9.3125 82.0625 C8.41982422 82.05798828 7.52714844 82.05347656 6.60742188 82.04882812 C4.40488013 82.03704983 2.20247401 82.02060164 0 82 C-1.1302932 72.59448238 -1.11666086 63.26612478 -1.0625 53.8125 C-1.05747197 52.27278792 -1.05291138 50.73307425 -1.04882812 49.19335938 C-1.03793264 45.46220572 -1.02074082 41.73111346 -1 38 C0.485 37.505 0.485 37.505 2 37 C2 50.86 2 64.72 2 79 C8.27 79 14.54 79 21 79 C21 53.26 21 27.52 21 1 C14.07 1 7.14 1 0 1 C0 0.67 0 0.34 0 0 Z " fill="#0A293C" transform="translate(641,623)"/>
<path d="M0 0 C7.50656278 0.54900318 14.21314857 4.58472876 19.8125 9.4375 C20.8953125 10.7059375 20.8953125 10.7059375 22 12 C22.51304687 12.58136719 23.02609375 13.16273438 23.5546875 13.76171875 C25.89707576 16.43473118 28.02431226 19.03646839 30 22 C29.82739258 24.06518555 29.82739258 24.06518555 29 26 C26.54953337 27.48092133 24.28491084 28.66322467 21.6875 29.8125 C20.67139648 30.29879883 20.67139648 30.29879883 19.63476562 30.79492188 C15.98782008 32.4597543 13.80342296 33.37547214 10 32 C8.6484375 30.546875 8.6484375 30.546875 7.375 28.75 C2.73790286 23.16937441 -2.42893664 20.47281033 -9.62890625 19.51953125 C-18.75776585 19.17869593 -25.87820081 20.42260029 -32.80078125 26.609375 C-37.66936784 31.87662997 -40.50519008 38.34717355 -43 45 C-43.33 45 -43.66 45 -44 45 C-43.30417524 36.65010288 -40.34756704 30.59190429 -34 25 C-33.05125 24.13375 -32.1025 23.2675 -31.125 22.375 C-23.18975723 16.3442155 -15.85584996 15.89803976 -6 17 C1.11268678 19.23594164 5.74663967 23.22610202 10.5625 28.8125 C12.20321546 30.42458763 12.20321546 30.42458763 16 30 C16 29.34 16 28.68 16 28 C19.3 26.68 22.6 25.36 26 24 C26 19.23521095 23.08173962 16.46285028 20 13 C13.92797875 7.41170371 6.27637445 3.06791928 -2 2 C-1.34 1.34 -0.68 0.68 0 0 Z " fill="#04121C" transform="translate(328,596)"/>
<path d="M0 0 C4.96967941 0.24242339 7.75958909 1.78649732 11.32421875 5.05078125 C16.68759544 11.28930099 19.08002314 18.59577962 19.20532227 26.68652344 C19.22526749 27.82740417 19.24521271 28.96828491 19.26576233 30.14373779 C19.28247482 31.36989807 19.29918732 32.59605835 19.31640625 33.859375 C19.33718735 35.11888977 19.35796844 36.37840454 19.37937927 37.67608643 C19.43366302 41.01658871 19.48392069 44.35710222 19.53222656 47.69769287 C19.58255704 51.10971393 19.6381827 54.52164823 19.69335938 57.93359375 C19.80045114 64.62232664 19.9022354 71.31112463 20 78 C16.11436275 79.29521242 12.42199731 79.14503464 8.375 79.125 C7.58609375 79.12886719 6.7971875 79.13273438 5.984375 79.13671875 C0.12665394 79.12665394 0.12665394 79.12665394 -1 78 C-1.14115161 75.32941149 -1.04247107 72.67567762 -1 70 C-0.01 69.505 -0.01 69.505 1 69 C1 71.64 1 74.28 1 77 C6.28 77 11.56 77 17 77 C16.9308707 69.34994554 16.84277947 61.70042446 16.73754883 54.05078125 C16.70441196 51.45155786 16.67634551 48.85226447 16.65356445 46.25292969 C16.61981202 42.50425542 16.56748414 38.75621629 16.51171875 35.0078125 C16.50532883 33.85636749 16.4989389 32.70492249 16.49235535 31.51858521 C16.32393452 22.1558268 15.33101244 13.47543787 8.6953125 6.40625 C6.00006906 4.1705642 3.30418681 3.12342351 0 2 C0 1.34 0 0.68 0 0 Z " fill="#020B13" transform="translate(607,626)"/>
<path d="M0 0 C2.64 0 5.28 0 8 0 C8 6.27 8 12.54 8 19 C1.4 19.33 -5.2 19.66 -12 20 C-12.0459449 25.0539389 -12.08575997 30.10715137 -12.10986328 35.16113281 C-12.1199127 36.87990781 -12.13355445 38.59866575 -12.15087891 40.31738281 C-12.17517391 42.78975641 -12.18649368 45.26190369 -12.1953125 47.734375 C-12.20563507 48.50118591 -12.21595764 49.26799683 -12.22659302 50.05804443 C-12.25366974 55.35563189 -12.25366974 55.35563189 -10 60 C-7.60540353 61.12891757 -7.60540353 61.12891757 -4.875 61.75 C-3.96492187 61.99234375 -3.05484375 62.2346875 -2.1171875 62.484375 C-1.41851563 62.65453125 -0.71984375 62.8246875 0 63 C-0.495 63.99 -0.495 63.99 -1 65 C-5.03645882 65.31658501 -7.32333195 65.4210379 -10.8125 63.25 C-13.97613949 59.99597081 -15.25579327 57.41533599 -15.22705078 52.87402344 C-15.22689972 52.07349548 -15.22674866 51.27296753 -15.22659302 50.44818115 C-15.21110916 49.16672211 -15.21110916 49.16672211 -15.1953125 47.859375 C-15.1924826 46.97719299 -15.18965271 46.09501099 -15.18673706 45.18609619 C-15.17555961 42.37392501 -15.15045951 39.5620746 -15.125 36.75 C-15.11496705 34.84115044 -15.10584175 32.93229588 -15.09765625 31.0234375 C-15.07733146 26.34873592 -15.03817834 21.67472619 -15 17 C-8.07 17 -1.14 17 6 17 C6 11.72 6 6.44 6 1 C4.02 1 2.04 1 0 1 C0 0.67 0 0.34 0 0 Z " fill="#04121D" transform="translate(536,624)"/>
<path d="M0 0 C3.30527376 2.08375954 4.52032774 3.14691625 5.875 6.8125 C6.09825369 9.8314987 6.05266139 12.79225635 5.875 15.8125 C2.90551422 17.53198485 0.96047775 18.03289127 -2.453125 17.7890625 C-3.25234375 17.7375 -4.0515625 17.6859375 -4.875 17.6328125 C-5.7 17.56835938 -6.525 17.50390625 -7.375 17.4375 C-8.21546875 17.38078125 -9.0559375 17.3240625 -9.921875 17.265625 C-11.99029042 17.12459668 -14.0577646 16.96988212 -16.125 16.8125 C-12.33336973 14.28474649 -9.31625969 14.58806965 -4.9375 14.6875 C-4.18791016 14.69652344 -3.43832031 14.70554687 -2.66601562 14.71484375 C-0.81887346 14.73837422 1.02810412 14.77424439 2.875 14.8125 C2.78753716 13.37388706 2.67934652 11.93652492 2.5625 10.5 C2.50449219 9.69949219 2.44648437 8.89898438 2.38671875 8.07421875 C1.77658306 5.37751217 1.04994983 4.48164755 -1.125 2.8125 C-7.36251647 0.51446761 -12.87223353 0.2560592 -19.125 2.8125 C-21.73802809 5.80792245 -22.87903369 8.07460107 -24.125 11.8125 C-30.395 11.4825 -36.665 11.1525 -43.125 10.8125 C-43.125 8.5025 -43.125 6.1925 -43.125 3.8125 C-42.465 3.8125 -41.805 3.8125 -41.125 3.8125 C-40.795 5.1325 -40.465 6.4525 -40.125 7.8125 C-37.85578464 7.94739391 -35.5842933 8.04443995 -33.3125 8.125 C-32.04792969 8.18300781 -30.78335938 8.24101563 -29.48046875 8.30078125 C-25.9680866 8.18730432 -25.9680866 8.18730432 -24.26953125 5.40234375 C-23.89183594 4.54769531 -23.51414062 3.69304688 -23.125 2.8125 C-17.97753236 -3.19287891 -6.97047468 -2.64758373 0 0 Z " fill="#061825" transform="translate(600.125,640.1875)"/>
<path d="M0 0 C0.33 0 0.66 0 1 0 C1.03738281 0.94359375 1.07476562 1.8871875 1.11328125 2.859375 C1.92974836 18.80449741 4.80319714 31.38403699 16.75 42.875 C26.64501692 51.23045991 38.70075842 54.60585359 51.58203125 54.25390625 C58.3376563 53.54451105 65.26925169 52.32299897 71.125 48.75 C72.07375 48.1725 73.0225 47.595 74 47 C75.485 47.495 75.485 47.495 77 48 C74.94178919 49.15416506 72.87900528 50.29835847 70.8125 51.4375 C69.66394531 52.07558594 68.51539063 52.71367187 67.33203125 53.37109375 C57.31641387 58.26735688 42.31474351 57.37031442 31.8125 54.375 C26.26753489 52.36317292 21.64883843 49.59787903 17 46 C15.96875 45.278125 14.9375 44.55625 13.875 43.8125 C4.93265461 36.03762748 0.24488062 23.68814599 -0.8125 12.1875 C-1.09221643 7.93897682 -0.81836381 4.17927777 0 0 Z " fill="#17ADCA" transform="translate(475,410)"/>
<path d="M0 0 C0.3221077 6.03653699 0.56806924 10.83245145 -3 16 C-7.31578947 20 -7.31578947 20 -10 20 C-9 17 -9 17 -6.5625 14.9375 C-3.08237594 10.94808949 -2.66884354 7.14111077 -2 2 C-14.84098913 1.36146601 -14.84098913 1.36146601 -27 5 C-29.48038907 8.7205836 -29.46337203 10.59796571 -29 15 C-26.70612462 18.17832982 -25.44743818 18.92104032 -21.546875 19.609375 C-19.66742187 19.67898438 -19.66742187 19.67898438 -17.75 19.75 C-16.48671875 19.80671875 -15.2234375 19.8634375 -13.921875 19.921875 C-12.47554687 19.96054687 -12.47554687 19.96054687 -11 20 C-13.75337973 22.75337973 -15.4721524 22.33150795 -19.3125 22.375 C-20.44300781 22.40335938 -21.57351563 22.43171875 -22.73828125 22.4609375 C-26.62419296 21.91179069 -28.22716004 20.71728215 -31 18 C-32.74527825 14.5094435 -32.56109043 10.80881386 -32 7 C-29.10147118 2.69895723 -25.51454873 0.93427034 -20.671875 -0.50390625 C-13.85145923 -1.77027 -6.74988766 -1.5499742 0 0 Z " fill="#04131E" transform="translate(606,669)"/>
<path d="M0 0 C3.30720322 2.56328465 5.38486545 4.89241511 6.22265625 8.98828125 C6.28123138 13.57387699 5.84031253 16.9872521 3.41015625 20.92578125 C-0.93690376 25.02443784 -4.56001006 25.37501263 -10.37109375 25.23828125 C-13.56638419 24.90630302 -15.36372791 24.1093376 -17.77734375 21.98828125 C-20.14022799 18.78150979 -21.49264788 15.97402348 -21.77734375 11.98828125 C-20.79143601 6.46719789 -19.12723291 3.5288887 -14.77734375 -0.01171875 C-10.09174941 -2.79774782 -4.71690805 -2.6850092 0 0 Z M-17.77734375 4.98828125 C-19.62597063 8.685535 -19.25321469 12.95289567 -18.77734375 16.98828125 C-16.98087521 19.9225132 -15.83323665 21.4603348 -12.77734375 22.98828125 C-8.46253225 23.42908714 -4.83050241 23.4588415 -0.83984375 21.67578125 C1.8021742 19.5141302 3.09886131 17.84181475 3.59375 14.4296875 C3.91637337 8.34075638 3.91637337 8.34075638 0.84765625 3.36328125 C-6.23399244 -0.34615378 -11.50470078 -0.21342267 -17.77734375 4.98828125 Z " fill="#05131E" transform="translate(659.77734375,590.01171875)"/>
<path d="M0 0 C0.66 0.33 1.32 0.66 2 1 C2 14.53 2 28.06 2 42 C7.94 42 13.88 42 20 42 C20 30.12 20 18.24 20 6 C20.33 6 20.66 6 21 6 C21 18.21 21 30.42 21 43 C14.07 43 7.14 43 0 43 C-0.86777278 38.66113611 -1.12893421 35.11094108 -1.1328125 30.72265625 C-1.13376923 30.03368759 -1.13472595 29.34471893 -1.13571167 28.63487244 C-1.13638954 27.18341988 -1.13456276 25.73196424 -1.13037109 24.28051758 C-1.12502545 22.07300925 -1.13032518 19.86570512 -1.13671875 17.65820312 C-1.13605774 16.24218706 -1.1347761 14.82617111 -1.1328125 13.41015625 C-1.13168457 12.13277588 -1.13055664 10.85539551 -1.12939453 9.53930664 C-1.0097052 6.26546466 -0.6225599 3.21202578 0 0 Z " fill="#010913" transform="translate(401,690)"/>
<path d="M0 0 C0.91644287 0.00523682 1.83288574 0.01047363 2.77709961 0.01586914 C3.76645508 0.0190918 4.75581055 0.02231445 5.77514648 0.02563477 C6.81606445 0.03401367 7.85698242 0.04239258 8.92944336 0.05102539 C10.49662109 0.05779297 10.49662109 0.05779297 12.09545898 0.06469727 C14.68600996 0.07652627 17.27644895 0.0930085 19.86694336 0.11352539 C19.92117283 1.5506063 19.95984059 2.98828001 19.99194336 4.42602539 C20.01514648 5.2265332 20.03834961 6.02704102 20.06225586 6.85180664 C19.86694336 9.11352539 19.86694336 9.11352539 17.86694336 12.11352539 C17.86694336 9.14352539 17.86694336 6.17352539 17.86694336 3.11352539 C11.92694336 3.11352539 5.98694336 3.11352539 -0.13305664 3.11352539 C-0.13305664 10.37352539 -0.13305664 17.63352539 -0.13305664 25.11352539 C-1.12305664 24.78352539 -2.11305664 24.45352539 -3.13305664 24.11352539 C-3.161929 20.30104113 -3.17981156 16.48858469 -3.19555664 12.67602539 C-3.20393555 11.58741211 -3.21231445 10.49879883 -3.22094727 9.37719727 C-3.22416992 8.34272461 -3.22739258 7.30825195 -3.23071289 6.24243164 C-3.23594971 5.28409424 -3.24118652 4.32575684 -3.24658203 3.33837891 C-3.09613687 0.3899773 -2.9462974 0.15680763 0 0 Z " fill="#051521" transform="translate(678.133056640625,622.886474609375)"/>
<path d="M0 0 C0.66 0 1.32 0 2 0 C1.17404002 6.73935462 -3.12272466 10.5977405 -8 15 C-19.33055114 23.07964871 -31.94546952 27.40086006 -46 26 C-49.6875 25 -49.6875 25 -52 24 C-52 23.67 -52 23.34 -52 23 C-51.07888428 22.97812622 -51.07888428 22.97812622 -50.13916016 22.95581055 C-47.30054015 22.88038055 -44.46297742 22.78404224 -41.625 22.6875 C-40.65949219 22.66494141 -39.69398438 22.64238281 -38.69921875 22.61914062 C-25.22603996 22.12180852 -13.77502038 17.66726804 -4.40625 7.74609375 C-2.47848118 5.35244746 -1.17354442 2.830313 0 0 Z " fill="#04101A" transform="translate(356,681)"/>
<path d="M0 0 C1.47566404 2.76922485 2.46090882 5.42297171 3.3125 8.4375 C4.72819215 12.72683591 6.35570801 15.18395619 10 18 C20.80181203 23.40090602 30.48823145 22.40994033 42 20 C42 17.36 42 14.72 42 12 C42.66 12.33 43.32 12.66 44 13 C44 15.64 44 18.28 44 21 C34.03423689 25.58425103 23.52028666 26.60002717 13 23 C7.45365711 20.39400556 3.97590913 17.47567281 1 12 C0.03929566 9.11788698 -0.10581883 7.30149956 -0.0625 4.3125 C-0.05347656 3.50425781 -0.04445313 2.69601562 -0.03515625 1.86328125 C-0.02355469 1.24839844 -0.01195312 0.63351562 0 0 Z " fill="#05121D" transform="translate(502,682)"/>
<path d="M0 0 C7.26 0 14.52 0 22 0 C22 6.27 22 12.54 22 19 C21.67 19 21.34 19 21 19 C21 13.72 21 8.44 21 3 C15.06 3 9.12 3 3 3 C3 8.61 3 14.22 3 20 C2.01 20.33 1.02 20.66 0 21 C-0.66 20.67 -1.32 20.34 -2 20 C-2 19.34 -2 18.68 -2 18 C-1.01 18 -0.02 18 1 18 C0.9278125 16.95199219 0.855625 15.90398438 0.78125 14.82421875 C0.6874471 13.4453161 0.59370001 12.06640965 0.5 10.6875 C0.45230469 9.99720703 0.40460938 9.30691406 0.35546875 8.59570312 C0.16120511 5.72337641 0 2.87986212 0 0 Z " fill="#02101D" transform="translate(500,605)"/>
<path d="M0 0 C2.24938737 2.24938737 3.00695327 4.08298368 4.25 7 C13.29140038 27.09490432 27.65760813 40.83527126 47.84765625 49.58984375 C51 51 51 51 54 53 C41.85981095 51.78135332 31.95181068 44.86407014 23 37 C22.45794922 36.56655273 21.91589844 36.13310547 21.35742188 35.68652344 C16.87747666 32.04443057 13.58188065 28.16184751 10.375 23.375 C9.90280029 22.67930908 9.43060059 21.98361816 8.9440918 21.2668457 C4.8057422 15.01020037 0 7.69791502 0 0 Z " fill="#14A7C6" transform="translate(448,441)"/>
<path d="M0 0 C10.32667112 -0.61685867 20.23622542 0.60711314 28.33203125 7.484375 C29.15767578 8.23460937 29.15767578 8.23460937 30 9 C30.86625 9.70125 31.7325 10.4025 32.625 11.125 C36.94721742 16.35715793 41.38928916 23.24830937 41.375 30.25 C41.189375 31.61125 41.189375 31.61125 41 33 C39.51325049 30.18096846 38.4540308 27.39021696 37.4375 24.375 C34.56225247 17.12250995 29.21437961 10.81925856 22.6875 6.5 C15.09851685 3.41295601 7.13408297 2.68715066 -1 3 C-0.67 2.01 -0.34 1.02 0 0 Z " fill="#051723" transform="translate(441,622)"/>
<path d="M0 0 C1.46751239 0.00399142 2.93502584 0.01874717 4.40234375 0.04296875 C5.14806641 0.04361328 5.89378906 0.04425781 6.66210938 0.04492188 C12.19956216 0.09018716 12.19956216 0.09018716 13.33984375 1.23046875 C13.43486791 3.72539263 13.46541941 6.19252889 13.45336914 8.68774414 C13.45351517 9.46817581 13.45366119 10.24860748 13.45381165 11.0526886 C13.45311233 13.64452855 13.44531911 16.23629753 13.4375 18.828125 C13.43563588 20.62031515 13.43421195 22.41250581 13.43321228 24.20469666 C13.42938659 28.93117672 13.41955587 33.65762627 13.4085083 38.38409424 C13.39829528 43.20332425 13.3937149 48.02255917 13.38867188 52.84179688 C13.37793364 62.30470094 13.36085661 71.76758231 13.33984375 81.23046875 C13.00984375 81.23046875 12.67984375 81.23046875 12.33984375 81.23046875 C12.00984375 55.16046875 11.67984375 29.09046875 11.33984375 2.23046875 C5.72984375 2.23046875 0.11984375 2.23046875 -5.66015625 2.23046875 C-3.66015625 0.23046875 -3.66015625 0.23046875 0 0 Z " fill="#071927" transform="translate(373.66015625,622.76953125)"/>
<path d="M0 0 C0.66 0 1.32 0 2 0 C2.64756245 14.01253187 1.49447395 26.83258671 -8 38 C-12.04749736 42.21448645 -15.07187304 45.17807598 -21 46 C-18.82275348 43.75513713 -16.52707451 41.75017099 -14.125 39.75 C-1.82232696 28.93719195 -1.35081888 15.47879511 0 0 Z " fill="#04121B" transform="translate(482,656)"/>
<path d="M0 0 C0.66 0.33 1.32 0.66 2 1 C-2.76182123 7.60510687 -9.46755517 12.20174356 -17.5703125 13.91015625 C-25.90339859 14.21829287 -34.7844469 11.93777612 -41.6796875 7.28125 C-43 6 -43 6 -44 3 C-42.02898938 3.96703388 -40.09076274 4.94711231 -38.19335938 6.05273438 C-32.8930601 9.03590176 -28.52379412 9.61602814 -22.5 9.5 C-21.29537109 9.52320313 -21.29537109 9.52320313 -20.06640625 9.546875 C-14.11409666 9.50828628 -10.09253972 7.96743666 -5 5 C-4.28521484 4.68869141 -3.57042969 4.37738281 -2.83398438 4.05664062 C-0.65488087 3.0715534 -0.65488087 3.0715534 0 0 Z " fill="#061724" transform="translate(604,694)"/>
<path d="M0 0 C4.155546 2.73888259 6.88293672 6.21212337 8.75 10.8125 C8.7265625 13.171875 8.7265625 13.171875 8.375 15.5625 C8.20871094 16.76132812 8.20871094 16.76132812 8.0390625 17.984375 C7.94367187 18.58765625 7.84828125 19.1909375 7.75 19.8125 C7.42 19.8125 7.09 19.8125 6.75 19.8125 C6.65203125 19.07644531 6.5540625 18.34039063 6.453125 17.58203125 C5.46244877 9.75168283 5.46244877 9.75168283 0.75 3.8125 C-3.86222238 2.08191045 -8.38622793 1.09303195 -13.125 2.8125 C-17.78736707 5.79641493 -19.80195612 8.79630253 -21 14.1875 C-21.0825 15.05375 -21.165 15.92 -21.25 16.8125 C-22.375 15.1875 -22.375 15.1875 -23.25 12.8125 C-22.02075937 7.03506906 -19.41761953 3.24115833 -14.5 0 C-9.27097821 -1.91060412 -5.22902179 -1.91060412 0 0 Z " fill="#061521" transform="translate(720.25,640.1875)"/>
<path d="M0 0 C2.1875 -0.375 2.1875 -0.375 5 0 C8.09420835 2.95356252 9.64365825 4.88346252 10.9375 8.9375 C11.04291068 14.10262326 9.99670882 17.68082657 6.875 21.8125 C3.3450324 24.49834491 0.4560869 25.83647388 -4 26 C-7.99277938 25.12986882 -11.09824727 23.90175273 -14 21 C-13.505 19.515 -13.505 19.515 -13 18 C-12.360625 18.66 -11.72125 19.32 -11.0625 20 C-6.45528476 23.00879363 -2.09284656 22.55484459 3.19921875 21.60546875 C5.20476712 21.14323763 5.20476712 21.14323763 6.25 19 C7.26846707 14.92613172 7.76286797 11.16178467 7 7 C4.77023837 4.01880459 4.77023837 4.01880459 2 2 C1.34 1.34 0.68 0.68 0 0 Z " fill="#061623" transform="translate(379,590)"/>
<path d="M0 0 C-3.56399578 2.37599719 -7.08381174 3.15731805 -11.1875 4.125 C-11.93708984 4.30675781 -12.68667969 4.48851562 -13.45898438 4.67578125 C-15.30470781 5.12251686 -17.15219132 5.5619694 -19 6 C-19 6.66 -19 7.32 -19 8 C-20.66666667 9.66666667 -22.33333333 11.33333333 -24 13 C-26.02196673 16.27847462 -26.54950402 19.46816927 -27.125 23.25 C-27.29257812 24.32765625 -27.46015625 25.4053125 -27.6328125 26.515625 C-27.75398437 27.33546875 -27.87515625 28.1553125 -28 29 C-28.66 28.67 -29.32 28.34 -30 28 C-30.54508089 20.64140795 -29.2665986 14.05508791 -24.52734375 8.171875 C-17.54293493 1.63327951 -9.35863941 -0.60378319 0 0 Z " fill="#03111C" transform="translate(583,657)"/>
<path d="M0 0 C1.97956441 0.14033111 3.95865141 0.2874123 5.9375 0.4375 C7.03964844 0.51871094 8.14179688 0.59992187 9.27734375 0.68359375 C12 1 12 1 13 2 C13.11338371 4.54684578 13.16417775 7.06553739 13.16796875 9.61328125 C13.17129715 10.37924118 13.17462555 11.14520111 13.17805481 11.93437195 C13.18312831 13.55935057 13.18546301 15.18433964 13.18530273 16.80932617 C13.18748172 19.29168018 13.20561174 21.77358454 13.22460938 24.25585938 C13.22754474 25.83333181 13.22952858 27.41080636 13.23046875 28.98828125 C13.23765427 29.73008133 13.24483978 30.47188141 13.25224304 31.23616028 C13.23571042 34.98262589 13.09009875 37.82058547 11 41 C10.02760905 32.17851796 10.01917678 23.60691236 10.4375 14.75 C10.48970703 13.51636719 10.54191406 12.28273438 10.59570312 11.01171875 C10.72378911 8.00752027 10.86093933 5.00371048 11 2 C7.37 2 3.74 2 0 2 C0 1.34 0 0.68 0 0 Z " fill="#010912" transform="translate(490,640)"/>
<path d="M0 0 C0.99 0.33 1.98 0.66 3 1 C5.73289293 1.22797562 8.45042204 1.41668187 11.1875 1.5625 C11.93708984 1.60568359 12.68667969 1.64886719 13.45898438 1.69335938 C15.30578375 1.79922685 17.15286834 1.9000976 19 2 C19 2.33 19 2.66 19 3 C13.06 3 7.12 3 1 3 C1 13.23 1 23.46 1 34 C0.67 34 0.34 34 0 34 C0 30.37 0 26.74 0 23 C-0.66 22.67 -1.32 22.34 -2 22 C-2 15.07 -2 8.14 -2 1 C-1.34 0.67 -0.68 0.34 0 0 Z " fill="#03101D" transform="translate(366,623)"/>
<path d="M0 0 C0.33 0 0.66 0 1 0 C1.45518575 6.37260053 0.67079955 10.692683 -3 16 C-6.61704153 20.11738157 -10.61297621 22.0712028 -16 23 C-22.41617832 22.9875414 -27.59131258 21.21852789 -32.375 16.8125 C-32.91125 16.214375 -33.4475 15.61625 -34 15 C-33.67 14.34 -33.34 13.68 -33 13 C-32.54109375 13.42152344 -32.0821875 13.84304688 -31.609375 14.27734375 C-30.99578125 14.82519531 -30.3821875 15.37304688 -29.75 15.9375 C-28.84507812 16.75541016 -28.84507812 16.75541016 -27.921875 17.58984375 C-23.87077064 20.56230041 -18.87019022 20.60877378 -14 20 C-10.16397449 18.90895651 -7.10457509 17.47712408 -4.6796875 14.234375 C-2.27879115 9.71713299 -1.06695921 4.97914299 0 0 Z " fill="#19A1C1" transform="translate(465,512)"/>
<path d="M0 0 C0.56847656 0.40992188 1.13695312 0.81984375 1.72265625 1.2421875 C11.32665397 7.9441425 19.1493715 8.86731844 30.5 7 C32.33448463 6.67306214 34.16824992 6.34192668 36 6 C33.68251595 9.47622607 32.24866428 9.79775579 28.27734375 10.65234375 C18.01193476 12.21944735 10.2749572 10.20693964 1.6875 4.53515625 C1.130625 4.02855469 0.57375 3.52195312 0 3 C0 2.01 0 1.02 0 0 Z " fill="#05141F" transform="translate(424,696)"/>
<path d="M0 0 C3.85025879 0.60355408 6.86101159 1.76772603 10.3125 3.5625 C11.19550781 4.01753906 12.07851563 4.47257813 12.98828125 4.94140625 C13.98408203 5.46541016 13.98408203 5.46541016 15 6 C15 6.66 15 7.32 15 8 C11.88746417 7.54227414 9.74650195 6.86549083 6.9375 5.375 C4.22923277 3.85427059 4.22923277 3.85427059 1.9375 4 C-0.90684977 5.46805149 -2.77115067 7.71808283 -5 10 C-6.94941004 11.43786273 -8.94616165 12.71038057 -11 14 C-11.66 13.67 -12.32 13.34 -13 13 C-12.39671875 12.56429687 -11.7934375 12.12859375 -11.171875 11.6796875 C-6.45218947 8.16276054 -2.88845042 5.14897684 0 0 Z " fill="#04141F" transform="translate(339,672)"/>
<path d="M0 0 C3.5625 0.3125 3.5625 0.3125 6.5625 3.3125 C3.5925 3.3125 0.6225 3.3125 -2.4375 3.3125 C-2.42589844 4.29992187 -2.41429687 5.28734375 -2.40234375 6.3046875 C-2.39332031 7.58601562 -2.38429688 8.86734375 -2.375 10.1875 C-2.36339844 11.46367188 -2.35179687 12.73984375 -2.33984375 14.0546875 C-2.4375 17.3125 -2.4375 17.3125 -3.4375 19.3125 C0.1925 19.3125 3.8225 19.3125 7.5625 19.3125 C7.5625 19.6425 7.5625 19.9725 7.5625 20.3125 C3.6025 20.3125 -0.3575 20.3125 -4.4375 20.3125 C-6.01727708 17.15294583 -5.62197084 13.77786183 -5.625 10.3125 C-5.63724609 9.57515625 -5.64949219 8.8378125 -5.66210938 8.078125 C-5.66737395 6.15479942 -5.55953447 4.23195737 -5.4375 2.3125 C-3.4375 0.3125 -3.4375 0.3125 0 0 Z " fill="#061E2E" transform="translate(493.4375,622.6875)"/>
<path d="M0 0 C4.96967941 0.24242339 7.75958909 1.78649732 11.32421875 5.05078125 C17.47968961 12.21064129 19.15183155 19.89010696 19 29 C18.67 29 18.34 29 18 29 C18 26.69 18 24.38 18 22 C17.34 22 16.68 22 16 22 C15.77957031 21.03900391 15.77957031 21.03900391 15.5546875 20.05859375 C13.94822177 13.86354488 12.00688627 9.15317755 7 5 C4.67868047 3.69484043 2.53822462 2.86299637 0 2 C0 1.34 0 0.68 0 0 Z " fill="#041522" transform="translate(607,626)"/>
<path d="M0 0 C3.29762907 1.87711193 5.53145768 4.14810487 7.375 7.5 C8.02563876 10.10255504 8.15267661 12.32815927 8 15 C7.01 14.67 6.02 14.34 5 14 C4.95875 12.9275 4.9175 11.855 4.875 10.75 C4.32728737 6.88131876 4.32728737 6.88131876 1.5 4.5625 C-2.38811132 2.82673602 -4.87941179 2.72866147 -9.046875 3.0546875 C-11 3 -11 3 -13 1 C-8.63386888 -1.31950716 -4.67449638 -1.41790008 0 0 Z " fill="#08202E" transform="translate(658,589)"/>
<path d="M0 0 C0 5.61 0 11.22 0 17 C5.94 17 11.88 17 18 17 C18 17.33 18 17.66 18 18 C16.96359375 18.06058594 15.9271875 18.12117187 14.859375 18.18359375 C13.48957127 18.26803371 12.11978025 18.35267997 10.75 18.4375 C10.06808594 18.47681641 9.38617187 18.51613281 8.68359375 18.55664062 C5.9368323 18.72997994 3.35624118 18.89761095 0.703125 19.66015625 C-1 20 -1 20 -4 18 C-3.67 17.67 -3.34 17.34 -3 17 C-2.92680379 14.30345146 -2.90757463 11.63308542 -2.9375 8.9375 C-2.94201172 8.17888672 -2.94652344 7.42027344 -2.95117188 6.63867188 C-2.9629932 4.75908129 -2.98092922 2.87953101 -3 1 C-1 0 -1 0 0 0 Z " fill="#010A14" transform="translate(678,685)"/>
<path d="M0 0 C2.75123649 1.37561824 2.76115225 2.7538719 3.75 5.625 C6.8903399 13.74816705 11.84162294 18.27547114 19 23 C18.67 23.66 18.34 24.32 18 25 C9.12703632 19.79452798 3.39181979 13.79859052 0 4 C0 2.68 0 1.36 0 0 Z " fill="#04121D" transform="translate(284,661)"/>
<path d="M0 0 C0 0.66 0 1.32 0 2 C-8.91 1.67 -17.82 1.34 -27 1 C-26.67 0.34 -26.34 -0.32 -26 -1 C-16.94122088 -2.84873043 -8.92760411 -1.83803614 0 0 Z " fill="#051825" transform="translate(606,624)"/>
<path d="M0 0 C-5.85895498 3.90596998 -13.15662284 3.43594847 -20 3 C-23.6875 2 -23.6875 2 -26 1 C-26 0.67 -26 0.34 -26 0 C-22.41713181 -0.19720979 -18.83369943 -0.38107522 -15.25 -0.5625 C-14.23421875 -0.61857422 -13.2184375 -0.67464844 -12.171875 -0.73242188 C-11.1921875 -0.78076172 -10.2125 -0.82910156 -9.203125 -0.87890625 C-8.30239258 -0.9260376 -7.40166016 -0.97316895 -6.47363281 -1.02172852 C-4.12542592 -1.00110175 -2.23793298 -0.67823071 0 0 Z " fill="#061724" transform="translate(330,704)"/>
<path d="M0 0 C4.34922269 2.09269106 6.77930892 4.30841731 9.375 8.375 C9.045 9.365 8.715 10.355 8.375 11.375 C7.67375 10.281875 6.9725 9.18875 6.25 8.0625 C3.65934491 4.50754551 1.67792335 2.72962402 -2.625 1.375 C-7.74956988 0.76311106 -12.70986391 0.28813178 -17.125 3.3125 C-18.3625 4.3334375 -18.3625 4.3334375 -19.625 5.375 C-20.615 5.705 -21.605 6.035 -22.625 6.375 C-21.38198061 2.64594183 -20.42607151 2.41088642 -17 0.6875 C-10.76010376 -2.23330249 -6.43155892 -2.5111688 0 0 Z " fill="#1EB5C3" transform="translate(421.625,330.625)"/>
<path d="M0 0 C0.33 0 0.66 0 1 0 C1 2.31 1 4.62 1 7 C1.83789062 6.83628906 2.67578125 6.67257812 3.5390625 6.50390625 C7.20517307 5.97012717 10.67239385 5.90256975 14.375 5.9375 C16.24285156 5.95103516 16.24285156 5.95103516 18.1484375 5.96484375 C19.55996094 5.98224609 19.55996094 5.98224609 21 6 C21 6.99 21 7.98 21 9 C14.07 9 7.14 9 0 9 C0 6.03 0 3.06 0 0 Z " fill="#031019" transform="translate(641,696)"/>
<path d="M0 0 C0.75732422 0.00966797 1.51464844 0.01933594 2.29492188 0.02929688 C3.08060547 0.05443359 3.86628906 0.07957031 4.67578125 0.10546875 C5.87170898 0.12577148 5.87170898 0.12577148 7.09179688 0.14648438 C9.05758092 0.18179786 11.02301707 0.23560428 12.98828125 0.29296875 C11.99828125 1.77796875 11.99828125 1.77796875 10.98828125 3.29296875 C9.10888672 3.63354492 9.10888672 3.63354492 6.85546875 3.5859375 C6.04980469 3.57626953 5.24414062 3.56660156 4.4140625 3.55664062 C3.57230469 3.53150391 2.73054687 3.50636719 1.86328125 3.48046875 C1.01378906 3.46693359 0.16429687 3.45339844 -0.7109375 3.43945312 C-2.81146712 3.40405094 -4.91167168 3.35024276 -7.01171875 3.29296875 C-4.74810376 0.60821609 -3.50571314 -0.07907624 0 0 Z " fill="#082031" transform="translate(531.01171875,622.70703125)"/>
<path d="M0 0 C-0.86625 0.61875 -0.86625 0.61875 -1.75 1.25 C-2.4925 1.8275 -3.235 2.405 -4 3 C-4.721875 3.53625 -5.44375 4.0725 -6.1875 4.625 C-8.86141415 8.12874957 -8.81589587 11.69196338 -9 16 C-9.99 15.67 -10.98 15.34 -12 15 C-12.55172044 9.34486552 -11.08071005 6.57705493 -8 2 C-4.77208445 -0.1519437 -3.71599191 -0.20086443 0 0 Z " fill="#051723" transform="translate(374,590)"/>
<path d="M0 0 C0.59941406 0.19722656 1.19882812 0.39445313 1.81640625 0.59765625 C1.12933594 1.0565625 0.44226563 1.51546875 -0.265625 1.98828125 C-1.16667969 2.601875 -2.06773437 3.21546875 -2.99609375 3.84765625 C-3.88941406 4.4509375 -4.78273438 5.05421875 -5.703125 5.67578125 C-9.68533055 8.76120666 -11.48789281 11.90186904 -13.18359375 16.59765625 C-13.51359375 16.59765625 -13.84359375 16.59765625 -14.18359375 16.59765625 C-13.82687617 10.65236317 -12.3866 7.8006625 -8.18359375 3.59765625 C-2.97478862 -0.54812742 -2.97478862 -0.54812742 0 0 Z " fill="#03131E" transform="translate(573.18359375,626.40234375)"/>
<path d="M0 0 C5 2 5 2 7.375 3.125 C14.06286301 5.35428767 19.70094331 3.39964064 26 1 C23.0283957 4.87600561 20.08419398 5.95889764 15.4453125 6.80859375 C11.3751596 7.12718399 7.75423403 6.62933757 4 5 C1.4375 2.375 1.4375 2.375 0 0 Z " fill="#19B5C3" transform="translate(400,362)"/>
<path d="M0 0 C3.47914941 -0.02887814 6.95826831 -0.04675687 10.4375 -0.0625 C11.92733398 -0.07506836 11.92733398 -0.07506836 13.44726562 -0.08789062 C14.39150391 -0.09111328 15.33574219 -0.09433594 16.30859375 -0.09765625 C17.62041626 -0.10551147 17.62041626 -0.10551147 18.95874023 -0.11352539 C21 0 21 0 22 1 C22.203125 2.99609375 22.203125 2.99609375 22.25 5.4375 C22.27578125 6.24058594 22.3015625 7.04367187 22.328125 7.87109375 C22.21984375 8.57363281 22.1115625 9.27617188 22 10 C21.01 10.66 20.02 11.32 19 12 C19.33 8.37 19.66 4.74 20 1 C13.4 1 6.8 1 0 1 C0 0.67 0 0.34 0 0 Z " fill="#0E2E40" transform="translate(401,623)"/>
<path d="M0 0 C0.83144531 0.00902344 1.66289062 0.01804687 2.51953125 0.02734375 C4.55481337 0.0507378 6.58994564 0.08660275 8.625 0.125 C8.625 0.455 8.625 0.785 8.625 1.125 C0.705 2.115 -7.215 3.105 -15.375 4.125 C-15.375 3.465 -15.375 2.805 -15.375 2.125 C-10.12544832 -0.03258273 -5.56689716 -0.11542211 0 0 Z " fill="#030F1A" transform="translate(311.375,594.875)"/>
<path d="M0 0 C0.66 0 1.32 0 2 0 C0.5735422 3.2586636 -1.16704162 5.4024854 -3.6953125 7.890625 C-4.76845703 8.95410156 -4.76845703 8.95410156 -5.86328125 10.0390625 C-6.60964844 10.76867187 -7.35601563 11.49828125 -8.125 12.25 C-8.87910156 12.99507813 -9.63320313 13.74015625 -10.41015625 14.5078125 C-12.26900772 16.3431342 -14.13237005 18.1736191 -16 20 C-16.66 19.67 -17.32 19.34 -18 19 C-15.31551418 16.31054291 -12.62533472 13.62741853 -9.921875 10.95703125 C-8.86456077 9.90887692 -7.80726933 8.86069962 -6.75 7.8125 C-5.93789063 7.01295898 -5.93789063 7.01295898 -5.109375 6.19726562 C-2.19242899 3.37492463 -2.19242899 3.37492463 0 0 Z " fill="#20B2C2" transform="translate(607,350)"/>
<path d="M0 0 C0.99 0 1.98 0 3 0 C3.82545713 4.47537 4.36031587 7.93906993 2.875 12.3125 C0.86023104 15.20033551 -1.07520466 17.05013644 -4 19 C-4.66 19 -5.32 19 -6 19 C-5 16 -5 16 -2.5625 13.9375 C0.91762406 9.94808949 1.33115646 6.14111077 2 1 C1.34 0.67 0.68 0.34 0 0 Z " fill="#051927" transform="translate(602,670)"/>
<path d="M0 0 C0.73283203 -0.00773438 1.46566406 -0.01546875 2.22070312 -0.0234375 C7.68413018 -0.00336982 7.68413018 -0.00336982 9.9375 2.25 C7.06219919 3.2084336 5.64700069 3.31656387 2.70703125 3.12890625 C1.90458984 3.08056641 1.10214844 3.03222656 0.27539062 2.98242188 C-0.97467773 2.89831055 -0.97467773 2.89831055 -2.25 2.8125 C-3.5174707 2.73418945 -3.5174707 2.73418945 -4.81054688 2.65429688 C-6.89486299 2.52476311 -8.97873182 2.38806823 -11.0625 2.25 C-7.31236585 -0.25008943 -4.33738094 -0.04601996 0 0 Z " fill="#071A26" transform="translate(595.0625,654.75)"/>
<path d="M0 0 C4.00056412 1.33352137 4.32304993 2.91451417 6.1875 6.625 C8.50663424 11.42360368 9.71902629 14.72714054 9 20 C7.04917485 16.2544157 5.58408963 12.38527448 4.09765625 8.4375 C2.99322898 5.98496401 1.614873 4.13476089 0 2 C0 1.34 0 0.68 0 0 Z " fill="#030E19" transform="translate(473,635)"/>
<path d="M0 0 C0.99 1.175625 0.99 1.175625 2 2.375 C5.73720709 5.6450562 8.18397855 6.10209769 13 7 C12.67 7.66 12.34 8.32 12 9 C7.95853394 9.31697773 5.62235307 9.35752198 2.0625 7.3125 C0 5 0 5 -0.3125 2.25 C-0.209375 1.5075 -0.10625 0.765 0 0 Z " fill="#02101C" transform="translate(523,680)"/>
<path d="M0 0 C0.33 0 0.66 0 1 0 C1.44807781 6.27308929 0.66866618 10.77307092 -3 16 C-3.99 16.66 -4.98 17.32 -6 18 C-5.71382813 17.31550781 -5.42765625 16.63101563 -5.1328125 15.92578125 C-3.89019008 12.71638749 -2.87299966 9.48089886 -1.875 6.1875 C-1.52179688 5.02605469 -1.16859375 3.86460937 -0.8046875 2.66796875 C-0.53914063 1.78753906 -0.27359375 0.90710938 0 0 Z " fill="#1AA9CB" transform="translate(465,512)"/>
<path d="M0 0 C0.87454834 0.00523682 1.74909668 0.01047363 2.65014648 0.01586914 C3.59438477 0.0190918 4.53862305 0.02231445 5.51147461 0.02563477 C6.50469727 0.03401367 7.49791992 0.04239258 8.52124023 0.05102539 C9.51833008 0.05553711 10.51541992 0.06004883 11.54272461 0.06469727 C14.01478872 0.07652532 16.48673541 0.0930069 18.95874023 0.11352539 C18.95874023 0.44352539 18.95874023 0.77352539 18.95874023 1.11352539 C17.92233398 1.17411133 16.88592773 1.23469727 15.81811523 1.29711914 C14.4483115 1.3815591 13.07852048 1.46620536 11.70874023 1.55102539 C10.68586914 1.61 10.68586914 1.61 9.64233398 1.67016602 C6.89557253 1.84350533 4.31498142 2.01113634 1.66186523 2.77368164 C-0.04125977 3.11352539 -0.04125977 3.11352539 -3.04125977 1.11352539 C-2.04125977 0.11352539 -2.04125977 0.11352539 0 0 Z " fill="#031826" transform="translate(677.041259765625,701.886474609375)"/>
<path d="M0 0 C-2.79624958 2.18697502 -5.63307872 3.99152813 -8.75 5.6875 C-9.94882812 6.34298828 -9.94882812 6.34298828 -11.171875 7.01171875 C-11.77515625 7.33785156 -12.3784375 7.66398438 -13 8 C-12.703125 6.140625 -12.703125 6.140625 -12 4 C-7.90850818 1.16742874 -5.10170244 -0.61838818 0 0 Z " fill="#04121D" transform="translate(439,624)"/>
<path d="M0 0 C0.66 0.33 1.32 0.66 2 1 C-0.99424358 4.84974175 -3.4435978 7.96160954 -8 10 C-8.99 9.67 -9.98 9.34 -11 9 C-9.71283353 7.99421411 -8.42011342 6.99553202 -7.125 6 C-6.40570312 5.443125 -5.68640625 4.88625 -4.9453125 4.3125 C-3 3 -3 3 -1 3 C-0.67 2.01 -0.34 1.02 0 0 Z " fill="#03131F" transform="translate(604,694)"/>
<path d="M0 0 C0.8125 1.6875 0.8125 1.6875 1 4 C-1.0625 6.75 -1.0625 6.75 -4 9 C-7.3125 9.3125 -7.3125 9.3125 -10 9 C-7 7 -7 7 -4.9375 6.6875 C-3.9784375 6.3471875 -3.9784375 6.3471875 -3 6 C-1.76709799 3.54295238 -1.76709799 3.54295238 -1 1 C-0.67 0.67 -0.34 0.34 0 0 Z " fill="#040E16" transform="translate(387,605)"/>
<path d="M0 0 C2.30143236 3.45214853 2.13833854 4.23479324 1.625 8.1875 C1.51414062 9.08855469 1.40328125 9.98960937 1.2890625 10.91796875 C1.19367187 11.60503906 1.09828125 12.29210937 1 13 C0.34 12.67 -0.32 12.34 -1 12 C-1.14285714 3.42857143 -1.14285714 3.42857143 0 0 Z " fill="#061B2A" transform="translate(554,673)"/>
<path d="M0 0 C0.59554687 0.20882812 1.19109375 0.41765625 1.8046875 0.6328125 C1.27359375 0.94734375 0.7425 1.261875 0.1953125 1.5859375 C-3.71072402 3.95236838 -7.13136176 6.18586792 -10.1953125 9.6328125 C-8.91112397 5.13815265 -5.40284373 -0.90367849 0 0 Z " fill="#03111B" transform="translate(708.1953125,625.3671875)"/>
<path d="M0 0 C0 2.64 0 5.28 0 8 C-0.66 7.01 -1.32 6.02 -2 5 C-4.56282742 4.27034634 -4.56282742 4.27034634 -7 4 C-2.25 0 -2.25 0 0 0 Z " fill="#020D17" transform="translate(544,684)"/>
<path d="M0 0 C1.32 0 2.64 0 4 0 C4.99 2.31 5.98 4.62 7 7 C6.34 7.66 5.68 8.32 5 9 C1.125 2.25 1.125 2.25 0 0 Z " fill="#081825" transform="translate(264,674)"/>
<path d="M0 0 C2.32472205 2.85306797 3.7508258 5.54074837 5 9 C3.0625 8.4375 3.0625 8.4375 1 7 C0.25 3.375 0.25 3.375 0 0 Z " fill="#020E18" transform="translate(555,687)"/>
<path d="M0 0 C5.45454545 0.45454545 5.45454545 0.45454545 8 3 C4.06329512 4.31223496 1.87511856 3.24296256 -2 2 C-1.34 1.34 -0.68 0.68 0 0 Z " fill="#061925" transform="translate(328,596)"/>
<path d="M0 0 C-0.66 0.66 -1.32 1.32 -2 2 C-4.72869407 1.96712417 -7.2966618 1.43602229 -10 1 C-6.42181037 -1.33958553 -4.07775191 -0.9267618 0 0 Z " fill="#082132" transform="translate(381,589)"/>
<path d="M0 0 C4.51720311 -0.36625971 4.51720311 -0.36625971 6.8125 1.375 C8 3 8 3 8 5 C5.04590299 3.62845496 2.55991624 2.01136276 0 0 Z " fill="#05141F" transform="translate(656,591)"/>
<path d="M0 0 C3 1 3 1 3 1 Z " fill="#0F3041" transform="translate(416,735)"/>
<path d="M0 0 C3 1 3 1 3 1 Z " fill="#0C3248" transform="translate(595,671)"/>
<path d="M0 0 C2 1 2 1 2 1 Z " fill="#0E2E41" transform="translate(420,735)"/>
<path d="M0 0 C2 1 2 1 2 1 Z " fill="#0F2F40" transform="translate(406,735)"/>
<path d="M0 0 C2 1 2 1 2 1 Z " fill="#0D2D3F" transform="translate(400,735)"/>
<path d="" fill="#0E3144" transform="translate(0,0)"/>
<path d="M0 0 C2 1 2 1 2 1 Z " fill="#113245" transform="translate(274,691)"/>
<path d="" fill="#0E3143" transform="translate(0,0)"/>
<path d="" fill="#19485D" transform="translate(0,0)"/>
<path d="M0 0 C2 1 2 1 2 1 Z " fill="#10354A" transform="translate(312,592)"/>
<path d="M0 0 C2 1 2 1 2 1 Z " fill="#2EBFD6" transform="translate(574,448)"/>
<path d="M0 0 C2 1 2 1 2 1 Z " fill="#33BEC8" transform="translate(458,288)"/>
<path d="" fill="#113042" transform="translate(0,0)"/>
<path d="" fill="#103045" transform="translate(0,0)"/>
<path d="" fill="#113144" transform="translate(0,0)"/>
<path d="" fill="#103245" transform="translate(0,0)"/>
<path d="" fill="#113245" transform="translate(0,0)"/>
<path d="" fill="#123346" transform="translate(0,0)"/>
<path d="" fill="#0E3143" transform="translate(0,0)"/>
<path d="" fill="#103043" transform="translate(0,0)"/>
<path d="" fill="#0D3044" transform="translate(0,0)"/>
<path d="" fill="#082F43" transform="translate(0,0)"/>
<path d="" fill="#123144" transform="translate(0,0)"/>
<path d="" fill="#0D3042" transform="translate(0,0)"/>
<path d="" fill="#0C2F45" transform="translate(0,0)"/>
<path d="" fill="#0C3346" transform="translate(0,0)"/>
<path d="" fill="#103145" transform="translate(0,0)"/>
<path d="" fill="#0C2F47" transform="translate(0,0)"/>
<path d="" fill="#0E2E41" transform="translate(0,0)"/>
<path d="" fill="#103345" transform="translate(0,0)"/>
<path d="" fill="#133243" transform="translate(0,0)"/>
<path d="" fill="#0C3348" transform="translate(0,0)"/>
<path d="" fill="#0D3348" transform="translate(0,0)"/>
<path d="" fill="#0A3148" transform="translate(0,0)"/>
<path d="" fill="#0E3145" transform="translate(0,0)"/>
<path d="" fill="#0D354B" transform="translate(0,0)"/>
<path d="" fill="#0C3247" transform="translate(0,0)"/>
<path d="" fill="#0C3046" transform="translate(0,0)"/>
<path d="" fill="#0D334A" transform="translate(0,0)"/>
<path d="" fill="#0A3045" transform="translate(0,0)"/>
<path d="" fill="#123345" transform="translate(0,0)"/>
<path d="" fill="#0E374B" transform="translate(0,0)"/>
<path d="" fill="#0F3244" transform="translate(0,0)"/>
<path d="" fill="#0D344A" transform="translate(0,0)"/>
<path d="" fill="#0D3446" transform="translate(0,0)"/>
<path d="" fill="#0D3146" transform="translate(0,0)"/>
<path d="" fill="#0E3148" transform="translate(0,0)"/>
<path d="" fill="#0C3245" transform="translate(0,0)"/>
<path d="" fill="#0D3249" transform="translate(0,0)"/>
<path d="" fill="#0D3348" transform="translate(0,0)"/>
<path d="" fill="#0D3348" transform="translate(0,0)"/>
<path d="" fill="#0A2F48" transform="translate(0,0)"/>
<path d="" fill="#0C3147" transform="translate(0,0)"/>
<path d="" fill="#0B3244" transform="translate(0,0)"/>
<path d="" fill="#0E3448" transform="translate(0,0)"/>
<path d="" fill="#0D3147" transform="translate(0,0)"/>
<path d="" fill="#0C3246" transform="translate(0,0)"/>
<path d="" fill="#0C3044" transform="translate(0,0)"/>
<path d="" fill="#0E3447" transform="translate(0,0)"/>
<path d="" fill="#0C334A" transform="translate(0,0)"/>
<path d="" fill="#133447" transform="translate(0,0)"/>
<path d="" fill="#0F3347" transform="translate(0,0)"/>
<path d="" fill="#0D354E" transform="translate(0,0)"/>
<path d="" fill="#103146" transform="translate(0,0)"/>
<path d="" fill="#103A51" transform="translate(0,0)"/>
<path d="" fill="#0F3345" transform="translate(0,0)"/>
<path d="" fill="#123D53" transform="translate(0,0)"/>
<path d="" fill="#0E3548" transform="translate(0,0)"/>
<path d="" fill="#0F3347" transform="translate(0,0)"/>
<path d="" fill="#0B3245" transform="translate(0,0)"/>
<path d="" fill="#0E3347" transform="translate(0,0)"/>
<path d="" fill="#123246" transform="translate(0,0)"/>
<path d="" fill="#103247" transform="translate(0,0)"/>
<path d="" fill="#12394E" transform="translate(0,0)"/>
<path d="" fill="#143C50" transform="translate(0,0)"/>
<path d="" fill="#12374C" transform="translate(0,0)"/>
<path d="" fill="#113749" transform="translate(0,0)"/>
<path d="" fill="#143C53" transform="translate(0,0)"/>
<path d="" fill="#0F3849" transform="translate(0,0)"/>
<path d="" fill="#154255" transform="translate(0,0)"/>
<path d="" fill="#194356" transform="translate(0,0)"/>
<path d="" fill="#30AFCB" transform="translate(0,0)"/>
<path d="" fill="#2FB3D0" transform="translate(0,0)"/>
<path d="" fill="#30AFCC" transform="translate(0,0)"/>
<path d="" fill="#32BBDA" transform="translate(0,0)"/>
<path d="" fill="#31B6D0" transform="translate(0,0)"/>
<path d="" fill="#32B6CF" transform="translate(0,0)"/>
<path d="" fill="#30C0DD" transform="translate(0,0)"/>
<path d="" fill="#30C1DC" transform="translate(0,0)"/>
<path d="" fill="#30C2DC" transform="translate(0,0)"/>
<path d="" fill="#31BFDA" transform="translate(0,0)"/>
<path d="" fill="#35C4D9" transform="translate(0,0)"/>
<path d="" fill="#30C5D9" transform="translate(0,0)"/>
<path d="" fill="#34B8C8" transform="translate(0,0)"/>
<path d="" fill="#34C9DB" transform="translate(0,0)"/>
<path d="" fill="#35C9DE" transform="translate(0,0)"/>
<path d="" fill="#3ACDDC" transform="translate(0,0)"/>
<path d="" fill="#35C1D1" transform="translate(0,0)"/>
<path d="" fill="#34C9D8" transform="translate(0,0)"/>
<path d="" fill="#35CCD9" transform="translate(0,0)"/>
<path d="" fill="#35C0CE" transform="translate(0,0)"/>
<path d="" fill="#36CCD9" transform="translate(0,0)"/>
<path d="" fill="#32BDC7" transform="translate(0,0)"/>
<path d="" fill="#32BCC8" transform="translate(0,0)"/>
</svg>
