<?xml version="1.0" encoding="UTF-8"?>
<svg version="1.1" xmlns="http://www.w3.org/2000/svg" width="1024" height="1024">
<path d="M0 0 C1.41544941 0.58628082 2.83227443 1.16924495 4.25 1.75 C17.15685785 7.57408627 30.50146203 17.91130139 36 31.3125 C37.55138577 36.81802755 37.15065985 41.70893025 35 47 C32.33409598 50.71114956 29.29166344 53.84302 26 57 C22.83775955 60.1398529 19.71440918 63.31524759 16.6015625 66.50390625 C14.94290423 68.19029686 13.28404463 69.87648948 11.625 71.5625 C10.8 72.41263672 9.975 73.26277344 9.125 74.13867188 C2.91179852 80.42584004 -2.67755545 85.8392682 -12 86 C-19.36586405 84.88352061 -24.95404051 80.47848851 -30.7890625 76.15625 C-37.75983066 71.47515021 -43.82808265 70.38536087 -52 70 C-52.81597656 69.93554688 -53.63195312 69.87109375 -54.47265625 69.8046875 C-66.14413868 69.23534689 -76.95145126 73.85715185 -86 81 C-95.43321448 89.67533229 -100.37061685 100.33983708 -102 113 C-102.38031367 126.84341748 -98.45040938 138.9529758 -89 149.16015625 C-78.55661416 159.13731951 -66.12575397 162.41112174 -52.01611328 162.36865234 C-40.88717119 162.04770044 -33.01141253 157.04971776 -24 151 C-19.03280193 147.73474111 -14.93455066 146.73563446 -9 147 C2.18293194 149.80099802 11.40127332 162.19209247 19.36132812 170.12109375 C20.88754227 171.63746135 22.42413096 173.14281536 23.9609375 174.6484375 C36.53095326 187.0800888 36.53095326 187.0800888 37.1484375 196.68359375 C36.48907203 206.97316537 27.81696069 214.67141031 20.625 221.1875 C11.40474312 228.73524517 1.24124896 235.25578729 -11 235 C-17.42250032 234.09893279 -22.1972986 231.94282605 -26.53515625 227.07421875 C-30.37751516 221.63343854 -31.96570614 215.7563272 -33 209.25 C-33.75606245 204.63541194 -34.79679655 201.55911495 -38 198 C-43.70437872 194.14365141 -49.78798014 194.38701704 -56.4375 194.0625 C-79.80035815 192.555896 -98.42501346 185.4961071 -114.75 168.125 C-128.28004115 152.40024629 -135.50900483 132.90132225 -134 112 C-131.87869716 88.96444381 -120.55280498 70.61433018 -103.3125 55.75 C-88.17688101 44.27275337 -71.05538021 39.86304898 -52.35668945 38.85791016 C-46.62046525 38.47369708 -41.73630869 37.42782599 -37 34 C-33.64332612 29.61881411 -32.70633181 24.8325106 -31.625 19.5 C-30.09598259 12.47302637 -27.77226563 7.81835938 -21.9609375 3.4765625 C-15.48560671 -0.48185526 -7.09587739 -4.00280263 0 0 Z " fill="#2ECCFE" transform="translate(346,386)"/>
<path d="M0 0 C8.82352593 6.38048782 14.48492763 14.15109436 16.71875 24.890625 C18.28794066 36.65955495 16.38118705 48.71051226 9.79296875 58.71484375 C3.76628188 66.39591525 -3.25398034 71.02555522 -12.5625 73.75 C-22.53118212 74.77242894 -30.91030436 73.06727173 -39 67 C-39.66 66.67 -40.32 66.34 -41 66 C-41 76.89 -41 87.78 -41 99 C-47.93 99 -54.86 99 -62 99 C-62.02255803 85.99616124 -62.04091918 72.99233539 -62.05181217 59.98848152 C-62.05703924 53.95080974 -62.06413373 47.91315199 -62.07543945 41.87548828 C-62.08627454 36.05297583 -62.09227816 30.23047692 -62.09487724 24.40795517 C-62.09673037 22.18231874 -62.10034883 19.95668309 -62.10573006 17.7310524 C-62.1129487 14.62293118 -62.11399059 11.51486648 -62.11352539 8.40673828 C-62.11712067 7.47885498 -62.12071594 6.55097168 -62.12442017 5.5949707 C-62.1230455 4.75080597 -62.12167084 3.90664124 -62.12025452 3.03689575 C-62.12117631 2.30130495 -62.1220981 1.56571415 -62.12304783 0.80783272 C-62 -1 -62 -1 -61 -3 C-54.73 -3 -48.46 -3 -42 -3 C-41.34 -0.69 -40.68 1.62 -40 4 C-39.175 3.236875 -38.35 2.47375 -37.5 1.6875 C-27.4989275 -6.42396894 -10.87819715 -6.82878366 0 0 Z M-37.4375 19.1875 C-41.68446848 24.77561642 -42.59483654 31.09989615 -42 38 C-40.90497209 44.24165911 -39.30133442 49.01430341 -34.08203125 52.87109375 C-28.61296534 55.83649721 -23.24646821 56.69404119 -17.25 54.9375 C-11.83813484 52.74789378 -8.31806211 50.06496397 -5.125 45.0625 C-2.62872591 38.24632645 -2.64299459 29.11654377 -5.5 22.4375 C-8.46384977 17.59134563 -12.8072617 14.91140225 -18.203125 13.37109375 C-25.50765503 12.1579288 -32.27549661 13.71226825 -37.4375 19.1875 Z " fill="#017CE5" transform="translate(621,484)"/>
<path d="M0 0 C1.78414975 2.27189854 3.38474264 4.60027177 5 7 C2.73023018 8.79302821 0.45923756 10.58446793 -1.8125 12.375 C-2.45509766 12.88289063 -3.09769531 13.39078125 -3.75976562 13.9140625 C-4.38173828 14.40390625 -5.00371094 14.89375 -5.64453125 15.3984375 C-6.21534424 15.84880371 -6.78615723 16.29916992 -7.37426758 16.76318359 C-8.87201655 17.90263341 -10.43415344 18.95610229 -12 20 C-12.78375 18.948125 -13.5675 17.89625 -14.375 16.8125 C-19.24829047 11.09218523 -26.52953509 7.55343225 -34.0078125 6.796875 C-43.20093026 6.59333734 -50.87510974 8.87575656 -57.95703125 14.8671875 C-64.93697101 22.15408445 -67.63168229 31.06730297 -68 41 C-67.49065028 50.98822375 -64.52145875 60.04790214 -57.125 67 C-53.51037063 69.91083575 -50.52768346 71.11221893 -46 72 C-45.01 72.33 -44.02 72.66 -43 73 C-37.43829915 74.04877787 -33.3188096 74.24571961 -28 72 C-27.05125 71.773125 -26.1025 71.54625 -25.125 71.3125 C-19.45263243 68.93010562 -15.27800142 64.33097976 -11 60 C-9.89591797 60.70576172 -9.89591797 60.70576172 -8.76953125 61.42578125 C-7.79371094 62.04839844 -6.81789063 62.67101562 -5.8125 63.3125 C-4.84957031 63.92738281 -3.88664062 64.54226563 -2.89453125 65.17578125 C-0.28365697 66.82123103 2.3469602 68.42369665 5 70 C0.82464043 79.34687091 -7.53219219 86.20377865 -16.75 90.1875 C-30.90266135 95.48402629 -45.92072513 95.51860622 -59.98828125 89.78125 C-73.18491668 83.06160537 -82.48872827 72.72822734 -87.375 58.75 C-91.7452727 44.2197771 -90.78333621 29.59912659 -84.375 15.75 C-77.12382292 2.30399016 -65.49226872 -7.37251815 -51 -12 C-33.16096581 -16.73004694 -13.68156514 -12.50946844 0 0 Z " fill="#017DE5" transform="translate(511,464)"/>
<path d="M0 0 C6.19231412 3.89886445 9.46575465 9.89908135 11.54844666 16.82342529 C12.06854564 19.33040328 12.16181717 21.66695324 12.20532227 24.22753906 C12.2352401 25.78870453 12.2352401 25.78870453 12.26576233 27.38140869 C12.28247482 28.49820007 12.29918732 29.61499146 12.31640625 30.765625 C12.33718735 31.91415955 12.35796844 33.06269409 12.37937927 34.24603271 C12.44474993 37.91396111 12.50370194 41.58196093 12.5625 45.25 C12.60569707 47.73698654 12.64931175 50.22396587 12.69335938 52.7109375 C12.80041858 58.80721622 12.90220825 64.90356595 13 71 C9.30986037 72.23004654 5.84579516 72.26117711 2 72.3125 C0.91332031 72.35600586 0.91332031 72.35600586 -0.1953125 72.40039062 C-2.3125 72.42578125 -2.3125 72.42578125 -6 72 C-8 69.98046875 -8 69.98046875 -9 68 C-9.49886719 68.34933594 -9.99773438 68.69867187 -10.51171875 69.05859375 C-17.81692746 73.68828616 -25.32650222 75.01614886 -33.87890625 73.484375 C-38.23357532 72.26428888 -42.37894202 70.77614445 -46 68 C-46 67.34 -46 66.68 -46 66 C-46.66 66 -47.32 66 -48 66 C-52.05357453 59.06969516 -53.84723613 52.60959499 -52.62890625 44.54296875 C-51.01557492 38.66082284 -47.94132766 34.54927453 -43 31 C-35.51506607 27.10357079 -28.33939125 25.85671514 -19.9375 25.875 C-18.75027344 25.87242187 -17.56304688 25.86984375 -16.33984375 25.8671875 C-13.42565555 25.98307335 -10.82914983 26.32613823 -8 27 C-8.1546875 25.14375 -8.1546875 25.14375 -8.3125 23.25 C-8.37050781 22.55390625 -8.42851563 21.8578125 -8.48828125 21.140625 C-9.14251815 18.4038172 -10.02779174 17.01096345 -12 15 C-17.01167383 13.11963886 -21.55274802 12.50094759 -26.625 14.25 C-29.08013868 15.7812964 -29.08013868 15.7812964 -30 18 C-30.66 18 -31.32 18 -32 18 C-32.33 19.65 -32.66 21.3 -33 23 C-39.30367803 22.41632611 -44.98660063 20.95928381 -51 19 C-50.73011628 12.5227907 -48.50366427 8.63529538 -44 4 C-31.84416777 -5.99381488 -13.93657251 -7.39541414 0 0 Z M-30.7265625 43.328125 C-32.8080914 46.06092982 -32.47461217 48.58555625 -32.33984375 51.90625 C-32.14535819 54.12846394 -32.14535819 54.12846394 -30.5 56 C-25.20302191 58.11879124 -20.92751523 58.58007701 -15.5625 56.75 C-14.386875 56.1725 -13.21125 55.595 -12 55 C-11.67 54.01 -11.34 53.02 -11 52 C-10.34 52 -9.68 52 -9 52 C-7.41923342 48.54207311 -6.48420362 45.8168932 -7 42 C-14.07055889 37.28629407 -24.01195105 38.16303927 -30.7265625 43.328125 Z M-8 65 C-7 67 -7 67 -7 67 Z " fill="#007EE9" transform="translate(756,484)"/>
<path d="M0 0 C2.22909871 -0.02714735 4.45829367 -0.04646254 6.6875 -0.0625 C7.92886719 -0.07410156 9.17023437 -0.08570313 10.44921875 -0.09765625 C13.46235454 -0.01478673 16.08275339 0.29160551 19 1 C19 3.31 19 5.62 19 8 C19.88751953 7.38511719 19.88751953 7.38511719 20.79296875 6.7578125 C21.58316406 6.21898437 22.37335937 5.68015625 23.1875 5.125 C24.35345703 4.32449219 24.35345703 4.32449219 25.54296875 3.5078125 C32.68013671 -0.87207118 39.87589803 -0.79239188 48 0 C54.53284739 1.8336321 58.83380721 5.16733009 62.74609375 10.64453125 C66.94802378 18.53787644 67.41079433 24.97194151 67.29296875 33.8125 C67.28872391 35.02196289 67.28447906 36.23142578 67.28010559 37.47753906 C67.26339038 41.31859134 67.22575015 45.15910784 67.1875 49 C67.17244397 51.61327364 67.15875717 54.22655555 67.14648438 56.83984375 C67.11351022 63.22674352 67.06338184 69.61333347 67 76 C64.04142591 76.05379226 61.08382279 76.09357093 58.125 76.125 C56.86236328 76.15013672 56.86236328 76.15013672 55.57421875 76.17578125 C54.76855469 76.18222656 53.96289062 76.18867187 53.1328125 76.1953125 C52.38918457 76.20578613 51.64555664 76.21625977 50.87939453 76.22705078 C49 76 49 76 47 74 C46.77967834 72.09822083 46.77967834 72.09822083 46.82055664 69.75317383 C46.83039078 68.87498489 46.84022491 67.99679596 46.85035706 67.09199524 C46.87009079 66.13995712 46.88982452 65.18791901 46.91015625 64.20703125 C46.93059021 62.194664 46.95076419 60.18229409 46.97070312 58.16992188 C47.01409326 54.9945976 47.06238168 51.81944763 47.11645508 48.64428711 C47.16493592 45.5818743 47.19468583 42.51969027 47.22265625 39.45703125 C47.24441422 38.51511429 47.26617218 37.57319733 47.28858948 36.60273743 C47.33081317 30.9538316 46.79402684 26.9599647 44 22 C41.45631001 20.49547543 41.45631001 20.49547543 39 20 C39 19.34 39 18.68 39 18 C30.06526031 18.95527593 30.06526031 18.95527593 23 24 C20.74324346 29.25490242 20.56670974 34.30852254 20.375 39.9375 C20.33632813 40.88520264 20.29765625 41.83290527 20.2578125 42.80932617 C19.95144983 51.15565734 19.93592152 59.49868496 20.03662109 67.84936523 C20.04516113 68.77177002 20.05370117 69.6941748 20.0625 70.64453125 C20.07410156 71.46284424 20.08570313 72.28115723 20.09765625 73.12426758 C20 75 20 75 19 76 C17.58429877 76.08651611 16.164405 76.10704904 14.74609375 76.09765625 C13.89208984 76.09443359 13.03808594 76.09121094 12.15820312 76.08789062 C11.26037109 76.07951172 10.36253906 76.07113281 9.4375 76.0625 C8.53580078 76.05798828 7.63410156 76.05347656 6.70507812 76.04882812 C4.46998686 76.03700225 2.23502563 76.0205222 0 76 C-1.138308 72.36234362 -1.12693641 68.94790976 -1.12939453 65.15185547 C-1.13202301 64.13167328 -1.13202301 64.13167328 -1.13470459 63.09088135 C-1.13909519 60.84962389 -1.13619562 58.60844572 -1.1328125 56.3671875 C-1.13348618 54.80827825 -1.13445675 53.2493691 -1.13571167 51.69046021 C-1.13718472 48.42725624 -1.13504609 45.16407968 -1.13037109 41.90087891 C-1.12466456 37.71310186 -1.12796112 33.52538878 -1.13394356 29.33761406 C-1.13755168 26.1206514 -1.13640959 22.90370399 -1.13381577 19.68674088 C-1.13314768 18.14213173 -1.13397079 16.59752121 -1.13629532 15.05291367 C-1.13882697 12.89835675 -1.13497444 10.74390456 -1.12939453 8.58935547 C-1.12859894 7.36231903 -1.12780334 6.13528259 -1.12698364 4.87106323 C-1 2 -1 2 0 0 Z " fill="#007EE7" transform="translate(817,480)"/>
<path d="M0 0 C6.27 0 12.54 0 19 0 C20.42597611 2.85195222 20.1320252 5.32461175 20.125 8.5 C20.12886719 10.24796875 20.12886719 10.24796875 20.1328125 12.03125 C20 15 20 15 19 17 C19.85549438 16.94670532 19.85549438 16.94670532 20.72827148 16.89233398 C23.29771664 16.73529923 25.86756512 16.58629537 28.4375 16.4375 C29.33533203 16.38142578 30.23316406 16.32535156 31.15820312 16.26757812 C32.01220703 16.21923828 32.86621094 16.17089844 33.74609375 16.12109375 C34.53685303 16.0739624 35.3276123 16.02683105 36.14233398 15.97827148 C38 16 38 16 39 17 C39.08651611 18.41570123 39.10704904 19.835595 39.09765625 21.25390625 C39.09443359 22.10791016 39.09121094 22.96191406 39.08789062 23.84179688 C39.07532227 25.18854492 39.07532227 25.18854492 39.0625 26.5625 C39.05798828 27.46419922 39.05347656 28.36589844 39.04882812 29.29492188 C39.03700225 31.53001314 39.0205222 33.76497437 39 36 C38.34 36 37.68 36 37 36 C37 35.34 37 34.68 37 34 C36.02417969 34.08378906 35.04835938 34.16757812 34.04296875 34.25390625 C32.13451172 34.40666016 32.13451172 34.40666016 30.1875 34.5625 C28.92292969 34.66691406 27.65835938 34.77132812 26.35546875 34.87890625 C23 35 23 35 20 34 C20.04416951 38.91195369 20.11401757 43.82262391 20.20751953 48.73388672 C20.23571718 50.40403011 20.25693779 52.07430665 20.27099609 53.74462891 C20.29244337 56.14815372 20.33909845 58.55007983 20.390625 60.953125 C20.39185364 61.69806213 20.39308228 62.44299927 20.39434814 63.21051025 C20.49302642 66.71565517 20.7204158 68.64334818 22.91308594 71.44042969 C26.62267643 74.21264121 28.54621321 74.00089448 33.125 73.5625 C35.06375 73.376875 37.0025 73.19125 39 73 C39.495 81.415 39.495 81.415 40 90 C30.85289119 94.5735544 22.83825051 94.88175527 13 92 C6.10117808 88.36243935 2.95234633 83.72954712 0.62411499 76.5017395 C-0.38802869 72.44460282 -0.37072394 68.53156552 -0.29296875 64.37109375 C-0.28872391 63.49598648 -0.28447906 62.62087921 -0.28010559 61.71925354 C-0.26347981 58.95833928 -0.22585966 56.19818895 -0.1875 53.4375 C-0.17243228 51.55144293 -0.15874756 49.66537427 -0.14648438 47.77929688 C-0.11362937 43.18590917 -0.06196135 38.59308353 0 34 C-6.435 34.495 -6.435 34.495 -13 35 C-13 28.73 -13 22.46 -13 16 C-8.71 16.33 -4.42 16.66 0 17 C0 11.39 0 5.78 0 0 Z " fill="#0080EC" transform="translate(656,464)"/>
<path d="M0 0 C0 0.66 0 1.32 0 2 C0.66 2.33 1.32 2.66 2 3 C1.67 26.76 1.34 50.52 1 75 C-1.70716242 75.90238747 -3.23776768 76.11851302 -6.01171875 76.09765625 C-7.14770508 76.09282227 -7.14770508 76.09282227 -8.30664062 76.08789062 C-9.48516602 76.07532227 -9.48516602 76.07532227 -10.6875 76.0625 C-11.48478516 76.05798828 -12.28207031 76.05347656 -13.10351562 76.04882812 C-15.06904257 76.0370585 -17.03453085 76.01912348 -19 76 C-19.15421353 67.25489794 -19.3023905 58.50972011 -19.4429636 49.76438808 C-19.50843195 45.7031388 -19.57594174 41.64194527 -19.64819336 37.58081055 C-19.71790561 33.65811527 -19.78215552 29.73536435 -19.84269524 25.81251717 C-19.86668241 24.3194564 -19.89260352 22.82642535 -19.92053413 21.33343315 C-19.95946057 19.23462438 -19.99137055 17.13581312 -20.02172852 15.03686523 C-20.05170677 13.24816261 -20.05170677 13.24816261 -20.08229065 11.42332458 C-19.99705511 7.87749136 -19.56998197 4.49801383 -19 1 C-12.65758005 -0.15316726 -6.43311296 -0.09507063 0 0 Z " fill="#017AE2" transform="translate(802,480)"/>
<path d="M0 0 C10 0 10 0 20 1 C20 25.75 20 50.5 20 76 C13.4 76 6.8 76 0 76 C0 50.92 0 25.84 0 0 Z " fill="#007FEB" transform="translate(525,480)"/>
<path d="M0 0 C3.125 2.125 3.125 2.125 5 5 C6.11375 6.546875 6.11375 6.546875 7.25 8.125 C10.24789358 13.05011088 10.76758047 17.35223227 9.57421875 23.0234375 C7.53494203 29.55412736 3.40537082 33.07902159 -2.4375 36.375 C-8.78756641 37.92379669 -13.5152996 37.4062762 -19.171875 34.27734375 C-22.99042377 31.60925518 -25.51418162 28.45745513 -27 24 C-27.48514482 18.48843667 -27.76737316 13.62328938 -25.375 8.5625 C-17.76077379 0.34715067 -11.18872388 -1.15564284 0 0 Z " fill="#2FCAFC" transform="translate(171,475)"/>
<path d="M0 0 C5.16265357 2.73450442 9.11017374 6.75239622 10.96484375 12.31640625 C11.65185783 19.99246736 10.73170999 24.91711345 5.77734375 31.00390625 C1.08371336 34.86311346 -3.40583145 36.6757115 -9.53515625 36.31640625 C-15.17600447 35.39087848 -19.88284833 33.09924945 -23.421875 28.5234375 C-26.20991222 23.62236154 -26.97647629 18.86728316 -26.03515625 13.31640625 C-24.14492756 7.09766571 -20.71049777 3.38451431 -15.03515625 0.31640625 C-10.2045085 -1.29380967 -4.88734505 -1.64162262 0 0 Z " fill="#2FCAFC" transform="translate(180.03515625,534.68359375)"/>
<path d="M0 0 C3.84072257 4.16078278 5.77898729 7.65726531 6.3125 13.3125 C5.81895326 19.13635158 4.61508371 23.95632035 0.0625 27.875 C-6.03400378 32.10522711 -10.59537519 32.84953911 -18 32 C-23.81722777 30.02896129 -27.33206479 26.00228338 -30.25 20.75 C-31.5506188 15.9810644 -31.99766493 11.48970847 -30.125 6.81640625 C-26.91367318 1.22827503 -22.65751518 -2.68704583 -16.5625 -4.875 C-9.73922395 -5.20784273 -5.34812014 -4.37573466 0 0 Z " fill="#2ECBFD" transform="translate(225,583)"/>
<path d="M0 0 C3.72696758 3.35050621 6.03256643 7.06608881 7 12 C7.08739417 18.06297046 5.97163992 22.25609676 2 27 C-3.02514206 31.52262785 -6.89029882 33.48273561 -13.62109375 33.31640625 C-18.88569996 32.61618769 -22.75655111 30.30889357 -26.375 26.5 C-30.1666443 20.66670108 -31.07982722 15.95784321 -30 9 C-27.64057668 3.72088895 -24.44951581 -0.70546703 -19 -3 C-12.09926374 -5.53026996 -5.87637425 -3.99988499 0 0 Z " fill="#2FCBFC" transform="translate(191,421)"/>
<path d="M0 0 C4.82675093 4.17112668 8.41166293 9.54930431 9 16 C7.84000256 22.39931921 4.88789708 27.00065697 -0.27734375 30.8828125 C-5.41617042 34.2154756 -9.96667646 34.78946837 -16.015625 33.60546875 C-21.95267777 31.84927948 -24.93677052 28.25730734 -28 23 C-29.83329441 17.50011677 -29.80919559 12.0913828 -27.4375 6.75 C-24.86621984 2.16561794 -21.04273998 -1.07240742 -15.98828125 -2.61328125 C-9.95385625 -3.78697098 -5.33777539 -3.00856431 0 0 Z " fill="#30CEFE" transform="translate(234,380)"/>
<path d="M0 0 C5.52610487 2.95621416 7.82030335 5.89841006 9.8125 11.875 C10.54674739 18.76007392 9.95311216 23.27957816 5.8125 28.875 C0.57237944 33.72211151 -3.5272054 35.36691503 -10.58984375 35.1796875 C-15.60215072 34.59177781 -19.34678569 32.90344885 -22.7578125 29.14453125 C-26.06086497 24.41644758 -27.551915 19.65358078 -27.1875 13.875 C-25.168567 7.49942209 -22.27441078 2.81970364 -16.375 -0.4375 C-10.3361554 -3.15108763 -5.97039259 -2.70110002 0 0 Z " fill="#2FCBFD" transform="translate(287.1875,369.125)"/>
<path d="M0 0 C4.29041592 3.67749936 7.24680713 6.90569452 7.8984375 12.66796875 C8.11529851 18.58160162 7.71473467 22.74550975 4.16796875 27.59375 C-0.00654036 32.07474206 -4.8936197 33.99707465 -10.97265625 34.40234375 C-16.34648405 34.06156443 -21.25927396 32.39961639 -25.08203125 28.515625 C-28.77026283 23.20117028 -30.12009405 17.49548382 -29 11.11328125 C-27.32665538 5.62261921 -24.11044331 2.36273752 -19.375 -0.75 C-13.10147455 -3.95646856 -6.12207856 -3.1744111 0 0 Z " fill="#2ECBFD" transform="translate(282.375,600.75)"/>
<path d="M0 0 C3.09277709 2.54295005 5.88343687 5.09202905 7 9 C6.81924144 14.69389465 6.22322861 17.89743507 2 22 C-1.04435914 24.28326936 -4.2060079 24.41859308 -7.96875 24.3203125 C-12.04325238 23.67779482 -14.87754791 21.42857538 -17.375 18.25 C-18.79173621 13.14974966 -18.65773139 9.39439055 -16.4375 4.6875 C-11.71339297 -0.52113083 -6.74342891 -1.99805301 0 0 Z " fill="#0082ED" transform="translate(541,449)"/>
<path d="M0 0 C3.19715192 2.59228534 4.11977202 4.96550275 5.3125 8.875 C5.21051836 13.87210012 3.39485678 17.0000372 0.3125 20.875 C-2.67562362 23.22281141 -5.90661188 23.29325081 -9.65625 23.1953125 C-13.04179158 22.66143864 -15.12930448 21.06773902 -17.6875 18.875 C-20.25692738 14.67768198 -20.36526995 10.67086586 -19.6875 5.875 C-15.35981173 -2.08794642 -7.82230771 -3.27445439 0 0 Z " fill="#027CE0" transform="translate(799.6875,450.125)"/>
<path d="M0 0 C6.27 0 12.54 0 19 0 C20.42597611 2.85195222 20.1320252 5.32461175 20.125 8.5 C20.12886719 10.24796875 20.12886719 10.24796875 20.1328125 12.03125 C20 15 20 15 19 17 C19.85549438 16.94670532 19.85549438 16.94670532 20.72827148 16.89233398 C23.29771664 16.73529923 25.86756512 16.58629537 28.4375 16.4375 C29.33533203 16.38142578 30.23316406 16.32535156 31.15820312 16.26757812 C32.01220703 16.21923828 32.86621094 16.17089844 33.74609375 16.12109375 C34.53685303 16.0739624 35.3276123 16.02683105 36.14233398 15.97827148 C38 16 38 16 39 17 C39.08651611 18.41570123 39.10704904 19.835595 39.09765625 21.25390625 C39.09443359 22.10791016 39.09121094 22.96191406 39.08789062 23.84179688 C39.07532227 25.18854492 39.07532227 25.18854492 39.0625 26.5625 C39.05798828 27.46419922 39.05347656 28.36589844 39.04882812 29.29492188 C39.03700225 31.53001314 39.0205222 33.76497437 39 36 C38.34 36 37.68 36 37 36 C37 35.34 37 34.68 37 34 C36.02417969 34.08378906 35.04835938 34.16757812 34.04296875 34.25390625 C32.13451172 34.40666016 32.13451172 34.40666016 30.1875 34.5625 C28.92292969 34.66691406 27.65835938 34.77132812 26.35546875 34.87890625 C23 35 23 35 20 34 C20.04416951 38.91195369 20.11401757 43.82262391 20.20751953 48.73388672 C20.23571718 50.40403011 20.25693779 52.07430665 20.27099609 53.74462891 C20.29244337 56.14815372 20.33909845 58.55007983 20.390625 60.953125 C20.39185364 61.69806213 20.39308228 62.44299927 20.39434814 63.21051025 C20.49302642 66.71565517 20.7204158 68.64334818 22.91308594 71.44042969 C26.62267643 74.21264121 28.54621321 74.00089448 33.125 73.5625 C35.06375 73.376875 37.0025 73.19125 39 73 C39.495 81.415 39.495 81.415 40 90 C32.54698891 93.72650555 26.21113711 94.944743 18 93 C18 92.67 18 92.34 18 92 C18.94101562 91.95101562 19.88203125 91.90203125 20.8515625 91.8515625 C22.71941406 91.73941406 22.71941406 91.73941406 24.625 91.625 C26.46964844 91.52058594 26.46964844 91.52058594 28.3515625 91.4140625 C32.46679726 91.07465763 32.46679726 91.07465763 38 89 C37.34 84.71 36.68 80.42 36 76 C33.6796875 76.0928125 33.6796875 76.0928125 31.3125 76.1875 C27.01628324 76.16929569 24.29639565 75.99672332 21 73 C18.1095769 68.30574608 17.58988181 64.36909403 17.70703125 58.9765625 C17.71127609 58.23038666 17.71552094 57.48421082 17.71989441 56.71542358 C17.73657618 54.35156902 17.77420661 51.98859324 17.8125 49.625 C17.82756051 48.0143353 17.84124652 46.40365713 17.85351562 44.79296875 C17.88388324 40.86137507 17.94261899 36.93166146 18 33 C23.94 32.67 29.88 32.34 36 32 C36.33 27.71 36.66 23.42 37 19 C30.73 19 24.46 19 18 19 C18 13.39 18 7.78 18 2 C12.39 2 6.78 2 1 2 C1.03957157 7.22063275 1.03957157 7.22063275 1.09008789 12.44116211 C1.09723945 14.29433759 1.0502852 16.14749308 1 18 C0 19 0 19 -2.72265625 19.09765625 C-5.81510417 19.06510417 -8.90755208 19.03255208 -12 19 C-12 23.62 -12 28.24 -12 33 C-7.71 33 -3.42 33 1 33 C1 45.87 1 58.74 1 72 C0.67 72 0.34 72 0 72 C0 59.46 0 46.92 0 34 C-6.435 34.495 -6.435 34.495 -13 35 C-13 28.73 -13 22.46 -13 16 C-8.71 16.33 -4.42 16.66 0 17 C0 11.39 0 5.78 0 0 Z " fill="#0563B9" transform="translate(656,464)"/>
<path d="M0 0 C2.22909871 -0.02714735 4.45829367 -0.04646254 6.6875 -0.0625 C7.92886719 -0.07410156 9.17023437 -0.08570313 10.44921875 -0.09765625 C13.46235454 -0.01478673 16.08275339 0.29160551 19 1 C19 3.31 19 5.62 19 8 C19.58007812 7.57847656 20.16015625 7.15695312 20.7578125 6.72265625 C28.51669596 1.28119508 28.51669596 1.28119508 34 1 C29 4.33333333 24 7.66666667 19 11 C18.67 10.67 18.34 10.34 18 10 C18 7.69 18 5.38 18 3 C12.39 3 6.78 3 1 3 C1 26.43 1 49.86 1 74 C6.61 74 12.22 74 18 74 C17.99214478 72.15438477 17.99214478 72.15438477 17.98413086 70.27148438 C17.96594556 65.67936946 17.95451876 61.0872577 17.94506836 56.49511719 C17.94005897 54.51268986 17.9332496 52.53026618 17.92456055 50.54785156 C17.91234571 47.68814182 17.90673761 44.8284812 17.90234375 41.96875 C17.89718246 41.09134155 17.89202118 40.21393311 17.88670349 39.30993652 C17.88623674 34.1174657 18.05324195 29.11440182 19 24 C21.5625 21.5 21.5625 21.5 24 20 C24.66 20.33 25.32 20.66 26 21 C25.360625 21.7425 24.72125 22.485 24.0625 23.25 C20.29777799 28.26962935 20.69563505 33.73839174 20.4375 39.8125 C20.39431641 40.76922607 20.35113281 41.72595215 20.30664062 42.71166992 C19.96370247 51.09256128 19.93504284 59.46235306 20.03686523 67.84887695 C20.04532471 68.77144287 20.05378418 69.69400879 20.0625 70.64453125 C20.07410156 71.46284424 20.08570313 72.28115723 20.09765625 73.12426758 C20 75 20 75 19 76 C17.58429877 76.08651611 16.164405 76.10704904 14.74609375 76.09765625 C13.89208984 76.09443359 13.03808594 76.09121094 12.15820312 76.08789062 C11.26037109 76.07951172 10.36253906 76.07113281 9.4375 76.0625 C8.53580078 76.05798828 7.63410156 76.05347656 6.70507812 76.04882812 C4.46998686 76.03700225 2.23502563 76.0205222 0 76 C-1.138308 72.36234362 -1.12693641 68.94790976 -1.12939453 65.15185547 C-1.13202301 64.13167328 -1.13202301 64.13167328 -1.13470459 63.09088135 C-1.13909519 60.84962389 -1.13619562 58.60844572 -1.1328125 56.3671875 C-1.13348618 54.80827825 -1.13445675 53.2493691 -1.13571167 51.69046021 C-1.13718472 48.42725624 -1.13504609 45.16407968 -1.13037109 41.90087891 C-1.12466456 37.71310186 -1.12796112 33.52538878 -1.13394356 29.33761406 C-1.13755168 26.1206514 -1.13640959 22.90370399 -1.13381577 19.68674088 C-1.13314768 18.14213173 -1.13397079 16.59752121 -1.13629532 15.05291367 C-1.13882697 12.89835675 -1.13497444 10.74390456 -1.12939453 8.58935547 C-1.12859894 7.36231903 -1.12780334 6.13528259 -1.12698364 4.87106323 C-1 2 -1 2 0 0 Z " fill="#0563B9" transform="translate(817,480)"/>
<path d="M0 0 C10 0 10 0 20 1 C20 25.75 20 50.5 20 76 C13.4 76 6.8 76 0 76 C0 50.92 0 25.84 0 0 Z M2 3 C2 26.43 2 49.86 2 74 C7.61 74 13.22 74 19 74 C19 50.57 19 27.14 19 3 C13.39 3 7.78 3 2 3 Z " fill="#065EAF" transform="translate(525,480)"/>
<path d="M0 0 C6.27 0 12.54 0 19 0 C20.41778293 2.83556587 19.86257622 4.9908706 19.5625 8.125 C19.46066406 9.22070312 19.35882812 10.31640625 19.25390625 11.4453125 C19.17011719 12.28835938 19.08632813 13.13140625 19 14 C18.67 14 18.34 14 18 14 C18 10.04 18 6.08 18 2 C12.39 2 6.78 2 1 2 C1.03957157 7.22063275 1.03957157 7.22063275 1.09008789 12.44116211 C1.09723945 14.29433759 1.0502852 16.14749308 1 18 C0 19 0 19 -2.72265625 19.09765625 C-5.81510417 19.06510417 -8.90755208 19.03255208 -12 19 C-12 23.62 -12 28.24 -12 33 C-7.71 33 -3.42 33 1 33 C1 45.87 1 58.74 1 72 C0.67 72 0.34 72 0 72 C0 59.46 0 46.92 0 34 C-6.435 34.495 -6.435 34.495 -13 35 C-13 28.73 -13 22.46 -13 16 C-8.71 16.33 -4.42 16.66 0 17 C0 11.39 0 5.78 0 0 Z " fill="#0253A6" transform="translate(656,464)"/>
<path d="M0 0 C3 1 3 1 4.3515625 3.14453125 C4.77179687 4.02496094 5.19203125 4.90539062 5.625 5.8125 C6.05039062 6.68519531 6.47578125 7.55789063 6.9140625 8.45703125 C8.62313923 12.45922172 9.13147369 15.88102273 9.20532227 20.22753906 C9.22526749 21.26831604 9.24521271 22.30909302 9.26576233 23.38140869 C9.28247482 24.49820007 9.29918732 25.61499146 9.31640625 26.765625 C9.33718735 27.91415955 9.35796844 29.06269409 9.37937927 30.24603271 C9.44474993 33.91396111 9.50370194 37.58196093 9.5625 41.25 C9.60569707 43.73698654 9.64931175 46.22396587 9.69335938 48.7109375 C9.80041858 54.80721622 9.90220825 60.90356595 10 67 C6.23699626 68.25433458 2.72789091 68.10695422 -1.1875 68.0625 C-1.93708984 68.05798828 -2.68667969 68.05347656 -3.45898438 68.04882812 C-5.30602383 68.03706354 -7.15302213 68.01912865 -9 68 C-11.33928571 62.61607143 -11.33928571 62.61607143 -10 59 C-9.34 59 -8.68 59 -8 59 C-8 61.31 -8 63.62 -8 66 C-2.72 66 2.56 66 8 66 C7.95550708 59.4016233 7.88532065 52.80417273 7.79248047 46.20629883 C7.76445243 43.96711646 7.74314867 41.72783849 7.72900391 39.48852539 C8.62260266 20.24949988 8.62260266 20.24949988 1.36621094 3.30395508 C0.91536133 2.8736499 0.46451172 2.44334473 0 2 C0 1.34 0 0.68 0 0 Z " fill="#00499B" transform="translate(759,488)"/>
<path d="M0 0 C3.09277709 2.54295005 5.88343687 5.09202905 7 9 C6.81924144 14.69389465 6.22322861 17.89743507 2 22 C-1.04435914 24.28326936 -4.2060079 24.41859308 -7.96875 24.3203125 C-12.04325238 23.67779482 -14.87754791 21.42857538 -17.375 18.25 C-18.79173621 13.14974966 -18.65773139 9.39439055 -16.4375 4.6875 C-11.71339297 -0.52113083 -6.74342891 -1.99805301 0 0 Z M-15 5 C-17.35062814 8.205402 -17.39807915 11.09882438 -17 15 C-15.33237678 18.49406769 -14.25993978 19.82670681 -11 22 C-7.60892629 22.54602034 -4.39125824 22.54627924 -1 22 C1.82424288 19.80977082 3.41508603 18.16982793 5 15 C5.52963135 10.44093956 5.52963135 10.44093956 3.953125 6.2421875 C2.16405507 4.06373176 0.54084375 2.27042188 -2 1 C-7.68154178 0.45369791 -10.61651108 1.3301023 -15 5 Z " fill="#0864B8" transform="translate(541,449)"/>
<path d="M0 0 C4.81073752 4.15728839 8.44589159 9.55979663 9 16 C7.79860051 21.55749423 5.54691781 26.42742172 1 30 C0.34 29.67 -0.32 29.34 -1 29 C0.26953125 27.53515625 1.5390625 26.0703125 2.80859375 24.60546875 C5.92284014 20.4088941 5.57294851 14.97071544 5 10 C2.54447855 5.34297656 0.04996079 1.68332026 -5 0 C-12.09113208 -0.68878831 -17.37856502 -0.58892652 -23 4 C-26.59556888 8.97002182 -27.5699795 13.97971296 -28 20 C-28.33 20 -28.66 20 -29 20 C-29.54424876 13.46901494 -29.00509693 8.35959035 -25 3 C-17.65508241 -3.86775357 -8.94828345 -5.04357794 0 0 Z " fill="#23B7F3" transform="translate(234,380)"/>
<path d="M0 0 C1.01964844 -0.01417969 2.03929687 -0.02835938 3.08984375 -0.04296875 C6.18224078 0.19678345 8.32584712 0.73839579 11.0625 2.1875 C12.48309638 6.00535278 12.14481677 7.93621723 10.875 11.8125 C8.72677594 15.81264136 6.84147716 18.14104284 2.9375 20.4375 C-2.53869101 21.86607157 -7.9098252 22.1607839 -13.0625 19.6875 C-13.68125 19.1925 -14.3 18.6975 -14.9375 18.1875 C-14.6075 17.5275 -14.2775 16.8675 -13.9375 16.1875 C-12.9475 16.703125 -11.9575 17.21875 -10.9375 17.75 C-5.90092067 19.91583127 -1.60437817 19.21322237 3.5 17.25 C5.22984028 16.25961349 5.22984028 16.25961349 6.0625 14.1875 C6.7225 14.1875 7.3825 14.1875 8.0625 14.1875 C8.3925 10.8875 8.7225 7.5875 9.0625 4.1875 C2.01914616 2.22459811 -3.71216796 2.18810828 -10.9375 3.1875 C-9.9375 1.1875 -9.9375 1.1875 -8.24609375 0.57421875 C-5.46964631 0.10912857 -2.81548379 0.0177521 0 0 Z " fill="#0465BF" transform="translate(738.9375,521.8125)"/>
<path d="M0 0 C0 0.33 0 0.66 0 1 C-0.85722656 1.21914063 -1.71445312 1.43828125 -2.59765625 1.6640625 C-12.49987649 4.36725089 -12.49987649 4.36725089 -20 11 C-21.59584743 13.91934964 -22.87987254 16.86920895 -24 20 C-22.44240657 20.53532823 -20.87861955 21.05265378 -19.3125 21.5625 C-18.44238281 21.85253906 -17.57226562 22.14257812 -16.67578125 22.44140625 C-13.71450683 23.0595993 -11.87985449 22.86790135 -9 22 C-7.20614008 20.5420814 -7.20614008 20.5420814 -6 19 C-5.67 19.66 -5.34 20.32 -5 21 C-5.66 21 -6.32 21 -7 21 C-7.33 22.65 -7.66 24.3 -8 26 C-14.30367803 25.41632611 -19.98660063 23.95928381 -26 22 C-25.73061727 15.53481459 -23.51337356 11.6161626 -19 7 C-12.67774622 2.02405239 -8.15072691 -0.1537873 0 0 Z " fill="#0566BD" transform="translate(731,481)"/>
<path d="M0 0 C1.65 0 3.3 0 5 0 C4.67 22.77 4.34 45.54 4 69 C3.67 69 3.34 69 3 69 C3 46.89 3 24.78 3 2 C2.01 1.67 1.02 1.34 0 1 C0 0.67 0 0.34 0 0 Z " fill="#008BFA" transform="translate(539,483)"/>
<path d="M0 0 C0.66 0.33 1.32 0.66 2 1 C1.0409375 2.11375 1.0409375 2.11375 0.0625 3.25 C-2.83059986 7.10746648 -3.1135058 10.2180794 -3.31640625 14.95703125 C-3.35830078 15.90513672 -3.40019531 16.85324219 -3.44335938 17.83007812 C-3.50233398 19.30637695 -3.50233398 19.30637695 -3.5625 20.8125 C-3.60568359 21.78509766 -3.64886719 22.75769531 -3.69335938 23.75976562 C-3.91025244 28.84470308 -4.04968723 33.91060753 -4 39 C-4.66 38.67 -5.32 38.34 -6 38 C-6.02926019 33.83334831 -6.04688594 29.66672341 -6.0625 25.5 C-6.07087891 24.32695313 -6.07925781 23.15390625 -6.08789062 21.9453125 C-6.12238484 9.66537111 -6.12238484 9.66537111 -5 4 C-2.4375 1.5 -2.4375 1.5 0 0 Z " fill="#0364BC" transform="translate(841,500)"/>
<path d="M0 0 C0.66 0 1.32 0 2 0 C2 2.31 2 4.62 2 7 C7.28 7 12.56 7 18 7 C18 4.69 18 2.38 18 0 C18.33 0 18.66 0 19 0 C19.33 2.64 19.66 5.28 20 8 C16.23699626 9.25433458 12.72789091 9.10695422 8.8125 9.0625 C8.06291016 9.05798828 7.31332031 9.05347656 6.54101562 9.04882812 C4.69397617 9.03706354 2.84697787 9.01912865 1 9 C-1.33928571 3.61607143 -1.33928571 3.61607143 0 0 Z " fill="#0863B7" transform="translate(749,547)"/>
<path d="M0 0 C6.75559498 -0.0965085 13.29207194 0.20075751 20 1 C20 1.33 20 1.66 20 2 C11.585 2.495 11.585 2.495 3 3 C2.34 7.29 1.68 11.58 1 16 C0.67 16 0.34 16 0 16 C0 10.72 0 5.44 0 0 Z " fill="#0873CB" transform="translate(525,480)"/>
<path d="M0 0 C3.14581423 -0.02888514 6.29159469 -0.04675923 9.4375 -0.0625 C10.33533203 -0.07087891 11.23316406 -0.07925781 12.15820312 -0.08789062 C13.01220703 -0.09111328 13.86621094 -0.09433594 14.74609375 -0.09765625 C15.93223267 -0.10551147 15.93223267 -0.10551147 17.14233398 -0.11352539 C19 0 19 0 20 1 C20.1875 4.4375 20.1875 4.4375 20 8 C19.34 8.66 18.68 9.32 18 10 C18 7.36 18 4.72 18 2 C12.06 1.67 6.12 1.34 0 1 C0 0.67 0 0.34 0 0 Z " fill="#0775CF" transform="translate(560,481)"/>
<path d="M0 0 C-7.33763707 1.17402193 -14.58165418 1.09377123 -22 1 C-17.1416455 -3.8583545 -5.71198492 -3.32979766 0 0 Z " fill="#1EB8F6" transform="translate(301,455)"/>
<path d="M0 0 C0.66 0.33 1.32 0.66 2 1 C1.0409375 2.11375 1.0409375 2.11375 0.0625 3.25 C-3.27106781 7.69475708 -3.20685099 11.76284387 -3.5625 17.25 C-3.64628906 18.51328125 -3.73007812 19.7765625 -3.81640625 21.078125 C-3.87699219 22.04234375 -3.93757812 23.0065625 -4 24 C-4.33 24 -4.66 24 -5 24 C-5.14546783 20.75047252 -5.2341168 17.50178287 -5.3125 14.25 C-5.35439453 13.32960938 -5.39628906 12.40921875 -5.43945312 11.4609375 C-5.56390832 4.59101089 -5.56390832 4.59101089 -2.48046875 1.359375 C-1.66191406 0.91078125 -0.84335937 0.4621875 0 0 Z " fill="#0470CB" transform="translate(841,500)"/>
<path d="M0 0 C0.99 0 1.98 0 3 0 C3.14715692 7.3905476 2.70776992 14.64424835 2 22 C1.67 22 1.34 22 1 22 C0.67 14.74 0.34 7.48 0 0 Z " fill="#37D3FD" transform="translate(213,488)"/>
<path d="M0 0 C3 1 3 1 4.3515625 3.0390625 C6.84566123 8.10376605 8.63128117 12.34631133 9 18 C8.34 18 7.68 18 7 18 C6.74605469 17.09636719 6.49210938 16.19273437 6.23046875 15.26171875 C5.88628906 14.08222656 5.54210937 12.90273438 5.1875 11.6875 C4.85105469 10.51574219 4.51460937 9.34398437 4.16796875 8.13671875 C3.06402348 5.17194266 2.29099185 4.02841399 0 2 C0 1.34 0 0.68 0 0 Z " fill="#0464BC" transform="translate(759,488)"/>
<path d="M0 0 C4.62 0 9.24 0 14 0 C13.67 0.99 13.34 1.98 13 3 C9.04 3 5.08 3 1 3 C0.67 2.01 0.34 1.02 0 0 Z " fill="#0368C5" transform="translate(643,480)"/>
<path d="M0 0 C1.32 0.33 2.64 0.66 4 1 C2.48446596 4.47775179 0.4226544 6.9557984 -2.125 9.75 C-3.21167969 10.94882812 -3.21167969 10.94882812 -4.3203125 12.171875 C-4.87460937 12.77515625 -5.42890625 13.3784375 -6 14 C-6.66 13.67 -7.32 13.34 -8 13 C-7.4225 12.39671875 -6.845 11.7934375 -6.25 11.171875 C-5.5075 10.37265625 -4.765 9.5734375 -4 8.75 C-3.2575 7.96109375 -2.515 7.1721875 -1.75 6.359375 C0.3971575 3.95413684 0.3971575 3.95413684 0 0 Z " fill="#0766B9" transform="translate(512,533)"/>
<path d="M0 0 C0 2.31 0 4.62 0 7 C-0.99 7.495 -0.99 7.495 -2 8 C-2.103125 7.21625 -2.20625 6.4325 -2.3125 5.625 C-2.77595022 2.66954819 -2.77595022 2.66954819 -6 1 C-3 0 -3 0 0 0 Z " fill="#0571CE" transform="translate(695,537)"/>
<path d="" fill="#40CBF6" transform="translate(0,0)"/>
<path d="M0 0 C0.66 0.66 1.32 1.32 2 2 C1.34 2 0.68 2 0 2 C0 1.34 0 0.68 0 0 Z " fill="#39CCFA" transform="translate(304,582)"/>
<path d="M0 0 C0.99 0.495 0.99 0.495 2 1 C1.01 1.495 1.01 1.495 0 2 C0 1.34 0 0.68 0 0 Z " fill="#1D7DCE" transform="translate(885,552)"/>
<path d="M0 0 C0.66 0.66 1.32 1.32 2 2 C1.34 2 0.68 2 0 2 C0 1.34 0 0.68 0 0 Z " fill="#45C8F5" transform="translate(160,442)"/>
<path d="" fill="#41CEFD" transform="translate(0,0)"/>
<path d="" fill="#42CBF7" transform="translate(0,0)"/>
<path d="M0 0 C2 1 2 1 2 1 Z " fill="#42C9F5" transform="translate(172,572)"/>
<path d="M0 0 C2 1 2 1 2 1 Z " fill="#0B89E8" transform="translate(469,536)"/>
<path d="" fill="#0F85E5" transform="translate(0,0)"/>
<path d="" fill="#1087E5" transform="translate(0,0)"/>
<path d="" fill="#1185E2" transform="translate(0,0)"/>
<path d="M0 0 C2 1 2 1 2 1 Z " fill="#41D3FF" transform="translate(272,426)"/>
<path d="M0 0 C2 1 2 1 2 1 Z " fill="#3ED0FB" transform="translate(221,415)"/>
<path d="M0 0 C2 1 2 1 2 1 Z " fill="#41D0FD" transform="translate(281,405)"/>
<path d="M0 0 C2 1 2 1 2 1 Z " fill="#41CBF7" transform="translate(329,384)"/>
<path d="M0 0 C2 1 2 1 2 1 Z " fill="#43CCF5" transform="translate(217,376)"/>
<path d="" fill="#46C5F2" transform="translate(0,0)"/>
<path d="" fill="#44C8F3" transform="translate(0,0)"/>
<path d="" fill="#40C5F2" transform="translate(0,0)"/>
<path d="" fill="#3EC6F4" transform="translate(0,0)"/>
<path d="" fill="#40CBF6" transform="translate(0,0)"/>
<path d="" fill="#3DCDFC" transform="translate(0,0)"/>
<path d="" fill="#41C8F5" transform="translate(0,0)"/>
<path d="" fill="#42CDF9" transform="translate(0,0)"/>
<path d="" fill="#3DCEFF" transform="translate(0,0)"/>
<path d="" fill="#40D0FE" transform="translate(0,0)"/>
<path d="" fill="#3DD0FE" transform="translate(0,0)"/>
<path d="" fill="#3ECFFE" transform="translate(0,0)"/>
<path d="" fill="#43C8F5" transform="translate(0,0)"/>
<path d="" fill="#42C8F4" transform="translate(0,0)"/>
<path d="" fill="#3DCBF6" transform="translate(0,0)"/>
<path d="" fill="#3CC9F5" transform="translate(0,0)"/>
<path d="" fill="#3AC7F9" transform="translate(0,0)"/>
<path d="" fill="#0C84E3" transform="translate(0,0)"/>
<path d="" fill="#0F84DF" transform="translate(0,0)"/>
<path d="" fill="#1083DE" transform="translate(0,0)"/>
<path d="" fill="#1489E2" transform="translate(0,0)"/>
<path d="" fill="#45C9F6" transform="translate(0,0)"/>
<path d="" fill="#1283E0" transform="translate(0,0)"/>
<path d="" fill="#1488E1" transform="translate(0,0)"/>
<path d="" fill="#137CD8" transform="translate(0,0)"/>
<path d="" fill="#1180DB" transform="translate(0,0)"/>
<path d="" fill="#0E85E4" transform="translate(0,0)"/>
<path d="" fill="#46C8F4" transform="translate(0,0)"/>
<path d="" fill="#1282DB" transform="translate(0,0)"/>
<path d="" fill="#0388EA" transform="translate(0,0)"/>
<path d="" fill="#0F84E0" transform="translate(0,0)"/>
<path d="" fill="#0C82DD" transform="translate(0,0)"/>
<path d="" fill="#3FCFFF" transform="translate(0,0)"/>
<path d="" fill="#1185E2" transform="translate(0,0)"/>
<path d="" fill="#41D0FC" transform="translate(0,0)"/>
<path d="" fill="#0F87EA" transform="translate(0,0)"/>
<path d="" fill="#3ECCFC" transform="translate(0,0)"/>
<path d="" fill="#0C89E9" transform="translate(0,0)"/>
<path d="" fill="#0982E3" transform="translate(0,0)"/>
<path d="" fill="#0E84E6" transform="translate(0,0)"/>
<path d="" fill="#41CAF8" transform="translate(0,0)"/>
<path d="" fill="#1087E4" transform="translate(0,0)"/>
<path d="" fill="#3CCEFC" transform="translate(0,0)"/>
<path d="" fill="#1B90E5" transform="translate(0,0)"/>
<path d="" fill="#0A85EA" transform="translate(0,0)"/>
<path d="" fill="#0C88E9" transform="translate(0,0)"/>
<path d="" fill="#0988EA" transform="translate(0,0)"/>
<path d="" fill="#0986ED" transform="translate(0,0)"/>
<path d="" fill="#0A84EA" transform="translate(0,0)"/>
<path d="" fill="#40CFFF" transform="translate(0,0)"/>
<path d="" fill="#3ED0FC" transform="translate(0,0)"/>
<path d="" fill="#0986EA" transform="translate(0,0)"/>
<path d="" fill="#0B82E8" transform="translate(0,0)"/>
<path d="" fill="#1F94E6" transform="translate(0,0)"/>
<path d="" fill="#0D85E4" transform="translate(0,0)"/>
<path d="" fill="#0A86E9" transform="translate(0,0)"/>
<path d="" fill="#0A87E3" transform="translate(0,0)"/>
<path d="" fill="#0F84E1" transform="translate(0,0)"/>
<path d="" fill="#1786DA" transform="translate(0,0)"/>
<path d="" fill="#2093E6" transform="translate(0,0)"/>
<path d="" fill="#40D2FF" transform="translate(0,0)"/>
<path d="" fill="#1087E6" transform="translate(0,0)"/>
<path d="" fill="#3ECFFE" transform="translate(0,0)"/>
<path d="" fill="#3FD0FF" transform="translate(0,0)"/>
<path d="" fill="#42D3FD" transform="translate(0,0)"/>
<path d="" fill="#1185E3" transform="translate(0,0)"/>
<path d="" fill="#40CDFB" transform="translate(0,0)"/>
<path d="" fill="#0E85E0" transform="translate(0,0)"/>
<path d="" fill="#0D8BE7" transform="translate(0,0)"/>
<path d="" fill="#0D81DF" transform="translate(0,0)"/>
<path d="" fill="#41CEFC" transform="translate(0,0)"/>
<path d="" fill="#42CFFC" transform="translate(0,0)"/>
<path d="" fill="#0F86E4" transform="translate(0,0)"/>
<path d="" fill="#3FCDFA" transform="translate(0,0)"/>
<path d="" fill="#40D1FE" transform="translate(0,0)"/>
<path d="" fill="#40CFFF" transform="translate(0,0)"/>
<path d="" fill="#1188E1" transform="translate(0,0)"/>
<path d="" fill="#1286DF" transform="translate(0,0)"/>
<path d="" fill="#40CCFB" transform="translate(0,0)"/>
<path d="" fill="#3FCEFA" transform="translate(0,0)"/>
<path d="" fill="#40D0FD" transform="translate(0,0)"/>
<path d="" fill="#1C85D9" transform="translate(0,0)"/>
<path d="" fill="#40CAF7" transform="translate(0,0)"/>
<path d="" fill="#3ECFFD" transform="translate(0,0)"/>
<path d="" fill="#43CBFA" transform="translate(0,0)"/>
<path d="" fill="#3FCEFB" transform="translate(0,0)"/>
<path d="" fill="#3FC6F5" transform="translate(0,0)"/>
<path d="" fill="#3FC6F5" transform="translate(0,0)"/>
<path d="" fill="#4AC9F4" transform="translate(0,0)"/>
<path d="" fill="#42D2FF" transform="translate(0,0)"/>
<path d="" fill="#41D1F9" transform="translate(0,0)"/>
<path d="" fill="#46D0FB" transform="translate(0,0)"/>
<path d="" fill="#3FC4F3" transform="translate(0,0)"/>
<path d="" fill="#44CCF6" transform="translate(0,0)"/>
<path d="" fill="#41CFFC" transform="translate(0,0)"/>
<path d="" fill="#40D0FC" transform="translate(0,0)"/>
<path d="" fill="#43D0FD" transform="translate(0,0)"/>
<path d="" fill="#41D2FD" transform="translate(0,0)"/>
<path d="" fill="#43CFFA" transform="translate(0,0)"/>
<path d="" fill="#41D2FD" transform="translate(0,0)"/>
<path d="" fill="#42CFFE" transform="translate(0,0)"/>
<path d="" fill="#4AC8F1" transform="translate(0,0)"/>
<path d="" fill="#45CDF9" transform="translate(0,0)"/>
<path d="" fill="#42CAF6" transform="translate(0,0)"/>
<path d="" fill="#46CDFB" transform="translate(0,0)"/>
<path d="" fill="#44CFF5" transform="translate(0,0)"/>
</svg>
